<svg xmlns="http://www.w3.org/2000/svg" viewBox="0 0 24 24"><defs/><path d="M9,5a1,1,0,0,0,.71-.29L11,3.41V9a1,1,0,0,0,2,0V3.41l1.29,1.29a1,1,0,0,0,1.41-1.41l-3-3a1,1,0,0,0-1.42,0l-3,3A1,1,0,0,0,9,5Z"/><path d="M14.29,19.29,13,20.59V15a1,1,0,0,0-2,0v5.59L9.71,19.29a1,1,0,0,0-1.41,1.41l3,3a1,1,0,0,0,1.42,0l3-3a1,1,0,0,0-1.41-1.41Z"/><path d="M3.41,13H9a1,1,0,0,0,0-2H3.41L4.71,9.71A1,1,0,0,0,3.29,8.29l-3,3a1,1,0,0,0,0,1.42l3,3a1,1,0,0,0,1.41-1.41Z"/><path d="M23.92,12.38a1,1,0,0,0-.22-1.09l-3-3a1,1,0,0,0-1.41,1.41L20.59,11H15a1,1,0,0,0,0,2h5.59l-1.29,1.29a1,1,0,1,0,1.41,1.41l3-3A1,1,0,0,0,23.92,12.38Z"/></svg>