<svg xmlns="http://www.w3.org/2000/svg" viewBox="0 0 24 24"><defs/><path d="M17,16.95A7,7,0,0,1,5,12v-.59l1.29,1.29a1,1,0,0,0,1.13.19,1,1,0,0,0,.57.2H9v1a3,3,0,0,0,3,3,3,3,0,0,0,3-3h0l-2,0a1,1,0,0,1-.29.69,1,1,0,0,1-.73.29,1,1,0,0,1-1-1v-1h1a1,1,0,0,0,0-2H11v-1a1,1,0,0,1,1-1,1,1,0,0,1,1,1,1,1,0,0,0,1,1h0a1,1,0,0,0,1-1,3,3,0,0,0-6,0v1H8a1,1,0,0,0-.4.09L4.71,8.29a1,1,0,0,0-1.41,0l-3,3a1,1,0,0,0,1.41,1.41L3,11.41V12a9,9,0,0,0,15.36,6.36A1,1,0,0,0,17,16.95Z"/><path d="M23.71,11.29a1,1,0,0,0-1.41,0L21,12.59V12A9,9,0,0,0,5.64,5.64,1,1,0,0,0,7,7a7,7,0,0,1,12,5v.59l-1.29-1.29a1,1,0,0,0-1.41,1.41l3,3a1,1,0,0,0,1.41,0l3-3A1,1,0,0,0,23.71,11.29Z"/></svg>