<svg xmlns="http://www.w3.org/2000/svg" viewBox="0 0 24 24"><defs/><path d="M19.09,5H16V4.06A4,4,0,0,0,12.14,0h-.27A4,4,0,0,0,8,4.06V5H4.91A1.91,1.91,0,0,0,3,6.91V22.08A1.92,1.92,0,0,0,4.92,24H19.08A1.92,1.92,0,0,0,21,22.08V6.91A1.91,1.91,0,0,0,19.09,5ZM10,4.06A2,2,0,0,1,11.86,2h.27A2,2,0,0,1,14,4.06V5H10ZM19,22H5V7H8V9a1,1,0,0,0,2,0V7h4V9a1,1,0,0,0,2,0V7h3Z"/><path d="M9.93,15.83A1.92,1.92,0,1,0,8,13.92,1.92,1.92,0,0,0,9.93,15.83Zm0-2.5a.58.58,0,1,1-.59.58A.59.59,0,0,1,9.93,13.33Z"/><path d="M15.5,12.5a.67.67,0,0,0-.94,0L8.5,18.56a.67.67,0,1,0,.94.94l6.06-6.06A.67.67,0,0,0,15.5,12.5Z"/><path d="M14.07,16.17A1.92,1.92,0,1,0,16,18.08,1.92,1.92,0,0,0,14.07,16.17Zm0,2.5a.58.58,0,1,1,.59-.58A.59.59,0,0,1,14.07,18.67Z"/></svg>