<svg xmlns="http://www.w3.org/2000/svg" viewBox="0 0 24 24"><defs/><path d="M22.9,8.58l-4.71-.68a4.65,4.65,0,0,1-3.12-2.26L13,1.35c-.26-.54-.61-.8-1-.8s-.7.27-1,.8L8.93,5.63A4.65,4.65,0,0,1,5.81,7.89L1.1,8.58c-1.18.17-1.45,1-.6,1.83l3.41,3.33A4.65,4.65,0,0,1,5.1,17.4l-.81,4.7c-.15.85.18,1.36.78,1.36a1.72,1.72,0,0,0,.78-.23L10.07,21A4.25,4.25,0,0,1,12,20.59a4.25,4.25,0,0,1,1.93.42l4.22,2.22a1.72,1.72,0,0,0,.78.23c.59,0,.92-.5.78-1.36l-.81-4.7a4.65,4.65,0,0,1,1.19-3.66l3.41-3.33C24.36,9.57,24.09,8.75,22.9,8.58ZM18.69,12.3a6.67,6.67,0,0,0-1.76,5.44l.49,2.84-2.56-1.34A6.26,6.26,0,0,0,12,18.59a6.26,6.26,0,0,0-2.86.65L6.59,20.58l.49-2.85A6.67,6.67,0,0,0,5.31,12.3l-2.07-2L6.1,9.87a6.58,6.58,0,0,0,4.62-3.36L12,3.92l1.28,2.59A6.58,6.58,0,0,0,17.9,9.87l2.86.42Z"/></svg>