<svg xmlns="http://www.w3.org/2000/svg" viewBox="0 0 24 24"><defs/><path d="M23.39,17.95,19.2,13.76a2,2,0,0,0-2.83,0l-2.67,2.67a.1.1,0,0,1-.13,0l-6-6a.09.09,0,0,1,0-.13l2.67-2.67a2,2,0,0,0,0-2.83L6.05.61A2.07,2.07,0,0,0,4.58,0h0A2.07,2.07,0,0,0,3.1.62a10.6,10.6,0,0,0,0,15L8.41,20.9a10.6,10.6,0,0,0,15,0A2.09,2.09,0,0,0,23.39,17.95ZM22,19.49a8.6,8.6,0,0,1-12.14,0L4.51,14.17A8.6,8.6,0,0,1,4.51,2l.06,0,.06,0L8.82,6.21,6.16,8.88a2.09,2.09,0,0,0,0,3l6,6a2.09,2.09,0,0,0,3,0l2.67-2.67L22,19.36A.1.1,0,0,1,22,19.49Z"/></svg>