<svg xmlns="http://www.w3.org/2000/svg" viewBox="0 0 24 24"><defs/><path d="M22.25,3.19A6.17,6.17,0,0,0,12.9,3.1l-.87,1-.75-.82A6.6,6.6,0,0,0,6.5,1H6.44A6.11,6.11,0,0,0,2,3a7.48,7.48,0,0,0-.09,10l8.37,9.2A2.39,2.39,0,0,0,12,23h0a2.38,2.38,0,0,0,1.78-.8L22,13.15A7.66,7.66,0,0,0,22.25,3.19ZM20.56,11.8l-8.24,9.05a.38.38,0,0,1-.6,0L3.35,11.66a5.51,5.51,0,0,1,.06-7.28A4.14,4.14,0,0,1,6.44,3h0A4.59,4.59,0,0,1,9.8,4.59l1.48,1.63a1,1,0,0,0,1.48,0l1.61-1.77A4.25,4.25,0,0,1,17.53,3h0a4.27,4.27,0,0,1,3.18,1.51A5.61,5.61,0,0,1,20.56,11.8Z"/></svg>