<svg xmlns="http://www.w3.org/2000/svg" viewBox="0 0 24 24"><defs/><path d="M21.45,4.42,18,.77A1,1,0,0,0,17,0a1,1,0,0,0-.22,0,2,2,0,0,0-.41,0H4A2,2,0,0,0,2,2V21.9a2,2,0,0,0,2,2H20a2,2,0,0,0,2-2V5.79A2,2,0,0,0,21.45,4.42ZM18,3.71,19.24,5H18ZM20,22H3.9V2H16V6a1,1,0,0,0,1,1h3Z"/><path d="M10.21,10.13h-1L8.6,11.78c-.15.47-.28.92-.36,1.25-.1-.42-.21-.84-.34-1.24l-.53-1.62v0H6.31L6,14.22v.05h.79l.09-1.67c0-.43,0-.91.06-1.38.09.4.21.82.33,1.25l.54,1.73v0H8.5l.6-1.78c.14-.4.28-.84.4-1.26,0,.46,0,.95,0,1.36l.08,1.69v0h.82l-.24-4.09Z"/><path d="M12.71,10.06a2,2,0,0,0-2,2.17,1.91,1.91,0,0,0,1.91,2.11,2,2,0,0,0,2-2.18A1.91,1.91,0,0,0,12.71,10.06Zm0,3.58c-.64,0-1.07-.57-1.07-1.42s.42-1.46,1.07-1.46,1.07.74,1.07,1.43C13.76,13.07,13.34,13.64,12.69,13.64Z"/><path d="M16.43,13.29c-.09-.38-.2-.79-.35-1.29l-.55-1.83v0h-.91l1.33,4.11v0h.92l1.41-4.08,0-.07H17.4L16.8,12C16.65,12.47,16.53,12.9,16.43,13.29Z"/></svg>