<?xml version="1.0" encoding="utf-8"?><svg xmlns="http://www.w3.org/2000/svg" xmlns:xlink="http://www.w3.org/1999/xlink" style="enable-background:new 0 0 24 24" x="0px" y="0px" version="1.1" viewBox="0 0 24 24" xml:space="preserve"><g><path d="M9,14c-0.6,0-1,0.4-1,1c0,0.6,0.4,1,1,1h2v1c0,0.6,0.4,1,1,1c0.6,0,1-0.4,1-1v-1h0.5c1.4,0,2.5-1.1,2.5-2.5 c0-1.4-1.1-2.5-2.5-2.5H13v-1h2c0.6,0,1-0.4,1-1c0-0.6-0.4-1-1-1h-2V7c0-0.6-0.4-1-1-1c-0.6,0-1,0.4-1,1v1h-0.5C9.1,8,8,9.1,8,10.5 c0,1.4,1.1,2.5,2.5,2.5H11v1H9z M13,13h0.5c0.3,0,0.5,0.2,0.5,0.5c0,0.3-0.2,0.5-0.5,0.5H13V13z M10.5,11c-0.3,0-0.5-0.2-0.5-0.5 c0-0.3,0.2-0.5,0.5-0.5H11v1H10.5z"/><path d="M20,0H4C2.9,0,2,0.9,2,2v20c0,0.2,0,0.3,0,0.5c0,0.3-0.1,0.7,0.1,1.1C2.3,23.8,2.6,24,3,24 c0.1,0,0.3,0,0.4-0.1c0,0,0.1,0,0.1-0.1l2.4-1.7l2.4,1.7C8.5,23.9,8.7,24,8.9,24H9c0.2,0,0.4-0.1,0.6-0.2l2.4-1.7l2.4,1.7 c0.2,0.1,0.4,0.2,0.6,0.2H15c0.2,0,0.4-0.1,0.6-0.2l2.4-1.7l2.4,1.7c0.1,0,0.1,0.1,0.2,0.1C20.7,24,20.8,24,21,24 c0.3,0,0.6-0.2,0.8-0.4C22,23.3,22,23,22,22.7c0-0.2,0-0.4,0-0.7V2C22,0.9,21.1,0,20,0z M20,21.1l-1.4-1c-0.2-0.1-0.3-0.1-0.5-0.2 c-0.1,0-0.1,0-0.2,0c0,0,0,0-0.1,0c-0.2,0-0.4,0-0.5,0.2L15,21.8l-2.4-1.7c-0.2-0.1-0.3-0.1-0.5-0.2c-0.1,0-0.1,0-0.2,0 c0,0,0,0-0.1,0c-0.2,0-0.4,0-0.5,0.2l-2.4,1.7l-2.4-1.7C6.4,20.1,6.2,20,6,20c-0.1,0-0.1,0-0.2,0c0,0,0,0-0.1,0 c-0.2,0-0.4,0-0.5,0.2L4,21V2h16V21.1z"/></g></svg>