<svg xmlns="http://www.w3.org/2000/svg" viewBox="0 0 24 24"><defs/><path d="M5.29,11H9.55a1.5,1.5,0,0,0,1.5-1.5h0A1.5,1.5,0,0,0,9.55,8h-3A1.5,1.5,0,0,1,5,6.5H5A1.5,1.5,0,0,1,6.53,5h4.52"/><path d="M9,12h.52a2.5,2.5,0,1,0,0-5H9V6h2a1,1,0,0,0,0-2H9A1,1,0,0,0,7,4h-.5a2.5,2.5,0,0,0,0,5H7v1H5.29a1,1,0,1,0,0,2H7a1,1,0,0,0,2,0ZM9,9h.52a.5.5,0,1,1,0,1H9ZM7,7h-.5a.5.5,0,0,1,0-1H7Z"/><path d="M16,8a8,8,0,1,0-8,8,8,8,0,1,0,8-8ZM2,8a6,6,0,1,1,6,6A6,6,0,0,1,2,8Zm11,6.24V15H12a1,1,0,0,0-.21,0A8,8,0,0,0,13,14.24ZM16,22a6,6,0,0,1-6-6,1,1,0,0,0-.05-.25,7.92,7.92,0,0,0,1.4-.49A1,1,0,0,0,11,16a1,1,0,0,0,1,1h1v1a3,3,0,0,0,3,3h1a3,3,0,0,0,3-3,1,1,0,0,0-2,0,1,1,0,0,1-1,1H16a1,1,0,0,1-1-1V17h1a1,1,0,0,0,0-2H15V14a1,1,0,0,1,1-1h1a1,1,0,0,1,1,1,1,1,0,0,0,2,0,3,3,0,0,0-3-3H16a3,3,0,0,0-.61.06,7.94,7.94,0,0,0,.36-1.11A1,1,0,0,0,16,10a6,6,0,0,1,0,12Z"/></svg>