<svg xmlns="http://www.w3.org/2000/svg" viewBox="0 0 24 24"><defs/><path d="M20.45-.09a1,1,0,0,0-1,.09L17.19,1.63,15.16,0a1,1,0,0,0-1.24,0l-2,1.59L9.89,0A1,1,0,0,0,8.64,0l-2,1.59L4.62,0A1,1,0,0,0,3,.8v22a1,1,0,0,0,1.59.81L6.81,22l2,1.61a1,1,0,0,0,1.24,0l2-1.59,2,1.59a1,1,0,0,0,1.25,0l2-1.59,2,1.6A1,1,0,0,0,21,22.8V.8A1,1,0,0,0,20.45-.09ZM19,20.75l-1.05-.82a1,1,0,0,0-1.24,0l-2,1.58-2-1.59a1,1,0,0,0-1.24,0l-2,1.59-2-1.59a1,1,0,0,0-1.21,0L5,20.82v-18l1.05.82a1,1,0,0,0,1.24,0l2-1.59,2,1.59a1,1,0,0,0,1.24,0l2-1.59,2,1.59a1,1,0,0,0,1.21,0L19,2.78Z"/><path d="M16,7H8A1,1,0,0,0,8,9h8a1,1,0,0,0,0-2Z"/><path d="M12,11H8a1,1,0,0,0,0,2h4a1,1,0,0,0,0-2Z"/></svg>