<svg xmlns="http://www.w3.org/2000/svg" viewBox="0 0 24 24"><defs/><path d="M7.45,8.57a2,2,0,0,1,.79.16l.16-.59a2.31,2.31,0,0,0-1-.18A2,2,0,0,0,5.26,10.1a1.91,1.91,0,0,0,2.06,2,2.55,2.55,0,0,0,1-.18l-.12-.58a2.07,2.07,0,0,1-.8.15A1.33,1.33,0,0,1,6,10.06,1.35,1.35,0,0,1,7.45,8.57Z"/><path d="M10.4,8a1.94,1.94,0,0,0-1.92,2.12,1.87,1.87,0,0,0,1.86,2.06A1.91,1.91,0,0,0,12.28,10,1.87,1.87,0,0,0,10.4,8Zm0,3.58c-.71,0-1.12-.65-1.12-1.48s.39-1.51,1.12-1.51S11.5,9.28,11.5,10,11.1,11.54,10.38,11.54Z"/><path d="M14.74,10.16v0a1.08,1.08,0,0,0,.73-1,1,1,0,0,0-.35-.81A1.88,1.88,0,0,0,13.88,8a7,7,0,0,0-1.12.08v4h.73V10.41h.37c.42,0,.61.18.73.71a5.8,5.8,0,0,0,.27,1h.76a8.07,8.07,0,0,1-.32-1.13A1,1,0,0,0,14.74,10.16Zm-.81-.29H13.5V8.59a2.12,2.12,0,0,1,.46,0c.48,0,.79.2.79.65S14.43,9.87,13.93,9.87Z"/><path d="M17.16,8A6.41,6.41,0,0,0,16,8.08v4h.73V10.55a2.14,2.14,0,0,0,.36,0,1.78,1.78,0,0,0,1.28-.43,1.23,1.23,0,0,0,.35-.92,1.14,1.14,0,0,0-.4-.89A1.83,1.83,0,0,0,17.16,8Zm0,2a1.49,1.49,0,0,1-.36,0V8.6a2,2,0,0,1,.43,0c.51,0,.82.24.82.69S17.67,10,17.12,10Z"/><path d="M21,3H3A3,3,0,0,0,0,6V18a3,3,0,0,0,3,3H21a3,3,0,0,0,3-3V6A3,3,0,0,0,21,3Zm1,15a1,1,0,0,1-1,1H3a1,1,0,0,1-1-1V17H22Zm0-3H2V6A1,1,0,0,1,3,5H21a1,1,0,0,1,1,1Z"/></svg>