<svg xmlns="http://www.w3.org/2000/svg" viewBox="0 0 24 24"><defs/><path d="M14.55,12.64A3.09,3.09,0,0,0,15,11a2.9,2.9,0,0,0-3-3,2.9,2.9,0,0,0-3,3,3.09,3.09,0,0,0,.45,1.64A4.81,4.81,0,0,0,7,17a1,1,0,0,0,1,1h8a1,1,0,0,0,1-1,5,5,0,0,0-1.39-3.6A4.55,4.55,0,0,0,14.55,12.64ZM11,11a.92.92,0,0,1,1-1,.92.92,0,0,1,1,1,.92.92,0,0,1-1,1A.92.92,0,0,1,11,11ZM9.14,16A2.78,2.78,0,0,1,12,14a3,3,0,0,1,2.2.82A2.68,2.68,0,0,1,14.87,16Z"/><path d="M22,3H18a1,1,0,0,0-2,0H8A1,1,0,0,0,6,3H2A2,2,0,0,0,0,5V20a2,2,0,0,0,2,2H22a2,2,0,0,0,2-2V5A2,2,0,0,0,22,3ZM2,20V5H6V7A1,1,0,0,0,8,7V5h8V7a1,1,0,0,0,2,0V5h4V20Z"/></svg>