<svg xmlns="http://www.w3.org/2000/svg" viewBox="0 0 24 24"><defs/><path d="M15,6h8a1,1,0,0,0,0-2H15a1,1,0,0,0,0,2Z"/><path d="M9,4H6V1A1,1,0,0,0,4,1V4H1A1,1,0,0,0,1,6H4V9A1,1,0,0,0,6,9V6H9A1,1,0,0,0,9,4Z"/><path d="M23,22H15a1,1,0,0,0,0,2h8a1,1,0,0,0,0-2Z"/><path d="M23,16H15a1,1,0,0,0,0,2h8a1,1,0,0,0,0-2Z"/><path d="M8.71,16.29a1,1,0,0,0-1.41,0L5,18.59,2.71,16.29a1,1,0,0,0-1.41,1.41L3.59,20,1.29,22.29a1,1,0,1,0,1.41,1.41L5,21.41l2.29,2.29a1,1,0,0,0,1.41-1.41L6.41,20l2.29-2.29A1,1,0,0,0,8.71,16.29Z"/></svg>