<svg xmlns="http://www.w3.org/2000/svg" viewBox="0 0 24 24"><defs/><path d="M18,22H6a1,1,0,0,0,0,2H18a1,1,0,0,0,0-2Z"/><path d="M19.94,5.09A5.69,5.69,0,0,0,14,0,5.38,5.38,0,0,0,9.74,2.56,3.32,3.32,0,0,0,8,2,4,4,0,0,0,4.11,5.09,5,5,0,0,0,5,15a1,1,0,0,0,0-2A3,3,0,0,1,5,7,1,1,0,0,0,6,6,2,2,0,0,1,8,4a2.83,2.83,0,0,1,1.35.76l.07,0,.06.05.11,0L9.78,5,10,5h.18c.07,0,.13,1,.19.95l.17-.08c.06,0,.11-1.08.16-1.12a.93.93,0,0,0,.09-.07s0,0,0-.07l.05-.06C11.57,3.35,12.57,2,14,2a3.75,3.75,0,0,1,4,4,1,1,0,0,0,1,1,3,3,0,0,1,0,6,1,1,0,0,0,0,2,5,5,0,0,0,.94-9.91Z"/><path d="M12,20a1,1,0,0,0,1-1V10.41l2.29,2.29a1,1,0,0,0,1.41-1.41l-4-4a1,1,0,0,0-1.42,0l-4,4a1,1,0,1,0,1.41,1.41L11,10.41V19A1,1,0,0,0,12,20Z"/></svg>