<svg xmlns="http://www.w3.org/2000/svg" viewBox="0 0 24 24"><defs/><path d="M8.77,8a6.41,6.41,0,0,0-1.13.08v4h.73V10.55a2.14,2.14,0,0,0,.36,0A1.78,1.78,0,0,0,10,10.14a1.23,1.23,0,0,0,.35-.92,1.14,1.14,0,0,0-.4-.89A1.83,1.83,0,0,0,8.77,8Zm0,2a1.49,1.49,0,0,1-.36,0V8.6a2,2,0,0,1,.43,0c.51,0,.82.24.82.69S9.29,10,8.74,10Z"/><path d="M12.83,10.16v0a1.08,1.08,0,0,0,.73-1,1,1,0,0,0-.35-.81A1.88,1.88,0,0,0,12,8a7,7,0,0,0-1.12.08v4h.73V10.41H12c.42,0,.61.18.73.71a5.8,5.8,0,0,0,.27,1h.76a8.07,8.07,0,0,1-.32-1.13A1,1,0,0,0,12.83,10.16ZM12,9.87h-.44V8.59a2.12,2.12,0,0,1,.46,0c.48,0,.79.2.79.65S12.52,9.87,12,9.87Z"/><polygon points="14.85 10.28 16.38 10.28 16.38 9.68 14.85 9.68 14.85 8.63 16.47 8.63 16.47 8.03 14.12 8.03 14.12 12.07 16.56 12.07 16.56 11.46 14.85 11.46 14.85 10.28"/><path d="M21,3H3A3,3,0,0,0,0,6V18a3,3,0,0,0,3,3H21a3,3,0,0,0,3-3V6A3,3,0,0,0,21,3Zm1,15a1,1,0,0,1-1,1H3a1,1,0,0,1-1-1V17H22Zm0-3H2V6A1,1,0,0,1,3,5H21a1,1,0,0,1,1,1Z"/></svg>