<?xml version="1.0" encoding="utf-8"?><svg xmlns="http://www.w3.org/2000/svg" xmlns:xlink="http://www.w3.org/1999/xlink" style="enable-background:new 0 0 24 24" x="0px" y="0px" version="1.1" viewBox="0 0 24 24" xml:space="preserve"><g><path d="M20,8c0-4.4-3.6-8-8-8S4,3.6,4,8c0,3,1.7,5.6,4.1,7H8v9l3.3-3.3c0.4-0.4,1-0.4,1.4,0L16,24v-9h-0.1 C18.4,13.6,20,11,20,8z M14,19.2c-0.5-0.5-1.3-0.8-2-0.8s-1.5,0.3-2,0.8V17h4V19.2z M12,14c-3.3,0-6-2.7-6-6s2.7-6,6-6s6,2.7,6,6 S15.3,14,12,14z"/></g><path d="M12,5c-1.7,0-3,1.3-3,3s1.3,3,3,3s3-1.3,3-3S13.7,5,12,5z M12,9c-0.6,0-1-0.4-1-1s0.4-1,1-1s1,0.4,1,1	S12.6,9,12,9z"/></svg>