<svg xmlns="http://www.w3.org/2000/svg" viewBox="0 0 24 24"><defs/><path d="M4.5,0h-3A1.5,1.5,0,0,0,0,1.5v3A1.5,1.5,0,0,0,1.5,6h3A1.5,1.5,0,0,0,6,4.5v-3A1.5,1.5,0,0,0,4.5,0ZM4,4H2V2H4Z"/><path d="M4.5,9h-3A1.5,1.5,0,0,0,0,10.5v3A1.5,1.5,0,0,0,1.5,15h3A1.5,1.5,0,0,0,6,13.5v-3A1.5,1.5,0,0,0,4.5,9ZM4,13H2V11H4Z"/><path d="M4.5,18h-3A1.5,1.5,0,0,0,0,19.5v3A1.5,1.5,0,0,0,1.5,24h3A1.5,1.5,0,0,0,6,22.5v-3A1.5,1.5,0,0,0,4.5,18ZM4,22H2V20H4Z"/><path d="M10,4H23a1,1,0,0,0,0-2H10a1,1,0,0,0,0,2Z"/><path d="M23,11H10a1,1,0,0,0,0,2H23a1,1,0,0,0,0-2Z"/><path d="M23,20H10a1,1,0,0,0,0,2H23a1,1,0,0,0,0-2Z"/></svg>