<svg xmlns="http://www.w3.org/2000/svg" viewBox="0 0 24 24"><defs/><path d="M21.45,4.42,18,.77A1,1,0,0,0,17,0a1,1,0,0,0-.22,0,2,2,0,0,0-.41,0H4A2,2,0,0,0,2,2V21.9a2,2,0,0,0,2,2H20a1.92,1.92,0,0,0,1.9-2V5.79A1.89,1.89,0,0,0,21.45,4.42ZM18,3.71,19.24,5H18ZM20,22H3.9V1.9H16v4a1,1,0,0,0,1,1h3Z"/><path d="M8.53,12.77c0,.7-.26.89-.68.89a1.62,1.62,0,0,1-.46-.07l-.09.59a2,2,0,0,0,.62.1c.8,0,1.34-.37,1.34-1.49V10.18H8.53Z"/><path d="M11.05,10.15a6.4,6.4,0,0,0-1.13.08v4h.73V12.7a2.13,2.13,0,0,0,.36,0,1.78,1.78,0,0,0,1.28-.43,1.22,1.22,0,0,0,.35-.92,1.14,1.14,0,0,0-.4-.89A1.83,1.83,0,0,0,11.05,10.15Zm0,2a1.47,1.47,0,0,1-.36,0V10.75a2.07,2.07,0,0,1,.43,0c.51,0,.82.24.82.69S11.57,12.14,11,12.14Z"/><path d="M14.94,12.57h.71v1a1.42,1.42,0,0,1-.56.08,1.34,1.34,0,0,1-1.4-1.46,1.35,1.35,0,0,1,1.47-1.45,2.19,2.19,0,0,1,.92.17l.16-.59a2.69,2.69,0,0,0-1.07-.19,2.05,2.05,0,0,0-2.25,2.1,2,2,0,0,0,.56,1.49,2.18,2.18,0,0,0,1.58.54,4,4,0,0,0,1.3-.23V12H14.94Z"/></svg>