<svg xmlns="http://www.w3.org/2000/svg" viewBox="0 0 24 24"><defs/><path d="M23,19.1H11.57a3.72,3.72,0,0,0-7.1,0H1A.92.92,0,0,0,0,20a1,1,0,0,0,1,1H4.38a3.74,3.74,0,0,0,7.29,0H23a1,1,0,0,0,1-1A.92.92,0,0,0,23,19.1ZM8,21.9a1.75,1.75,0,0,1-1.75-1.75A1.67,1.67,0,0,1,8,18.5a1.67,1.67,0,0,1,1.75,1.65A1.75,1.75,0,0,1,8,21.9Z"/><path d="M23,11.1H19.59l-.12,0a3.74,3.74,0,0,0-7.26,0H1A.92.92,0,0,0,0,12a1,1,0,0,0,1,1H12.27a3.73,3.73,0,0,0,7.15,0,1,1,0,0,0,.17,0H23a1,1,0,0,0,1-1A.92.92,0,0,0,23,11.1Zm-7.16,2.55A1.67,1.67,0,0,1,14.09,12a1.75,1.75,0,1,1,3.5,0A1.67,1.67,0,0,1,15.84,13.65Z"/><path d="M1,5H4.53a3.73,3.73,0,0,0,7,0H23a1,1,0,0,0,1-1,.92.92,0,0,0-1-.9H11.71a3.74,3.74,0,0,0-7.37,0H1A.92.92,0,0,0,0,4,1,1,0,0,0,1,5ZM8,2A1.75,1.75,0,0,1,9.77,3.75,1.67,1.67,0,0,1,8,5.4,1.67,1.67,0,0,1,6.27,3.75,1.75,1.75,0,0,1,8,2Z"/></svg>