<svg xmlns="http://www.w3.org/2000/svg" viewBox="0 0 24 24"><defs/><path d="M12,6a6,6,0,1,0,6,6A6,6,0,0,0,12,6ZM12,16a4,4,0,1,1,4-4A4,4,0,0,1,12,16Z"/><path d="M23.76,14a1.48,1.48,0,0,0-.95-.77,1.24,1.24,0,0,1,0-2.39,1.47,1.47,0,0,0,.95-.77,1.5,1.5,0,0,0,0-1.24L22.6,5.87A1.5,1.5,0,0,0,21.69,5a1.48,1.48,0,0,0-1.21.13A1.2,1.2,0,0,1,19,5a1.25,1.25,0,0,1-.19-1.5,1.48,1.48,0,0,0,.12-1.21,1.5,1.5,0,0,0-.84-.91L15.19.12A1.49,1.49,0,0,0,14,.16a1.47,1.47,0,0,0-.77,1,1.22,1.22,0,0,1-2.36,0,1.49,1.49,0,0,0-2-1L5.91,1.33a1.5,1.5,0,0,0-.84.91,1.48,1.48,0,0,0,.12,1.21A1.25,1.25,0,0,1,5,5a1.21,1.21,0,0,1-1.47.19A1.46,1.46,0,0,0,2.31,5a1.5,1.5,0,0,0-.91.85L.2,8.79h0A1.51,1.51,0,0,0,.24,10a1.47,1.47,0,0,0,.94.77,1.24,1.24,0,0,1,0,2.39A1.48,1.48,0,0,0,.24,14a1.5,1.5,0,0,0,0,1.24l1.2,2.92a1.5,1.5,0,0,0,.91.85,1.46,1.46,0,0,0,1.22-.13A1.21,1.21,0,0,1,5,19a1.25,1.25,0,0,1,.19,1.5,1.48,1.48,0,0,0-.12,1.21,1.5,1.5,0,0,0,.84.91l2.9,1.21a1.5,1.5,0,0,0,1.24,0,1.48,1.48,0,0,0,.77-1,1.22,1.22,0,0,1,2.36,0,1.47,1.47,0,0,0,.77,1,1.49,1.49,0,0,0,1.24,0l2.9-1.21a1.5,1.5,0,0,0,.84-.91,1.48,1.48,0,0,0-.12-1.21A1.25,1.25,0,0,1,19,19a1.21,1.21,0,0,1,1.47-.19,1.48,1.48,0,0,0,1.22.13,1.5,1.5,0,0,0,.91-.85l1.2-2.92A1.5,1.5,0,0,0,23.76,14Zm-2,1L21,16.88a3.21,3.21,0,0,0-3.37.76A3.25,3.25,0,0,0,16.84,21l-1.92.8a3.21,3.21,0,0,0-5.83,0L7.16,21a3.25,3.25,0,0,0-.75-3.39A3.21,3.21,0,0,0,3,16.88l-.8-1.95a3.24,3.24,0,0,0,0-5.86L3,7.12a3.21,3.21,0,0,0,3.37-.76A3.25,3.25,0,0,0,7.16,3l1.92-.8a3.21,3.21,0,0,0,5.83,0l1.92.8a3.25,3.25,0,0,0,.75,3.39A3.21,3.21,0,0,0,21,7.12l.8,1.95a3.24,3.24,0,0,0,0,5.86Z"/></svg>