<svg xmlns="http://www.w3.org/2000/svg" viewBox="0 0 24 24"><defs/><path d="M23.85,11.48a19.54,19.54,0,0,0-4.59-5.33l4.45-4.45A1,1,0,0,0,22.29.29L17.57,5A11.21,11.21,0,0,0,12,3.5c-4.52,0-8.73,2.83-11.85,8a1,1,0,0,0,0,1,19.54,19.54,0,0,0,4.59,5.33L.29,22.29a1,1,0,1,0,1.41,1.41L6.43,19A11.21,11.21,0,0,0,12,20.5c4.52,0,8.73-2.83,11.85-8A1,1,0,0,0,23.85,11.48ZM2.18,12C4.88,7.8,8.36,5.5,12,5.5a9.1,9.1,0,0,1,4.08,1L14,8.57A4,4,0,0,0,12,8a4,4,0,0,0-4,4,4,4,0,0,0,.57,2L6.18,16.4A16.74,16.74,0,0,1,2.18,12ZM14,12a2,2,0,0,1-2,2,2,2,0,0,1-.51-.07l2.44-2.44A2,2,0,0,1,14,12Zm-4,0a2,2,0,0,1,2-2,2,2,0,0,1,.51.07l-2.44,2.44A2,2,0,0,1,10,12Zm2,6.5a9.1,9.1,0,0,1-4.08-1L10,15.43A4,4,0,0,0,12,16a4,4,0,0,0,4-4,4,4,0,0,0-.57-2L17.82,7.6a16.74,16.74,0,0,1,4,4.4C19.12,16.2,15.64,18.5,12,18.5Z"/></svg>