<svg xmlns="http://www.w3.org/2000/svg" viewBox="0 0 24 24"><defs/><path d="M23,12.44a.82.82,0,0,1,0-.88l.55-.87a2.81,2.81,0,0,0,.3-2.37,2.9,2.9,0,0,0-1.69-1.8l-1-.4a.89.89,0,0,1-.57-.73l-.09-1a2.87,2.87,0,0,0-1.17-2.05,3,3,0,0,0-2.44-.5l-1,.23a1,1,0,0,1-1-.29L14.22,1A3,3,0,0,0,9.78,1l-.7.77a1,1,0,0,1-1,.29l-1-.23a3,3,0,0,0-2.44.5A2.87,2.87,0,0,0,3.46,4.37l-.09,1a.89.89,0,0,1-.57.73l-1,.4A2.91,2.91,0,0,0,.14,8.32a2.81,2.81,0,0,0,.3,2.37l.55.87a.82.82,0,0,1,0,.88l-.55.88a2.81,2.81,0,0,0-.3,2.37,2.9,2.9,0,0,0,1.69,1.8l1,.4a.89.89,0,0,1,.57.73l.09,1a2.87,2.87,0,0,0,1.17,2.05,3,3,0,0,0,2.44.5l1-.23a1,1,0,0,1,1,.29l.7.77a3,3,0,0,0,4.45,0l.7-.77a1,1,0,0,1,1-.29l1,.23a3,3,0,0,0,2.44-.5,2.87,2.87,0,0,0,1.17-2.05l.09-1a.89.89,0,0,1,.57-.73l1-.4a2.91,2.91,0,0,0,1.69-1.8,2.81,2.81,0,0,0-.3-2.37ZM21.32,13.5l.55.88a.81.81,0,0,1,.09.69.91.91,0,0,1-.53.56l-1,.4a2.88,2.88,0,0,0-1.81,2.41l-.09,1a.85.85,0,0,1-.36.62,1,1,0,0,1-.82.17l-1-.23a3,3,0,0,0-2.88.91l-.7.77a1,1,0,0,1-1.48,0l-.7-.77a3,3,0,0,0-2.22-1,3.06,3.06,0,0,0-.66.07l-1,.23a1,1,0,0,1-.82-.17.86.86,0,0,1-.36-.62l-.09-1A2.88,2.88,0,0,0,3.55,16l-1-.4A.9.9,0,0,1,2,15.07a.81.81,0,0,1,.09-.69l.55-.87h0a2.8,2.8,0,0,0,0-3l-.55-.87A.81.81,0,0,1,2,8.93a.91.91,0,0,1,.53-.56l1-.4A2.88,2.88,0,0,0,5.37,5.57l.09-1a.85.85,0,0,1,.36-.62,1,1,0,0,1,.82-.17l1,.23a3,3,0,0,0,2.88-.91l.7-.77a1,1,0,0,1,1.48,0l.7.77A3,3,0,0,0,16.32,4l1-.23a1,1,0,0,1,.82.17.86.86,0,0,1,.36.62l.09,1A2.88,2.88,0,0,0,20.45,8l1,.4a.9.9,0,0,1,.53.56.81.81,0,0,1-.09.69l-.55.88A2.8,2.8,0,0,0,21.32,13.5Z"/><path d="M8.92,11.75A2.87,2.87,0,1,0,6,8.88,2.88,2.88,0,0,0,8.92,11.75ZM8.92,8A.87.87,0,1,1,8,8.88.88.88,0,0,1,8.92,8Z"/><path d="M17.28,6.75a1,1,0,0,0-1.41,0L6.78,15.84a1,1,0,1,0,1.41,1.41l9.09-9.09A1,1,0,0,0,17.28,6.75Z"/><path d="M15.14,12.25A2.87,2.87,0,1,0,18,15.13,2.88,2.88,0,0,0,15.14,12.25Zm0,3.75a.87.87,0,1,1,.89-.87A.88.88,0,0,1,15.14,16Z"/></svg>