<svg xmlns="http://www.w3.org/2000/svg" viewBox="0 0 24 24"><defs/><path d="M9,0H2A2,2,0,0,0,0,2V9a2,2,0,0,0,2,2H9a2,2,0,0,0,2-2V2A2,2,0,0,0,9,0ZM9,9H2V2H9Z"/><path d="M4,8H7A1,1,0,0,0,8,7V4A1,1,0,0,0,7,3H4A1,1,0,0,0,3,4V7A1,1,0,0,0,4,8ZM5,5H6V6H5Z"/><path d="M17,8h3a1,1,0,0,0,1-1V4a1,1,0,0,0-1-1H17a1,1,0,0,0-1,1V7A1,1,0,0,0,17,8Zm1-3h1V6H18Z"/><path d="M4,21H7a1,1,0,0,0,1-1V17a1,1,0,0,0-1-1H4a1,1,0,0,0-1,1v3A1,1,0,0,0,4,21Zm1-3H6v1H5Z"/><path d="M22,0H15a2,2,0,0,0-2,2V9a2,2,0,0,0,2,2h7a2,2,0,0,0,2-2V2A2,2,0,0,0,22,0Zm0,9H15V2h7Z"/><path d="M17,19H14a1,1,0,0,0-1,1v3a1,1,0,0,0,1,1h3a1,1,0,0,0,1-1V20A1,1,0,0,0,17,19Zm-1,3H15V21h1Z"/><path d="M22.32,13l-.24,0H14.91A1.91,1.91,0,0,0,13,14.91v1.17A1.92,1.92,0,0,0,14.92,18H19v3.88a2,2,0,0,0,.18,1.5,1.32,1.32,0,0,0,.91.6h2.16A2,2,0,0,0,24,22V14.73C24,13.78,23.13,13.23,22.32,13ZM22,22H21V17.92A1.92,1.92,0,0,0,19.08,16H15V15h7l.06,0Z"/><path d="M9,13H2a2,2,0,0,0-2,2v7a2,2,0,0,0,2,2H9a2,2,0,0,0,2-2V15A2,2,0,0,0,9,13Zm0,9H2V15H9Z"/></svg>