<svg xmlns="http://www.w3.org/2000/svg" viewBox="0 0 24 24"><defs/><path d="M21.45,4.42,18,.77A1,1,0,0,0,17,0a1,1,0,0,0-.22,0,2,2,0,0,0-.41,0H4A2,2,0,0,0,2,2V21.9a2,2,0,0,0,2,2H20a1.92,1.92,0,0,0,1.9-2V5.79A1.89,1.89,0,0,0,21.45,4.42ZM18,3.71,19.24,5H18ZM20,22H3.9V1.9H16v4a1,1,0,0,0,1,1h3Z"/><path d="M8,10.15a6.4,6.4,0,0,0-1.13.08v4H7.6V12.7a2.12,2.12,0,0,0,.36,0,1.79,1.79,0,0,0,1.28-.43,1.22,1.22,0,0,0,.35-.92,1.14,1.14,0,0,0-.4-.89A1.83,1.83,0,0,0,8,10.15Zm0,2a1.47,1.47,0,0,1-.36,0V10.75a2.06,2.06,0,0,1,.43,0c.51,0,.82.24.82.69S8.52,12.14,8,12.14Z"/><path d="M12.6,11.59c0,.62,0,1.14.07,1.68h0A11.09,11.09,0,0,0,12,11.91l-1-1.73h-.84v4h.68V12.77c0-.67,0-1.2,0-1.72h0a14.1,14.1,0,0,0,.73,1.4l1.05,1.78h.76v-4H12.6Z"/><path d="M16,10.75a2.18,2.18,0,0,1,.92.17l.16-.59A2.69,2.69,0,0,0,16,10.13a2.05,2.05,0,0,0-2.25,2.1,2,2,0,0,0,.56,1.49,2.17,2.17,0,0,0,1.58.54,4,4,0,0,0,1.3-.23V12H15.79v.58h.71v1a1.41,1.41,0,0,1-.56.08,1.34,1.34,0,0,1-1.4-1.46A1.35,1.35,0,0,1,16,10.75Z"/></svg>