<svg xmlns="http://www.w3.org/2000/svg" viewBox="0 0 24 24"><defs/><path d="M21.45,4.42,18,.77A1,1,0,0,0,17,0a1,1,0,0,0-.22,0,2,2,0,0,0-.41,0H4A2,2,0,0,0,2,2V21.9a2,2,0,0,0,2,2H20a1.67,1.67,0,0,0,1.9-1.68V6.12A2.76,2.76,0,0,0,21.45,4.42ZM18,3.71,19.24,5H18ZM20,22H3.9V1.9H16v4a1,1,0,0,0,1,1h3Z"/><path d="M8.37,10.15a6.41,6.41,0,0,0-1.13.08v4H8V12.7a2.12,2.12,0,0,0,.36,0,1.78,1.78,0,0,0,1.28-.43,1.22,1.22,0,0,0,.35-.92,1.14,1.14,0,0,0-.39-.89A1.83,1.83,0,0,0,8.37,10.15Zm0,2a1.46,1.46,0,0,1-.36,0V10.75a2.07,2.07,0,0,1,.43,0c.51,0,.82.24.82.69S8.88,12.14,8.33,12.14Z"/><path d="M11.62,10.15a7.49,7.49,0,0,0-1.18.08v4a8,8,0,0,0,1,.05,2.7,2.7,0,0,0,1.83-.55,2.09,2.09,0,0,0,.63-1.61,1.81,1.81,0,0,0-.63-1.49A2.46,2.46,0,0,0,11.62,10.15Zm0,3.53a2.8,2.8,0,0,1-.41,0V10.76a2.32,2.32,0,0,1,.5,0,1.28,1.28,0,0,1,1.43,1.4A1.38,1.38,0,0,1,11.59,13.67Z"/><polygon points="14.39 14.22 15.13 14.22 15.13 12.5 16.62 12.5 16.62 11.9 15.13 11.9 15.13 10.78 16.73 10.78 16.73 10.18 14.39 10.18 14.39 14.22"/></svg>