<svg xmlns="http://www.w3.org/2000/svg" viewBox="0 0 48 48"><defs/><path d="M14.89,25.07,13.05,30.8h1.08l.49-1.62h1.82L17,30.8h1.12l-1.86-5.73Zm-.09,3.31L15.24,27c.1-.34.19-.74.27-1.07h0c.08.33.18.72.29,1.07l.45,1.41Z"/><path d="M20.94,27.69c-.23.7-.43,1.39-.59,2.07h0c-.15-.7-.34-1.37-.56-2.09L19,25.07H17.86l1.85,5.73h1.2l2-5.73H21.77Z"/><rect width="1.05" height="5.73" x="23.51" y="25.07"/><path d="M47.86,10.9a1.56,1.56,0,0,0,0-.35,1.54,1.54,0,0,0-.73-1.31l0,0a3.05,3.05,0,0,0-.27-.33L39.13,1.05a3.51,3.51,0,0,0-.57-.46A1.54,1.54,0,0,0,37.35,0,1.49,1.49,0,0,0,37,0h-.09l-.32,0H12.55A3.55,3.55,0,0,0,9,3.55V17H3.55A3.55,3.55,0,0,0,0,20.55v14.8A3.55,3.55,0,0,0,3.55,38.9H9v5.45a3.55,3.55,0,0,0,3.55,3.55h31.8a3.55,3.55,0,0,0,3.55-3.55v-33a3,3,0,0,0,0-.42Zm-9-5.68L42.63,9.1H38.9ZM3.35,36a.45.45,0,0,1-.45-.45V20.35a.45.45,0,0,1,.45-.45h32.2a.45.45,0,0,1,.45.45v15.2a.45.45,0,0,1-.45.45ZM45,44.55a.45.45,0,0,1-.45.45H12.35a.45.45,0,0,1-.45-.45V38.9H35.35a3.55,3.55,0,0,0,3.55-3.55V20.55A3.55,3.55,0,0,0,35.35,17H11.9V3.45A.45.45,0,0,1,12.35,3L36,2.9v7.45a1.55,1.55,0,0,0,1.55,1.55L45,12Z"/></svg>