<svg xmlns="http://www.w3.org/2000/svg" viewBox="0 0 48 48"><defs/><path d="M21.5,12.5a1,1,0,0,0,0-2h-4v-2a1,1,0,0,0-2,0v2H14a3.5,3.5,0,0,0,0,7h1.5v3h-4a1,1,0,0,0,0,2h4v2a1,1,0,0,0,2,0v-2H19a3.5,3.5,0,0,0,0-7H17.5v-3Zm-6,3H14a1.5,1.5,0,0,1,0-3h1.5Zm3.5,2a1.5,1.5,0,0,1,0,3H17.5v-3Z"/><path d="M32.93,15.07A16.49,16.49,0,1,0,15.07,32.93,16.49,16.49,0,1,0,32.93,15.07ZM3,16.5A13.5,13.5,0,1,1,16.5,30,13.51,13.51,0,0,1,3,16.5ZM26.5,29.59v1H25A16.54,16.54,0,0,0,26.5,29.59ZM31.5,45A13.52,13.52,0,0,1,18.08,32.92a16.34,16.34,0,0,0,5.58-1.58,1,1,0,0,0-.06.29,1,1,0,0,0,1,1h1.9V34.5a5,5,0,0,0,10,0,1,1,0,0,0-2,0,3,3,0,0,1-6,0V32.64h3a1,1,0,1,0,0-2h-3V29.5a3,3,0,0,1,6,0,1,1,0,0,0,2,0,5,5,0,0,0-5-5,4.91,4.91,0,0,0-.62.06,16.36,16.36,0,0,0,2-6.49A13.5,13.5,0,0,1,31.5,45Z"/></svg>