<svg xmlns="http://www.w3.org/2000/svg" viewBox="0 0 48 48"><defs/><path d="M9,28h5.9a2,2,0,0,0,2-2v-2.9a2,2,0,0,0-2-2H9a2,2,0,0,0-2,2V26A2,2,0,0,0,9,28Zm-.1-5H15v3.1H8.93Z"/><path d="M48,15.95a11,11,0,0,0-21.81-1.9H3.53A3.5,3.5,0,0,0,0,17.55v21.9A3.5,3.5,0,0,0,3.53,43h31.9a3.5,3.5,0,0,0,3.5-3.5V26.75A11.1,11.1,0,0,0,48,15.95ZM3.43,17H26A11,11,0,0,0,36,26.9v5.15H2.93V17.45A.5.5,0,0,1,3.43,17Zm32.1,23.1H3.43a.5.5,0,0,1-.5-.5V34H36v5.6A.5.5,0,0,1,35.53,40.05ZM37,23.95a8,8,0,1,1,8-8A8,8,0,0,1,37,23.95Z"/><path d="M39.75,13.08l-3.33,4.07-1.93-1.93a1,1,0,0,0-1.41,1.41l2.71,2.71a1,1,0,0,0,.71.29h0a1,1,0,0,0,.72-.37l4-4.93a1,1,0,0,0-1.55-1.27Z"/></svg>