<svg xmlns="http://www.w3.org/2000/svg" viewBox="0 0 48 48"><defs/><path d="M38.5,45h-28a1.5,1.5,0,0,0,0,3h28a1.5,1.5,0,0,0,0-3Z"/><path d="M24.48,40.88a1.5,1.5,0,0,0,1.5-1.5V20.24l6.24,6.24a1.5,1.5,0,0,0,2.12-2.12l-8.8-8.8a1.5,1.5,0,0,0-.49-.33h0a1.46,1.46,0,0,0-1.09,0h0a1.5,1.5,0,0,0-.49.33l-8.8,8.8a1.5,1.5,0,1,0,2.12,2.12l6.34-6.24V39.38A1.42,1.42,0,0,0,24.48,40.88Z"/><path d="M39.38,9.09A10.5,10.5,0,0,0,20.91,3.78,7.69,7.69,0,0,0,9.62,9a10.5,10.5,0,0,0,.88,21,1.5,1.5,0,0,0,0-3,7.5,7.5,0,0,1,0-15H11a1.5,1.5,0,0,0,1.5-1.5A4.69,4.69,0,0,1,20.23,7a1.52,1.52,0,0,0,1.23.39,1.5,1.5,0,0,0,1.08-.71A7.5,7.5,0,0,1,36.48,10.5,1.5,1.5,0,0,0,38,12c4,0,7,3.22,7,7.5S42,27,38,27a1.5,1.5,0,0,0,0,3c5.71,0,10-4.51,10-10.5C48,14,44.38,9.77,39.38,9.09Z"/></svg>