<svg xmlns="http://www.w3.org/2000/svg" viewBox="0 0 48 48"><defs/><path d="M14,29H7a1,1,0,0,1,0-2h7a1,1,0,0,1,0,2Z"/><path d="M41,34H7a1,1,0,0,1,0-2H41a1,1,0,0,1,0,2Z"/><path d="M43.5,42H4.5A4.5,4.5,0,0,1,0,37.5v-25A4.5,4.5,0,0,1,4.5,8h39A4.5,4.5,0,0,1,48,12.5v25A4.5,4.5,0,0,1,43.5,42ZM4.5,11A1.5,1.5,0,0,0,3,12.5v25A1.5,1.5,0,0,0,4.5,39h39A1.5,1.5,0,0,0,45,37.5v-25A1.5,1.5,0,0,0,43.5,11Z"/><path d="M40,23H34a2,2,0,0,1-2-2V18a2,2,0,0,1,2-2h6a2,2,0,0,1,2,2v3A2,2,0,0,1,40,23Zm-6-5h0v3h6V18Z"/></svg>