<svg xmlns="http://www.w3.org/2000/svg" viewBox="0 0 48 48"><defs/><path d="M47.56,21.42a1.5,1.5,0,0,0-2.12,0L42,24.86V24A18,18,0,0,0,31,7.39a18.14,18.14,0,0,0-14,0,18,18,0,0,0-5.72,3.86,1.5,1.5,0,0,0,2.12,2.12,15,15,0,0,1,4.77-3.21,15.11,15.11,0,0,1,11.68,0A15,15,0,0,1,39,24v.88l-3.44-3.44a1.5,1.5,0,0,0-2.12,2.12l6,6a1.5,1.5,0,0,0,2.12,0l6-6A1.5,1.5,0,0,0,47.56,21.42Z"/><path d="M34.61,34.59a15,15,0,0,1-4.77,3.21,15.11,15.11,0,0,1-11.68,0A15,15,0,0,1,9,24V22.1l3.44,3.44a1.5,1.5,0,0,0,2.12-2.12l-6-6a1.5,1.5,0,0,0-2.12,0l-6,6a1.5,1.5,0,0,0,2.12,2.12L6,22.1V24A18,18,0,0,0,36.73,36.71a1.5,1.5,0,0,0-2.12-2.12Z"/></svg>