<?xml version="1.0" encoding="utf-8"?><svg xmlns="http://www.w3.org/2000/svg" xmlns:xlink="http://www.w3.org/1999/xlink" style="enable-background:new 0 0 48 48" x="0px" y="0px" version="1.1" viewBox="0 0 48 48" xml:space="preserve"><g><rect width="11.9" height="2" x="12.9" y="26.9"/><rect width="6.9" height="2" x="27.9" y="26.9"/><rect width="11.9" height="2" x="12.9" y="34.9"/><path d="M14,18c-0.6,0-1,0.4-1,1s0.4,1,1,1h3v1c0,0.5,0.3,1,0.8,1c0,0,0,0,0.1,0c0.6,0,1-0.4,1-1v-1H20 c1.7,0,3-1.3,3-3s-1.3-3-3-3h-1.1v-2H22c0.6,0,1-0.4,1-1s-0.4-1-1-1h-3.1V9c0-0.6-0.4-1-1-1C17.4,8,17,8.4,17,8.9c0,0,0,0,0,0.1v1 h-1c-1.7,0-3,1.3-3,3s1.3,3,3,3h1v2H14z M18.9,16H20c0.6,0,1,0.4,1,1s-0.4,1-1,1h-1.1V16z M16,14c-0.6,0-1-0.4-1-1s0.4-1,1-1h1v2 H16z"/><path d="M43.4,44.4v-33c0-0.1,0-0.3,0-0.4l0,0c0-0.1,0-0.2,0-0.4c0-0.5-0.3-1-0.7-1.3c-0.1-0.1-0.2-0.2-0.3-0.3 l-7.7-7.9c-0.2-0.2-0.4-0.3-0.6-0.5C33.8,0.3,33.4,0,32.9,0c-0.1,0-0.2,0-0.3,0h-0.1h-0.3h-24c-2,0-3.6,1.6-3.6,3.5c0,0,0,0,0,0.1 V17v22v5.4c0,2,1.5,3.6,3.5,3.6c0,0,0,0,0.1,0h31.8C41.9,48,43.4,46.4,43.4,44.4C43.4,44.4,43.4,44.4,43.4,44.4z M38.1,9.2h-3.7 l0-3.9L38.1,9.2z M40.5,44.6c0,0.2-0.2,0.5-0.5,0.5H7.9c-0.2,0-0.5-0.2-0.5-0.5V39V17V3.5C7.4,3.3,7.6,3,7.9,3h23.7v7.4 c0,0.9,0.6,1.6,1.5,1.6c0,0,0,0,0.1,0h7.5V44.6z"/></g></svg>