<svg xmlns="http://www.w3.org/2000/svg" viewBox="0 0 48 48"><defs/><path d="M19,29a1,1,0,0,0,0,2h4v2.21a1,1,0,0,0,2,0V31h1a4,4,0,0,0,0-8H25V19h4a1,1,0,0,0,0-2H25V14.66a1,1,0,1,0-2,0V17H22a4,4,0,0,0,0,8h1v4Zm3-6a2,2,0,0,1,0-4h1v4Zm3,2h1a2,2,0,0,1,0,4H25Z"/><path d="M47.56,21.44a1.5,1.5,0,0,0-2.12,0L42,24.88V24A18,18,0,0,0,31,7.42a18.14,18.14,0,0,0-14,0,18,18,0,0,0-5.72,3.86,1.5,1.5,0,0,0,2.12,2.12,15,15,0,0,1,4.77-3.21,15.11,15.11,0,0,1,11.68,0A15,15,0,0,1,39,24v.88l-3.44-3.44a1.5,1.5,0,0,0-2.12,2.12l6,6a1.5,1.5,0,0,0,2.12,0l6-6A1.5,1.5,0,0,0,47.56,21.44Z"/><path d="M34.61,34.61a15,15,0,0,1-4.77,3.21,15.11,15.11,0,0,1-11.68,0A15,15,0,0,1,9,24V22.12l3.44,3.44a1.5,1.5,0,0,0,2.12-2.12l-6-6a1.5,1.5,0,0,0-2.12,0l-6,6a1.5,1.5,0,0,0,2.12,2.12L6,22.12V24A18,18,0,0,0,36.73,36.73a1.5,1.5,0,0,0-2.12-2.12Z"/></svg>