<svg xmlns="http://www.w3.org/2000/svg" viewBox="0 0 48 48"><defs/><path d="M44.5,11H38.84V5.5A3.5,3.5,0,0,0,35.34,2H6A6,6,0,0,0,0,8V42.5A3.5,3.5,0,0,0,3.5,46h41A3.5,3.5,0,0,0,48,42.5v-28A3.5,3.5,0,0,0,44.5,11ZM5.8,5H35.54a.5.5,0,0,1,.5.5V11H5.8a3,3,0,0,1,0-6ZM45,42.5a.5.5,0,0,1-.5.5H3.3a.5.5,0,0,1-.5-.5V13.19a6,6,0,0,0,3,.81H44.5a.5.5,0,0,1,.5.5Z"/><rect width="3.7" height="2" x="22.1" y="38"/><rect width="3.7" height="2" x="29.1" y="38"/><rect width="3.7" height="2" x="36.1" y="38"/><rect width="3.7" height="2" x="15.1" y="38"/><rect width="3.7" height="2" x="8.1" y="38"/><rect width="3.8" height="2" x="22" y="17"/><rect width="3.8" height="2" x="29" y="17"/><rect width="3.8" height="2" x="36" y="17"/><rect width="3.8" height="2" x="15" y="17"/><rect width="3.8" height="2" x="8" y="17"/><path d="M29.28,27.93c.39-.38.27-.76-.27-.84l-2.17-.31a2.14,2.14,0,0,1-1.43-1l-1-2c-.12-.25-.28-.37-.44-.37s-.32.12-.44.37l-1,2a2.14,2.14,0,0,1-1.43,1L19,27.09c-.54.08-.67.46-.27.84l1.57,1.53a2.14,2.14,0,0,1,.55,1.68l-.37,2.16c-.07.39.08.62.36.62a.79.79,0,0,0,.36-.1l1.94-1a2.14,2.14,0,0,1,1.77,0l1.94,1a.79.79,0,0,0,.36.1c.27,0,.42-.23.36-.62l-.37-2.16a2.14,2.14,0,0,1,.55-1.68Zm-4.13,2.84a4.3,4.3,0,0,0-2.3,0,4.28,4.28,0,0,0-.71-2.19A4.28,4.28,0,0,0,24,27.22a4.28,4.28,0,0,0,1.86,1.35A4.28,4.28,0,0,0,25.15,30.77Z"/></svg>