<svg xmlns="http://www.w3.org/2000/svg" viewBox="0 0 48 48"><defs/><path d="M8,14.69V6A1.5,1.5,0,0,0,5,6v8.71A5.49,5.49,0,0,0,5,25.27V42a1.5,1.5,0,0,0,3,0V25.27A5.49,5.49,0,0,0,8,14.69ZM6.5,22.48A2.5,2.5,0,1,1,9,20,2.5,2.5,0,0,1,6.5,22.48Z"/><path d="M26,24.69V6a1.5,1.5,0,0,0-3,0V24.69c-2.3.66-4.5,2.77-4.5,5.29s2.2,4.63,4.5,5.29V42a1.5,1.5,0,0,0,3,0V35.27a5.49,5.49,0,0,0,0-10.57Zm-1.5,7.79A2.5,2.5,0,1,1,27,30,2.5,2.5,0,0,1,24.5,32.48Z"/><path d="M47,20a5.51,5.51,0,0,0-4-5.29V6a1.5,1.5,0,0,0-3,0v8.71a5.49,5.49,0,0,0,0,10.57V42a1.5,1.5,0,0,0,3,0V25.27A5.51,5.51,0,0,0,47,20Zm-5.5,2.5A2.5,2.5,0,1,1,44,20,2.5,2.5,0,0,1,41.5,22.48Z"/></svg>