<svg xmlns="http://www.w3.org/2000/svg" viewBox="0 0 48 48"><defs/><path d="M9,27.9h5.9a2,2,0,0,0,2-2V23a2,2,0,0,0-2-2H9a2,2,0,0,0-2,2v2.9A2,2,0,0,0,9,27.9ZM8.95,23H15v3H8.95Z"/><path d="M47.95,16a11,11,0,0,0-21.79-2H3.55A3.5,3.5,0,0,0,0,17.5V39.4a3.5,3.5,0,0,0,3.5,3.5h31.9a3.5,3.5,0,0,0,3.5-3.5V26.79A11.1,11.1,0,0,0,47.95,16ZM3.45,17H26A10.91,10.91,0,0,0,36,27v5H2.95V17.5A.5.5,0,0,1,3.45,17Zm32.1,23H3.45a.5.5,0,0,1-.5-.5V33.9H36v5.6A.5.5,0,0,1,35.55,40Zm1.4-16a8,8,0,1,1,8-8A8,8,0,0,1,36.95,24Z"/><path d="M34.95,13a.92.92,0,0,0-.9,1v3.9a.92.92,0,0,0,.9,1,1,1,0,0,0,1-1V14A1,1,0,0,0,34.95,13Z"/><path d="M38.95,13a.92.92,0,0,0-.9,1v3.9a.92.92,0,0,0,.9,1,1,1,0,0,0,1-1V14A1,1,0,0,0,38.95,13Z"/></svg>