<svg xmlns="http://www.w3.org/2000/svg" viewBox="0 0 48 48"><defs/><path d="M15.83,24.11a3.54,3.54,0,0,0,1.45-.25l-.17-.81a2.86,2.86,0,0,1-1.11.21,1.84,1.84,0,0,1-2-2,1.86,1.86,0,0,1,2-2.06,2.72,2.72,0,0,1,1.1.22l.22-.81A3.21,3.21,0,0,0,16,18.34a2.81,2.81,0,0,0-3,3A2.64,2.64,0,0,0,15.83,24.11Z"/><path d="M20.54,24.12a2.65,2.65,0,0,0,2.68-2.95,2.58,2.58,0,0,0-2.6-2.83A2.68,2.68,0,0,0,18,21.27,2.59,2.59,0,0,0,20.54,24.12Zm.06-5c1,0,1.54,1,1.54,2.05s-.56,2.08-1.54,2.08-1.55-.9-1.55-2S19.58,19.16,20.6,19.16Z"/><path d="M25.44,21.73H26c.58,0,.85.25,1,1A7.87,7.87,0,0,0,27.33,24h1.05a11.08,11.08,0,0,1-.44-1.56,1.42,1.42,0,0,0-.78-1.08v0a1.49,1.49,0,0,0,1-1.4,1.42,1.42,0,0,0-.48-1.12A2.59,2.59,0,0,0,26,18.39a9.69,9.69,0,0,0-1.54.12V24h1Zm0-2.52a2.93,2.93,0,0,1,.63,0c.66,0,1.1.28,1.1.9S26.73,21,26,21h-.61Z"/><path d="M30.48,21.92a2.87,2.87,0,0,0,.5,0,2.47,2.47,0,0,0,1.77-.6,1.7,1.7,0,0,0,.48-1.27,1.58,1.58,0,0,0-.55-1.24A2.53,2.53,0,0,0,31,18.39a8.86,8.86,0,0,0-1.56.12V24h1Zm0-2.7a2.81,2.81,0,0,1,.59,0c.71,0,1.14.33,1.14,1s-.46,1-1.23,1a2.06,2.06,0,0,1-.5,0Z"/><path d="M33.72,24.12a.66.66,0,1,0-.63-.66A.62.62,0,0,0,33.72,24.12Z"/><path d="M43.5,8H4.5A4.5,4.5,0,0,0,0,12.5v25A4.5,4.5,0,0,0,4.5,42h39A4.5,4.5,0,0,0,48,37.5v-25A4.5,4.5,0,0,0,43.5,8Zm-39,3h39A1.5,1.5,0,0,1,45,12.5V31H3V12.5A1.5,1.5,0,0,1,4.5,11Zm39,28H4.5A1.5,1.5,0,0,1,3,37.5V33H45v4.5A1.5,1.5,0,0,1,43.5,39Z"/></svg>