<svg xmlns="http://www.w3.org/2000/svg" viewBox="0 0 48 48"><defs/><path d="M14.92,25.07l-.79,2.29c-.22.67-.42,1.38-.57,2h0c-.14-.64-.32-1.32-.53-2l-.75-2.3H10.89L10.5,30.8h1l.13-2.3c0-.78.08-1.69.1-2.44h0c.15.71.36,1.5.58,2.23l.76,2.45h.81l.83-2.48c.26-.72.49-1.5.68-2.19h0c0,.77,0,1.67.07,2.41l.11,2.34h1l-.33-5.73Z"/><path d="M20.1,25a2.74,2.74,0,0,0-2.72,3A2.65,2.65,0,0,0,20,30.89a2.71,2.71,0,0,0,2.75-3A2.65,2.65,0,0,0,20.1,25Zm0,5.07c-1,0-1.59-.93-1.59-2.09s.55-2.14,1.59-2.14,1.58,1,1.58,2.1S21.09,30.05,20.07,30.05Z"/><path d="M26.18,27.69c-.23.7-.43,1.39-.59,2.07h0c-.15-.7-.34-1.37-.56-2.09l-.78-2.6H23.09l1.85,5.73h1.2l2-5.73H27Z"/><path d="M47.86,11a1.56,1.56,0,0,0,0-.35,1.54,1.54,0,0,0-.73-1.31l0,0a3.05,3.05,0,0,0-.27-.33L39.13,1.1a3.51,3.51,0,0,0-.57-.46A1.54,1.54,0,0,0,37.35,0a1.49,1.49,0,0,0-.34,0h-.09l-.32,0H12.55A3.55,3.55,0,0,0,9,3.6V17H3.55A3.55,3.55,0,0,0,0,20.6V35.4A3.55,3.55,0,0,0,3.55,39H9V44.4A3.55,3.55,0,0,0,12.55,48h31.8A3.55,3.55,0,0,0,47.9,44.4v-33a3,3,0,0,0,0-.42Zm-9-5.68,3.73,3.87H38.9ZM3.35,36a.45.45,0,0,1-.45-.45V20.4A.45.45,0,0,1,3.35,20h32.2a.45.45,0,0,1,.45.45V35.6a.45.45,0,0,1-.45.45ZM45,44.6a.45.45,0,0,1-.45.45H12.35a.45.45,0,0,1-.45-.45V39H35.35A3.55,3.55,0,0,0,38.9,35.4V20.6A3.55,3.55,0,0,0,35.35,17H11.9V3.5c0-.25.2-.55.45-.55H36V10.4A1.55,1.55,0,0,0,37.55,12H45Z"/></svg>