<svg xmlns="http://www.w3.org/2000/svg" viewBox="0 0 48 48"><defs/><path d="M17,25a1,1,0,1,0,0,2h1a6,6,0,0,0,12,0V26a1,1,0,0,0-2,0v1a4,4,0,0,1-8,0h1a1,1,0,1,0,0-2H20V23h1a1,1,0,1,0,0-2H20a4,4,0,0,1,8,0v1a1,1,0,0,0,2,0V21a6,6,0,0,0-12,0H17a1,1,0,1,0,0,2h1v2Z"/><path d="M47.56,21.44a1.5,1.5,0,0,0-2.12,0L42,24.88V24A18,18,0,0,0,31,7.42a18.14,18.14,0,0,0-14,0,17.92,17.92,0,0,0-5.72,3.86,1.5,1.5,0,0,0,2.12,2.12,14.94,14.94,0,0,1,4.77-3.21,15.11,15.11,0,0,1,11.68,0A15,15,0,0,1,39,24v.88l-3.44-3.44a1.5,1.5,0,0,0-2.12,2.12l6,6a1.5,1.5,0,0,0,2.12,0l6-6A1.5,1.5,0,0,0,47.56,21.44Z"/><path d="M34.61,34.61a14.93,14.93,0,0,1-4.77,3.21,15.11,15.11,0,0,1-11.68,0A15,15,0,0,1,9,24V22.12l3.44,3.44a1.5,1.5,0,1,0,2.12-2.12l-6-6a1.5,1.5,0,0,0-2.12,0l-6,6a1.5,1.5,0,0,0,2.12,2.12L6,22.12V24A18,18,0,0,0,36.73,36.73a1.5,1.5,0,0,0-2.12-2.12Z"/></svg>