<svg xmlns="http://www.w3.org/2000/svg" viewBox="0 0 48 48"><defs/><path d="M13.82,25a9.14,9.14,0,0,0-1.6.12V30.8h1V28.64a2.86,2.86,0,0,0,.51,0,2.53,2.53,0,0,0,1.81-.61,1.74,1.74,0,0,0,.49-1.3,1.62,1.62,0,0,0-.56-1.27A2.59,2.59,0,0,0,13.82,25Zm-.05,2.83a2.09,2.09,0,0,1-.51,0V25.88a2.9,2.9,0,0,1,.6-.05c.72,0,1.16.34,1.16,1S14.55,27.86,13.77,27.86Z"/><path d="M18.64,25a10.59,10.59,0,0,0-1.67.12v5.64a11.52,11.52,0,0,0,1.41.08A3.82,3.82,0,0,0,21,30.08a3,3,0,0,0,.89-2.28A2.56,2.56,0,0,0,21,25.69,3.49,3.49,0,0,0,18.64,25Zm0,5A3.91,3.91,0,0,1,18,30V25.9a3.33,3.33,0,0,1,.71-.06,1.82,1.82,0,0,1,2,2A2,2,0,0,1,18.59,30Z"/><polygon points="22.77 30.8 23.82 30.8 23.82 28.37 25.93 28.37 25.93 27.51 23.82 27.51 23.82 25.93 26.08 25.93 26.08 25.07 22.77 25.07 22.77 30.8"/><path d="M47.86,11a1.56,1.56,0,0,0,0-.35,1.54,1.54,0,0,0-.73-1.31l0,0a3.05,3.05,0,0,0-.27-.33L39.13,1.1a3.51,3.51,0,0,0-.57-.46A1.54,1.54,0,0,0,37.35,0a1.49,1.49,0,0,0-.34,0h-.09l-.32,0H12.55A3.55,3.55,0,0,0,9,3.6V17H3.55A3.55,3.55,0,0,0,0,20.6V35.4A3.55,3.55,0,0,0,3.55,39H9V44.4A3.55,3.55,0,0,0,12.55,48h31.8A3.55,3.55,0,0,0,47.9,44.4v-33a3,3,0,0,0,0-.42Zm-9-5.68,3.73,3.87H38.9ZM3.35,36a.45.45,0,0,1-.45-.45V20.4A.45.45,0,0,1,3.35,20h32.2a.45.45,0,0,1,.45.45V35.6a.45.45,0,0,1-.45.45ZM45,44.6a.45.45,0,0,1-.45.45H12.35a.45.45,0,0,1-.45-.45V39H35.35A3.55,3.55,0,0,0,38.9,35.4V20.6A3.55,3.55,0,0,0,35.35,17H11.9V3.5c0-.25.2-.55.45-.55L36,2.85V10.4A1.55,1.55,0,0,0,37.55,12H45Z"/></svg>