<svg xmlns="http://www.w3.org/2000/svg" viewBox="0 0 48 48"><defs/><path d="M19.06,10.54,23,6.6V20a1.5,1.5,0,1,0,3,0V6.6l3.94,3.94a1.5,1.5,0,1,0,2.12-2.12l-6-6A1.5,1.5,0,0,0,25,2H24a1.5,1.5,0,0,0-1.06.44l-6,6a1.5,1.5,0,0,0,2.12,2.12Z"/><path d="M29.94,38.46,26,42.4V29a1.5,1.5,0,1,0-3,0V41.9l-3.44-3.44a1.5,1.5,0,0,0-2.12,2.12l6,6A1.5,1.5,0,0,0,24.5,47H25a1.5,1.5,0,0,0,1.06-.44l6-6a1.5,1.5,0,1,0-2.12-2.12Z"/><path d="M46.56,22.46l-6-6a1.5,1.5,0,0,0-2.12,2.12L42.9,23H29a1.5,1.5,0,0,0-1.5,1.5,1.42,1.42,0,0,0,1.5,1.4H42.38l-3.94,4a1.5,1.5,0,1,0,2.12,2.12l6-6A1.5,1.5,0,0,0,47,25V23.52A1.5,1.5,0,0,0,46.56,22.46Z"/><path d="M6.62,25.94H20a1.5,1.5,0,0,0,1.5-1.5A1.42,1.42,0,0,0,20,23H6.1l4.46-4.46a1.5,1.5,0,0,0-2.12-2.12l-6,6A1.5,1.5,0,0,0,2,23.52V25a1.5,1.5,0,0,0,.44,1.06l6,6A1.5,1.5,0,0,0,10.56,30Z"/></svg>