<svg xmlns="http://www.w3.org/2000/svg" viewBox="0 0 48 48"><defs/><path d="M16.89,22.32a2.9,2.9,0,0,0,.87-2.22A2.5,2.5,0,0,0,16.89,18a3.41,3.41,0,0,0-2.28-.65A10.31,10.31,0,0,0,13,17.5V23a11.15,11.15,0,0,0,1.38.07A3.74,3.74,0,0,0,16.89,22.32ZM14,18.24a3.27,3.27,0,0,1,.7-.06,1.77,1.77,0,0,1,2,1.94,1.92,1.92,0,0,1-2.12,2.14,3.8,3.8,0,0,1-.56,0Z"/><polygon points="22.35 22.19 19.99 22.19 19.99 20.54 22.1 20.54 22.1 19.71 19.99 19.71 19.99 18.27 22.23 18.27 22.23 17.43 18.97 17.43 18.97 23.02 22.35 23.02 22.35 22.19"/><path d="M26.9,22.56a1.45,1.45,0,0,0,.54-1.15A1.41,1.41,0,0,0,26.31,20v0a1.3,1.3,0,0,0,.93-1.21,1.18,1.18,0,0,0-.58-1,2.65,2.65,0,0,0-1.6-.36,8.53,8.53,0,0,0-1.49.12V23a9.89,9.89,0,0,0,1.25.07A3.11,3.11,0,0,0,26.9,22.56Zm-2.32-4.37a2.78,2.78,0,0,1,.58,0c.65,0,1,.24,1,.76s-.4.81-1.1.81h-.52Zm0,2.27h.51c.71,0,1.27.27,1.27.91s-.58.94-1.24.94a4.51,4.51,0,0,1-.54,0Z"/><rect width="1.02" height="5.59" x="28.67" y="17.43"/><polygon points="32.26 23.02 33.28 23.02 33.28 18.29 34.89 18.29 34.89 17.43 30.67 17.43 30.67 18.29 32.26 18.29 32.26 23.02"/><path d="M43.5,7H4.5A4.5,4.5,0,0,0,0,11.5v25A4.5,4.5,0,0,0,4.5,41h39A4.5,4.5,0,0,0,48,36.5v-25A4.5,4.5,0,0,0,43.5,7Zm-39,3h39A1.5,1.5,0,0,1,45,11.5V30H3V11.5A1.5,1.5,0,0,1,4.5,10Zm39,28H4.5A1.5,1.5,0,0,1,3,36.5V32H45v4.5A1.5,1.5,0,0,1,43.5,38Z"/></svg>