<svg xmlns="http://www.w3.org/2000/svg" viewBox="0 0 48 48"><defs/><path d="M36,23H25V13a1,1,0,0,0-2,0V24a1,1,0,0,0,1,1H36a1,1,0,0,0,0-2Z"/><path d="M24,0A24,24,0,1,0,48,24,24,24,0,0,0,24,0ZM39.52,38.1l-2.79-2.79a1,1,0,0,0-1.41,1.41l2.79,2.79A20.89,20.89,0,0,1,25,44.95V41a1,1,0,0,0-2,0v3.95A20.89,20.89,0,0,1,9.9,39.52l2.79-2.79a1,1,0,0,0-1.41-1.41L8.48,38.1A20.89,20.89,0,0,1,3.05,25H7a1,1,0,0,0,0-2H3.05A20.89,20.89,0,0,1,8.48,9.9l2.79,2.79a1,1,0,0,0,1.41-1.41L9.9,8.48A20.89,20.89,0,0,1,23,3.05V7a1,1,0,0,0,2,0V3.05A20.89,20.89,0,0,1,38.1,8.48l-2.79,2.79a1,1,0,1,0,1.41,1.41L39.52,9.9A20.89,20.89,0,0,1,44.95,23H41a1,1,0,0,0-1,1,.92.92,0,0,0,1,.9h3.95A21.15,21.15,0,0,1,39.52,38.1Z"/></svg>