<svg xmlns="http://www.w3.org/2000/svg" viewBox="0 0 48 48"><defs/><path d="M39.52,6A1.5,1.5,0,0,0,38,7.5v37a.46.46,0,0,1-.46.46H32.92V7A.92.92,0,0,0,32,6a1,1,0,0,0-1,1V45H10.38a.46.46,0,0,1-.46-.46V7.5A1.42,1.42,0,0,0,8.52,6,1.5,1.5,0,0,0,7,7.5v37A3.46,3.46,0,0,0,10.48,48H37.56a3.38,3.38,0,0,0,3.36-3.46V7.5A1.42,1.42,0,0,0,39.52,6Z"/><path d="M46.52,0h-45a1.5,1.5,0,1,0,0,3h45a1.5,1.5,0,0,0,0-3Z"/><path d="M19,41.95a2,2,0,0,0,2-2V34a2,2,0,0,0-2-2H16a2,2,0,0,0-2,2V40a2,2,0,0,0,2,2Zm-3-8h3.12l0,6.1H16Z"/></svg>