<svg xmlns="http://www.w3.org/2000/svg" viewBox="0 0 48 48"><defs/><path d="M41.5,0H6.5A6.51,6.51,0,0,0,0,6.5v27A6.51,6.51,0,0,0,6.5,40H9v6.5a1.5,1.5,0,0,0,2.5,1.12L20.07,40H41.5A6.51,6.51,0,0,0,48,33.5V6.5A6.51,6.51,0,0,0,41.5,0ZM45,33.5A3.5,3.5,0,0,1,41.5,37h-22a1.5,1.5,0,0,0-1,.38L12,43.16V38.5A1.5,1.5,0,0,0,10.5,37h-4A3.5,3.5,0,0,1,3,33.5V6.5A3.5,3.5,0,0,1,6.5,3h35A3.5,3.5,0,0,1,45,6.5Z"/><circle cx="12.97" cy="20.01" r="2"/><circle cx="23.94" cy="20.01" r="2"/><circle cx="34.96" cy="20.01" r="2"/></svg>