<?xml version="1.0" encoding="utf-8"?><svg xmlns="http://www.w3.org/2000/svg" xmlns:xlink="http://www.w3.org/1999/xlink" style="enable-background:new 0 0 48 48" x="0px" y="0px" version="1.1" viewBox="0 0 48 48" xml:space="preserve"><g><path d="M43.5,9.5H32v-4c0-1.7-1.3-3-3-3H19c-1.6,0-3,1.3-3,3v4H4.5C2,9.5,0,11.5,0,14v27c0,2.5,2,4.5,4.5,4.5h39 c2.5,0,4.5-2,4.5-4.5V14C48,11.5,46,9.5,43.5,9.5z M38,12.5v30h-2v-30H38z M19,5.5h10v4H19V5.5z M19,12.5h10h5v30H14v-30H19z M12,42.5h-2v-30h2V42.5z M3,41V14c0-0.8,0.7-1.5,1.5-1.5H8v30H4.5C3.7,42.5,3,41.8,3,41z M45,41c0,0.8-0.7,1.5-1.5,1.5H40v-30h3.5 c0.8,0,1.5,0.7,1.5,1.5V41z"/><path d="M24,29c0.6,0,1-0.4,1-1v-6c0-0.6-0.4-1-1-1s-1,0.4-1,1v6C23,28.6,23.4,29,24,29z"/><path d="M24,34c0.6,0,1-0.4,1-1v-1c0-0.6-0.4-1-1-1s-1,0.4-1,1v1C23,33.6,23.4,34,24,34z"/></g></svg>