<svg xmlns="http://www.w3.org/2000/svg" viewBox="0 0 48 48"><defs/><path d="M46.5,45H1.5a1.5,1.5,0,0,0,0,3h45a1.5,1.5,0,0,0,0-3Z"/><path d="M3.5,41h7A3.5,3.5,0,0,0,14,37.5V3.5A3.5,3.5,0,0,0,10.5,0h-7A3.5,3.5,0,0,0,0,3.5v34A3.5,3.5,0,0,0,3.5,41ZM3,21.41l8-8v6.17l-8,8ZM3,36.59V30.41l8-8v6.17ZM11,4.41v6.17l-8,8V12.41ZM10.5,38H4.41L11,31.41V37.5A.5.5,0,0,1,10.5,38ZM3.5,3H9.59L3,9.59V3.5A.5.5,0,0,1,3.5,3Z"/><path d="M20.5,41h7A3.5,3.5,0,0,0,31,37.5v-15A3.5,3.5,0,0,0,27.5,19h-7A3.5,3.5,0,0,0,17,22.5v15A3.5,3.5,0,0,0,20.5,41ZM28,22.43a.47.47,0,0,1,0,.07v6.09l-8,8V30.41ZM27.5,38H21.41L28,31.41V37.5A.5.5,0,0,1,27.5,38Zm-7-16h5.09L20,27.59V22.5A.5.5,0,0,1,20.5,22Z"/><path d="M44.5,9h-7A3.5,3.5,0,0,0,34,12.5v25A3.5,3.5,0,0,0,37.5,41h7A3.5,3.5,0,0,0,48,37.5v-25A3.5,3.5,0,0,0,44.5,9Zm.5,4.41v6.17l-8,8V21.41ZM37,36.59V30.41l8-8v6.17ZM37.5,12h6.09L37,18.59V12.5A.5.5,0,0,1,37.5,12Zm7,26H38.41L45,31.41V37.5A.5.5,0,0,1,44.5,38Z"/></svg>