<svg xmlns="http://www.w3.org/2000/svg" viewBox="0 0 48 48"><defs/><path d="M1.5,12A1.5,1.5,0,0,0,3,10.5V3h7.5a1.5,1.5,0,0,0,0-3h-8A2.5,2.5,0,0,0,0,2.5v8A1.5,1.5,0,0,0,1.5,12Z"/><path d="M10.5,45H3V37.5a1.5,1.5,0,0,0-3,0v8A2.5,2.5,0,0,0,2.5,48h8a1.5,1.5,0,0,0,0-3Z"/><path d="M46.5,36A1.5,1.5,0,0,0,45,37.5V45H37.5a1.5,1.5,0,0,0,0,3h8A2.5,2.5,0,0,0,48,45.5v-8A1.5,1.5,0,0,0,46.5,36Z"/><path d="M45.5,0h-8a1.5,1.5,0,0,0,0,3H45v7.5a1.5,1.5,0,0,0,3,0v-8A2.5,2.5,0,0,0,45.5,0Z"/><path d="M7,8.5v17A1.5,1.5,0,0,0,8.5,27h17A1.5,1.5,0,0,0,27,25.5V8.5A1.5,1.5,0,0,0,25.5,7H8.5A1.5,1.5,0,0,0,7,8.5ZM10,10H24V24H10Z"/><path d="M30.5,18h8A1.5,1.5,0,0,0,40,16.5v-8A1.5,1.5,0,0,0,38.5,7h-8A1.5,1.5,0,0,0,29,8.5v8A1.5,1.5,0,0,0,30.5,18ZM32,10h5v5H32Z"/><path d="M30.5,27h8A1.5,1.5,0,0,0,40,25.5v-4A1.5,1.5,0,0,0,38.5,20h-8A1.5,1.5,0,0,0,29,21.5v4A1.5,1.5,0,0,0,30.5,27Zm.5-5h7v3H31Z"/><path d="M16.5,29h-8A1.5,1.5,0,0,0,7,30.5v8A1.5,1.5,0,0,0,8.5,40h8A1.5,1.5,0,0,0,18,38.5v-8A1.5,1.5,0,0,0,16.5,29ZM15,37H10V32h5Z"/><path d="M40,38.5v-8A1.5,1.5,0,0,0,38.5,29h-8A1.5,1.5,0,0,0,29,30.5v8A1.5,1.5,0,0,0,30.5,40h8A1.5,1.5,0,0,0,40,38.5ZM37,37H32V32h5Z"/><path d="M20.5,12h-7A1.5,1.5,0,0,0,12,13.5v7A1.5,1.5,0,0,0,13.5,22h7A1.5,1.5,0,0,0,22,20.5v-7A1.5,1.5,0,0,0,20.5,12ZM19,19H15V15h4Z"/><path d="M22.58,40h2.9A1.5,1.5,0,0,0,27,38.5v-8a1.5,1.5,0,0,0-1.5-1.5h-2.9a1.5,1.5,0,0,0-1.5,1.5v8A1.5,1.5,0,0,0,22.58,40Zm.4-9h2.1v7H23Z"/></svg>