<svg xmlns="http://www.w3.org/2000/svg" viewBox="0 0 48 48"><defs/><path d="M48,16a11,11,0,0,0-21.81-2H3.5A3.5,3.5,0,0,0,0,17.5v22A3.5,3.5,0,0,0,3.5,43h32A3.5,3.5,0,0,0,39,39.5V26.81A11,11,0,0,0,48,16ZM35.5,40H3.5a.5.5,0,0,1-.5-.5v-22a.5.5,0,0,1,.5-.5H26.05A11,11,0,0,0,36,26.95V39.5A.5.5,0,0,1,35.5,40ZM37,24a8,8,0,1,1,8-8A8,8,0,0,1,37,24Z"/><path d="M19.5,23A5.5,5.5,0,1,0,25,28.5,5.51,5.51,0,0,0,19.5,23Zm0,9A3.5,3.5,0,1,1,23,28.5,3.5,3.5,0,0,1,19.5,32Z"/><path d="M40,15H38V13a1,1,0,0,0-2,0v2H34a1,1,0,0,0,0,2h2v2a1,1,0,0,0,2,0V17h2a1,1,0,0,0,0-2Z"/></svg>