<svg xmlns="http://www.w3.org/2000/svg" viewBox="0 0 48 48"><defs/><path d="M37.8,12.33l9.76-9.76A1.5,1.5,0,1,0,45.44.44l-10.2,10.2A22.26,22.26,0,0,0,24,7.5C15,7.5,6.51,13.26.21,23.73a1.5,1.5,0,0,0,0,1.55,39.57,39.57,0,0,0,9.41,11L.44,45.44a1.5,1.5,0,1,0,2.12,2.12L12.14,38A22.43,22.43,0,0,0,24,41.5c9,0,17.49-5.76,23.79-16.23a1.5,1.5,0,0,0,0-1.55A38.92,38.92,0,0,0,37.8,12.33ZM3.26,24.5c5.67-9,13-14,20.74-14a19.1,19.1,0,0,1,9,2.35L29.27,16.6A9.49,9.49,0,0,0,16.1,29.77l-4.33,4.33A35.52,35.52,0,0,1,3.26,24.5Zm13.24,0a7.48,7.48,0,0,1,11.32-6.44l-3,3a3.47,3.47,0,0,0-4.19,4.19l-3,3A7.44,7.44,0,0,1,16.5,24.5Zm6,3.14A3.46,3.46,0,0,0,24,28a3.5,3.5,0,0,0,3.5-3.5A3.46,3.46,0,0,0,27.14,23l2.9-2.9A7.49,7.49,0,0,1,19.58,30.54ZM24,38.5a19.29,19.29,0,0,1-9.68-2.7L18.15,32A9.49,9.49,0,0,0,31.47,18.65l4.18-4.18a34.85,34.85,0,0,1,9.09,10C39.07,33.54,31.73,38.5,24,38.5Z"/></svg>