<svg xmlns="http://www.w3.org/2000/svg" viewBox="0 0 48 48"><defs/><path d="M43.16.18a1.5,1.5,0,0,0-1.54.07L36.05,3.7,30.88.25a1.5,1.5,0,0,0-1.66,0L24.05,3.7,18.88.25a1.5,1.5,0,0,0-1.66,0L12.05,3.7,6.38.25A1.5,1.5,0,0,0,4,1.5v45a1.5,1.5,0,0,0,2.46,1.15l5.54-4.2,5,4.2a1.5,1.5,0,0,0,1.92,0l5-4.2,5,4.2a1.5,1.5,0,0,0,1.92,0l5-4.2,5.44,4.2A1.5,1.5,0,0,0,44,46.5V1.5A1.5,1.5,0,0,0,43.16.18ZM41.05,43.3l-4-3a1.5,1.5,0,0,0-1.92,0l-5,4.2-5-4.2a1.5,1.5,0,0,0-1.92,0l-5,4.2-5-4.2a1.5,1.5,0,0,0-1.92,0l-4.14,3V4.3l4.27,2.45a1.5,1.5,0,0,0,1.66,0L18.05,3.3l5.17,3.45a1.5,1.5,0,0,0,1.66,0L30.05,3.3l5.17,3.45a1.5,1.5,0,0,0,1.66,0L41.05,4.3Z"/><rect width="19.9" height="2" x="14.05" y="14"/><rect width="19.9" height="2" x="14.05" y="22"/><rect width="10.9" height="2" x="14.05" y="30"/></svg>