<svg xmlns="http://www.w3.org/2000/svg" viewBox="0 0 48 48"><defs/><path d="M33.53,7.47,38,3a5,5,0,0,1,7,0h0a5,5,0,0,1,0,7l-4.5,4.5"/><rect width="15.54" height="4.82" x="27.07" y="10.55" rx="1" ry="1" transform="translate(19.37 -20.84) rotate(45)"/><path d="M46.09,1.91a6.46,6.46,0,0,0-9.12,0L33.14,5.74l-.33-.33a2.5,2.5,0,0,0-3.54,0l-2,2a2.5,2.5,0,0,0,0,3.54l.33.33L.46,38.41A1.5,1.5,0,0,0,0,39.47v6a1.5,1.5,0,0,0,.44,1.06l1,1A1.5,1.5,0,0,0,2.52,48h6a1.5,1.5,0,0,0,1.06-.44L36.73,20.39l.13.13a2.5,2.5,0,0,0,3.54,0l2-2a2.5,2.5,0,0,0,0-3.54l-.13-.13L46.09,11A6.46,6.46,0,0,0,46.09,1.91ZM7.9,45.07H3L2.92,45V40.1l17-16.85,2.44,2.44a1,1,0,0,0,1.41-1.41l-2.44-2.44,1.59-1.59,2.44,2.44a1,1,0,0,0,1.41-1.41l-2.44-2.44,1.59-1.59,2.44,2.44a1,1,0,0,0,1.41-1.41l-2.44-2.44,2.44-2.44,4.88,4.88ZM38.63,18,29.76,9.17,31,7.88l8.87,8.87ZM44,8.91l-3.82,3.82L35.26,7.86,39.09,4A3.45,3.45,0,0,1,44,8.91Z"/></svg>