<svg xmlns="http://www.w3.org/2000/svg" viewBox="0 0 48 48"><defs/><path d="M27.44,24.61a5,5,0,1,0-6.87,0,10,10,0,0,0-6.49,8.14,2,2,0,0,0,2,2.25H31.93a2,2,0,0,0,2-2.25A10,10,0,0,0,27.44,24.61ZM21,21a3,3,0,1,1,3,3A3,3,0,0,1,21,21ZM16.06,33a8,8,0,0,1,15.87,0Z"/><path d="M43.5,7H34V3.5a1.5,1.5,0,0,0-3,0V7H17V3.5a1.5,1.5,0,0,0-3,0V7H4.5A4.5,4.5,0,0,0,0,11.5v27A4.5,4.5,0,0,0,4.5,43h39A4.5,4.5,0,0,0,48,38.5v-27A4.5,4.5,0,0,0,43.5,7ZM45,38.5A1.5,1.5,0,0,1,43.5,40H4.5A1.5,1.5,0,0,1,3,38.5v-27A1.5,1.5,0,0,1,4.5,10H14v2.5a1.5,1.5,0,0,0,3,0V10H31v2.5a1.5,1.5,0,0,0,3,0V10h9.5A1.5,1.5,0,0,1,45,11.5Z"/></svg>