<svg xmlns="http://www.w3.org/2000/svg" viewBox="0 0 48 48"><defs/><path d="M20,24a6,6,0,1,0-6-6A6,6,0,0,0,20,24Zm0-10a4,4,0,1,1-4,4A4,4,0,0,1,20,14Z"/><path d="M44.5,0H3.5A3.5,3.5,0,0,0,0,3.5v41A3.5,3.5,0,0,0,3.5,48h41A3.5,3.5,0,0,0,48,44.5V3.5A3.5,3.5,0,0,0,44.5,0ZM45,44.5a.5.5,0,0,1-.5.5H3.5a.5.5,0,0,1-.5-.5V3.5A.5.5,0,0,1,3.5,3h41a.5.5,0,0,1,.5.5Z"/><path d="M41.5,5H6.5A1.5,1.5,0,0,0,5,6.5v35A1.5,1.5,0,0,0,6.5,43h35A1.5,1.5,0,0,0,43,41.5V6.5A1.5,1.5,0,0,0,41.5,5ZM40,8V18.59l-1.29-1.29a1,1,0,0,0-1.41,0L20,34.59l-8.29-8.29a1,1,0,0,0-1.41,0L8,28.59V8ZM8,40V31.41l3-3,8.29,8.29a1,1,0,0,0,1.41,0L38,19.41l2,2V40Z"/></svg>