<svg xmlns="http://www.w3.org/2000/svg" viewBox="0 0 48 48"><defs/><path d="M44.5,5h-32A3.5,3.5,0,0,0,9,8.5V14H3.5A3.5,3.5,0,0,0,0,17.5v22A3.5,3.5,0,0,0,3.5,43h32A3.5,3.5,0,0,0,39,39.5V34h5.5A3.5,3.5,0,0,0,48,30.5V8.5A3.5,3.5,0,0,0,44.5,5ZM3.5,17h32a.5.5,0,0,1,.5.5V32H3V17.5A.5.5,0,0,1,3.5,17Zm32,23H3.5a.5.5,0,0,1-.5-.5V34H36v5.5A.5.5,0,0,1,35.5,40ZM45,30.5a.5.5,0,0,1-.5.5H39V17.5A3.5,3.5,0,0,0,35.5,14H12V8.5a.5.5,0,0,1,.5-.5h32a.5.5,0,0,1,.5.5Z"/><path d="M8,28h6a2,2,0,0,0,2-2V23a2,2,0,0,0-2-2H8a2,2,0,0,0-2,2v3A2,2,0,0,0,8,28Zm0-5h6v3H8Z"/></svg>