<svg xmlns="http://www.w3.org/2000/svg" viewBox="0 0 48 48"><defs/><path d="M1.41,12a1.5,1.5,0,0,0,1.5-1.5V3h7.5a1.5,1.5,0,0,0,0-3h-8A2.5,2.5,0,0,0-.09,2.5v8A1.5,1.5,0,0,0,1.41,12Z"/><path d="M10.41,45H2.91V37.5a1.5,1.5,0,0,0-3,0v8A2.5,2.5,0,0,0,2.41,48h8a1.5,1.5,0,1,0,0-3Z"/><path d="M46.41,36A1.42,1.42,0,0,0,45,37.5V45h-7.6a1.5,1.5,0,0,0,0,3h8a2.5,2.5,0,0,0,2.5-2.5v-8A1.5,1.5,0,0,0,46.41,36Z"/><path d="M45.41,0h-8a1.5,1.5,0,0,0,0,3H45v7.5a1.42,1.42,0,0,0,1.4,1.5,1.5,1.5,0,0,0,1.5-1.5v-8A2.5,2.5,0,0,0,45.41,0Z"/><path d="M9,15.5v17a2.5,2.5,0,0,0,2.5,2.5h24.9a2.5,2.5,0,0,0,2.5-2.5v-17a2.5,2.5,0,0,0-2.5-2.5H11.51A2.5,2.5,0,0,0,9,15.5ZM11.91,32V29H36v3ZM36,16V27H11.91V16Z"/><rect width="6.9" height="2" x="15.01" y="19"/></svg>