<svg xmlns="http://www.w3.org/2000/svg" viewBox="0 0 48 48"><defs/><path d="M24,47.92a6.22,6.22,0,0,1-4-1.42l-.14-.13-1.43-1.58a2.61,2.61,0,0,0-2.5-.77l-2.13.47a5.63,5.63,0,0,1-4.55-.94,5.32,5.32,0,0,1-2.17-3.81L6.9,37.66a2.36,2.36,0,0,0-1.5-2l-2-.81A5.4,5.4,0,0,1,.25,31.55a5.21,5.21,0,0,1,.56-4.38l1.13-1.79h0a2.21,2.21,0,0,0,0-2.38L.81,21.21a5.21,5.21,0,0,1-.56-4.39,5.4,5.4,0,0,1,3.13-3.34l2-.81a2.36,2.36,0,0,0,1.5-2l.19-2.09A5.32,5.32,0,0,1,9.26,4.83a5.62,5.62,0,0,1,4.55-.94l2.13.47a2.61,2.61,0,0,0,2.5-.77L19.86,2A5.34,5.34,0,0,1,23.93.08h0a5.5,5.5,0,0,1,4.19,2l1.4,1.55a2.6,2.6,0,0,0,2.5.77l2.13-.47a5.62,5.62,0,0,1,4.55.94,5.32,5.32,0,0,1,2.17,3.81l.19,2.08a2.36,2.36,0,0,0,1.5,2l2,.81a5.4,5.4,0,0,1,3.13,3.34,5.21,5.21,0,0,1-.56,4.38L46.07,23a2.21,2.21,0,0,0,0,2.38l1.13,1.79a5.21,5.21,0,0,1,.56,4.39,5.4,5.4,0,0,1-3.13,3.34l-2,.81a2.36,2.36,0,0,0-1.5,2l-.19,2.09a5.32,5.32,0,0,1-2.17,3.81,5.61,5.61,0,0,1-4.55.94L32.07,44a2.6,2.6,0,0,0-2.5.77l-1.43,1.58-.11.11A6,6,0,0,1,24,47.92Zm-2-3.65a3.43,3.43,0,0,0,4,0l1.37-1.52a5.6,5.6,0,0,1,5.37-1.68l2.13.47A2.65,2.65,0,0,0,37,41.13a2.28,2.28,0,0,0,1-1.65l.19-2.09a5.35,5.35,0,0,1,3.37-4.47l2-.81a2.4,2.4,0,0,0,1.41-1.48,2.19,2.19,0,0,0-.24-1.87L43.53,27a5.19,5.19,0,0,1,0-5.57l1.13-1.79a2.19,2.19,0,0,0,.24-1.87,2.41,2.41,0,0,0-1.41-1.48l-2-.81A5.35,5.35,0,0,1,38.11,11L37.93,8.9a2.28,2.28,0,0,0-1-1.65,2.64,2.64,0,0,0-2.12-.43l-2.13.47a5.6,5.6,0,0,1-5.37-1.68L25.92,4a2.43,2.43,0,0,0-2-.94A2.37,2.37,0,0,0,22.13,4L20.65,5.61a5.61,5.61,0,0,1-5.37,1.68l-2.13-.47A2.63,2.63,0,0,0,11,7.25a2.28,2.28,0,0,0-1,1.65L9.88,11a5.35,5.35,0,0,1-3.37,4.47l-2,.81a2.4,2.4,0,0,0-1.41,1.48,2.19,2.19,0,0,0,.24,1.87L4.47,21.4a5.19,5.19,0,0,1,0,5.57L3.35,28.76a2.19,2.19,0,0,0-.24,1.87,2.41,2.41,0,0,0,1.41,1.48l2,.81a5.35,5.35,0,0,1,3.37,4.47l.19,2.09a2.28,2.28,0,0,0,1,1.65,2.64,2.64,0,0,0,2.13.43l2.13-.47a5.6,5.6,0,0,1,5.37,1.68Z"/><path d="M17.75,24.19A5.25,5.25,0,1,1,23,18.94,5.26,5.26,0,0,1,17.75,24.19Zm0-8.5A3.25,3.25,0,1,0,21,18.94,3.25,3.25,0,0,0,17.75,15.69Z"/><path d="M15.5,33.69A1,1,0,0,1,14.79,32l17-17a1,1,0,0,1,1.41,1.41l-17,17A1,1,0,0,1,15.5,33.69Z"/><path d="M30.25,34.69a5.25,5.25,0,1,1,5.25-5.25A5.26,5.26,0,0,1,30.25,34.69Zm0-8.5a3.25,3.25,0,1,0,3.25,3.25A3.25,3.25,0,0,0,30.25,26.19Z"/></svg>