<svg xmlns="http://www.w3.org/2000/svg" viewBox="0 0 48 48"><defs/><path d="M40.5,16H35v-5.6a10.5,10.5,0,0,0-21,0V16H8.5A3.5,3.5,0,0,0,5,19.53v24.9a3.5,3.5,0,0,0,3.5,3.5h32a3.34,3.34,0,0,0,3.5-3.5V19.53A3.5,3.5,0,0,0,40.5,16ZM17,10.43a7.5,7.5,0,0,1,15,0V16H17Zm24,34.1a.5.5,0,0,1-.5.5H8.5a.5.5,0,0,1-.5-.5V19.43a.5.5,0,0,1,.5-.5h32a.5.5,0,0,1,.5.5Z"/><path d="M25,26h-.95a3,3,0,0,0-3,3v5.9a3,3,0,0,0,3,3H25a2.92,2.92,0,0,0,2.9-3V29A2.92,2.92,0,0,0,25,26Zm1,8.9a1,1,0,0,1-1,1H24a1,1,0,0,1-1-1V29a1,1,0,0,1,1-1h1a1,1,0,0,1,1,1Z"/></svg>