<svg xmlns="http://www.w3.org/2000/svg" viewBox="0 0 48 48"><defs/><path d="M43.5,6H4.5A4.5,4.5,0,0,0,0,10.55v26.9A4.5,4.5,0,0,0,4.5,42h39a4.5,4.5,0,0,0,4.5-4.5V10.55A4.5,4.5,0,0,0,43.5,6Zm-39,2.9h39s0,.1,0,.1L24,27.57,4.46,9.05S4.49,8.95,4.5,8.95ZM3,37.45V10.55s0-.07,0-.11L16.43,23.15a.33.33,0,0,0-.16.21L3,37.58C3,37.47,3,37.46,3,37.45Zm40.5,1.6H4.38L17.73,24.63a1,1,0,0,0,.1-.16l5.49,5.2a1,1,0,0,0,1.37,0l5.49-5.2a1,1,0,0,0,.1.16L43.62,39Zm1.5-1.6s0,0,0,0L31.73,23.27a1,1,0,0,0-.16-.11L45,10.44s0,.07,0,.11Z"/></svg>