<svg xmlns="http://www.w3.org/2000/svg" viewBox="0 0 48 48"><defs/><path d="M9.5,0h-6A3.5,3.5,0,0,0,0,3.5v6A3.5,3.5,0,0,0,3.5,13h6A3.5,3.5,0,0,0,13,9.5v-6A3.5,3.5,0,0,0,9.5,0ZM10,9.5a.5.5,0,0,1-.5.5h-6A.5.5,0,0,1,3,9.5v-6A.5.5,0,0,1,3.5,3h6a.5.5,0,0,1,.5.5Z"/><path d="M18.5,8h28a1.5,1.5,0,0,0,0-3h-28a1.5,1.5,0,0,0,0,3Z"/><path d="M9.5,17h-6A3.5,3.5,0,0,0,0,20.5v6A3.5,3.5,0,0,0,3.5,30h6A3.5,3.5,0,0,0,13,26.5v-6A3.5,3.5,0,0,0,9.5,17Zm.5,9.5a.5.5,0,0,1-.5.5h-6a.5.5,0,0,1-.5-.5v-6a.5.5,0,0,1,.5-.5h6a.5.5,0,0,1,.5.5Z"/><path d="M46.5,22h-28a1.5,1.5,0,0,0,0,3h28a1.5,1.5,0,0,0,0-3Z"/><path d="M9.5,34h-6A3.5,3.5,0,0,0,0,37.5v6A3.5,3.5,0,0,0,3.5,47h6A3.5,3.5,0,0,0,13,43.5v-6A3.5,3.5,0,0,0,9.5,34Zm.5,9.5a.5.5,0,0,1-.5.5h-6a.5.5,0,0,1-.5-.5v-6a.5.5,0,0,1,.5-.5h6a.5.5,0,0,1,.5.5Z"/><path d="M46.5,39h-28a1.5,1.5,0,0,0,0,3h28a1.5,1.5,0,0,0,0-3Z"/></svg>