<?xml version="1.0" encoding="utf-8"?><svg xmlns="http://www.w3.org/2000/svg" xmlns:xlink="http://www.w3.org/1999/xlink" style="enable-background:new 0 0 48 48" x="0px" y="0px" version="1.1" viewBox="0 0 48 48" xml:space="preserve"><g><path d="M41.8,17.8C41.8,8,33.8,0,24,0C14.3,0,6.3,8,6.3,17.8c0,4.9,2.1,9.4,5.3,12.6L6.2,42.1l8.3-3 c0.5-0.2,1.1,0.1,1.3,0.6l3,8.3L24,36.5l5.3,11.4l3-8.3c0.2-0.5,0.8-0.8,1.3-0.6l8.3,3l-5.3-11.5C39.8,27.3,41.8,22.8,41.8,17.8z M18.9,42.8L17.5,39c-0.3-0.8-0.8-1.4-1.6-1.7c-0.7-0.3-1.5-0.4-2.3-0.1l-3.8,1.4l3.2-6.7c2.6,2,5.7,3.4,9.2,3.7L18.9,42.8z M9.2,17.9C9.2,9.7,15.9,3.1,24,3.1s14.8,6.6,14.8,14.8S32.2,32.7,24,32.7S9.2,26.1,9.2,17.9z M38.1,38.6l-3.8-1.4 c-0.8-0.3-1.6-0.3-2.4,0.1c-0.7,0.3-1.3,0.9-1.6,1.7L29,42.8l-3.4-7.2c3.5-0.3,6.6-1.7,9.2-3.7L38.1,38.6z"/></g><path d="M34.5,18.9L34,18.2c0-0.1,0-0.2,0-0.3l0.5-0.8c0.5-0.8,0.6-1.7,0.3-2.5c-0.3-0.9-0.9-1.5-1.7-1.9l-0.9-0.4	c-0.1,0-0.2-0.1-0.2-0.2l-0.1-0.9c-0.1-0.9-0.6-1.7-1.2-2.1c-0.5-0.4-1.2-0.6-1.8-0.6c-0.2,0-0.5,0-0.7,0.1l-1,0.2	c-0.1,0-0.2,0-0.2-0.1l-0.5-0.6C25.8,7.4,24.9,7,24,7l-0.1,0c-0.9,0-1.7,0.4-2.2,1.1l-0.6,0.6c-0.1,0.1-0.2,0.1-0.3,0.1	c0,0,0,0-0.1,0l-0.9-0.2c-0.2-0.1-0.5-0.1-0.7-0.1c-0.7,0-1.3,0.2-1.8,0.6c-0.7,0.5-1.2,1.3-1.3,2.3l0,0.8c0,0.1-0.1,0.2-0.2,0.3	l-0.8,0.3c-0.8,0.3-1.5,1-1.8,1.9c-0.3,0.8-0.2,1.8,0.3,2.5l0.5,0.8c0,0.1,0.1,0.2,0,0.3L13.5,19c-0.5,0.7-0.6,1.7-0.3,2.5	c0.3,0.9,0.9,1.5,1.7,1.9l0.9,0.4c0.1,0,0.2,0.1,0.2,0.2l0.1,0.9c0.1,0.9,0.6,1.7,1.2,2.1c0.5,0.4,1.2,0.6,1.8,0.6	c0.2,0,0.5,0,0.7-0.1l1-0.2c0.1,0,0.2,0,0.2,0.1l0.7,0.8l0.2,0.1c0.6,0.4,1.3,0.7,2,0.7c0.7,0,1.4-0.2,2-0.7l0.2-0.1l0.7-0.8	c0.1-0.1,0.2-0.1,0.3-0.1c0,0,0,0,0.1,0l0.9,0.2c0.2,0.1,0.5,0.1,0.7,0.1c0.6,0,1.3-0.2,1.8-0.5c0.7-0.5,1.2-1.3,1.3-2.2L32,24	c0-0.1,0.1-0.2,0.2-0.3l0.8-0.3c0.8-0.3,1.5-1,1.8-1.9C35.1,20.6,35,19.7,34.5,18.9z M33,20.9c-0.1,0.3-0.3,0.5-0.6,0.6l-0.9,0.3	c-0.8,0.3-1.4,1.1-1.4,1.9L30,24.7c0,0.3-0.2,0.5-0.4,0.7c-0.3,0.2-0.6,0.3-0.9,0.2l-0.9-0.2c-0.8-0.2-1.7,0.1-2.3,0.7l-0.6,0.7	c-0.5,0.4-1.2,0.4-1.7,0l-0.6-0.6c-0.6-0.6-1.5-0.9-2.3-0.7l-0.9,0.2c-0.3,0.1-0.6,0-0.9-0.2c-0.2-0.2-0.4-0.4-0.4-0.7L18,23.8	c-0.1-0.9-0.6-1.6-1.4-1.9l-0.9-0.3c-0.3-0.1-0.5-0.3-0.6-0.6c-0.1-0.3-0.1-0.6,0.1-0.8l0.5-0.8c0.5-0.7,0.5-1.7,0-2.4l-0.5-0.8	C15,15.9,15,15.6,15,15.3c0.1-0.3,0.3-0.5,0.6-0.6l0.9-0.3c0.8-0.3,1.4-1.1,1.4-1.9l0.1-0.9c0-0.3,0.2-0.5,0.4-0.7	c0.3-0.2,0.6-0.3,0.9-0.2l0.9,0.2c0.8,0.2,1.7-0.1,2.3-0.7l0.6-0.7C23.4,9.2,23.6,9,24,9c0.3,0,0.7,0.1,0.9,0.4l0.6,0.7	c0.6,0.6,1.5,0.9,2.3,0.7l0.9-0.2c0.3-0.1,0.6,0,0.9,0.2c0.2,0.2,0.4,0.4,0.4,0.7l0.1,0.9c0.1,0.9,0.6,1.6,1.4,1.9l0.9,0.3	c0.3,0.1,0.5,0.3,0.6,0.6c0.1,0.3,0.1,0.6-0.1,0.8l-0.5,0.8c-0.5,0.7-0.5,1.7,0,2.4l0.5,0.8C33,20.3,33,20.6,33,20.9z"/></svg>