<svg xmlns="http://www.w3.org/2000/svg" viewBox="0 0 48 48"><defs/><path d="M44.5,48H3.5A3.5,3.5,0,0,1,0,44.55v-11a1.5,1.5,0,0,1,3,0v11a.5.5,0,0,0,.5.5h41a.5.5,0,0,0,.5-.5v-11a1.5,1.5,0,1,1,3,0v11A3.5,3.5,0,0,1,44.5,48Z"/><path d="M24.5,33a1.5,1.5,0,0,1-1.5-1.5v-30a1.5,1.5,0,0,1,3,0v30A1.5,1.5,0,0,1,24.5,33Z"/><path d="M24.5,33a1.5,1.5,0,0,1-1.06-2.56l10-10a1.5,1.5,0,1,1,2.12,2.12l-10,10A1.5,1.5,0,0,1,24.5,33Z"/><path d="M24.5,33a1.5,1.5,0,0,1-1.06-.44l-10-10a1.5,1.5,0,0,1,2.12-2.12l10,10A1.5,1.5,0,0,1,24.5,33Z"/></svg>