<?xml version="1.0" encoding="utf-8"?><svg xmlns="http://www.w3.org/2000/svg" xmlns:xlink="http://www.w3.org/1999/xlink" style="enable-background:new 0 0 48 48" x="0px" y="0px" version="1.1" viewBox="0 0 48 48" xml:space="preserve"><g><rect width="11.9" height="2" x="13" y="25.5"/><rect width="6.9" height="2" x="28" y="25.5"/><rect width="11.9" height="2" x="13" y="33.5"/><path d="M14.2,16.5c-0.6,0-1,0.4-1,1c0,0.6,0.4,1,1,1h3v1c0,0.5,0.3,1,0.8,1c0,0,0,0,0.1,0c0.6,0,1-0.4,1-1v-1h1.1 c1.7,0,3-1.3,3-3s-1.3-3-3-3H19v-2h3.1c0.6,0,1-0.4,1-1c0-0.6-0.4-1-1-1H19v-1c0-0.6-0.4-1-1-1c-0.5,0-0.9,0.4-0.9,0.9 c0,0,0,0,0,0.1v1h-1c-1.7,0-3,1.3-3,3s1.3,3,3,3h1v2H14.2z M19,14.5h1.1c0.6,0,1,0.4,1,1c0,0.6-0.4,1-1,1H19V14.5z M16.2,12.5 c-0.6,0-1-0.4-1-1c0-0.6,0.4-1,1-1h1v2H16.2z"/><path d="M41,0H7C5.4,0,4,1.3,4,3v42c0,0.3,0,0.5,0,0.9c0,0.5,0,1.1,0.4,1.6C4.6,47.8,5.1,48,5.5,48 c0.2,0,0.4-0.1,0.6-0.1c0.1-0.1,0.2-0.1,0.4-0.2L9.6,45l2-1.7l2,1.7l3.1,2.6c0.3,0.2,0.6,0.4,1,0.4h0.3c0.3,0,0.7-0.1,1-0.4L22,45 l2-1.7l2,1.7l3.1,2.6c0.3,0.2,0.6,0.4,1,0.4h0.3c0.3,0,0.7-0.1,1-0.4l3.1-2.6l2-1.7l2,1.7l3.1,2.6c0.1,0.1,0.2,0.1,0.4,0.2 c0.2,0.1,0.4,0.1,0.6,0.1c0.4,0,0.9-0.2,1.1-0.5C44,47,44,46.5,44,45.9c0-0.4,0-0.6,0-0.9V3C44,1.3,42.7,0,41,0z M41,43.3l-3.5-2.9 c-0.3-0.3-0.7-0.4-1.1-0.3c-0.4,0-0.8,0.1-1.1,0.3l-5.1,4.3l-5.1-4.3C24.8,40.1,24.4,40,24,40c-0.4,0-0.8,0.1-1.1,0.3l-5.1,4.3 l-5.1-4.3C12.4,40.1,12,40,11.6,40c-0.4,0-0.8,0.1-1.1,0.3L7,43.3V3h34V43.3z"/></g></svg>