<svg xmlns="http://www.w3.org/2000/svg" viewBox="0 0 48 48"><defs/><path d="M17.5,0H3.5A3.5,3.5,0,0,0,0,3.5v14A3.5,3.5,0,0,0,3.5,21h14A3.5,3.5,0,0,0,21,17.5V3.5A3.5,3.5,0,0,0,17.5,0ZM18,17.5a.5.5,0,0,1-.5.5H3.5a.5.5,0,0,1-.5-.5V3.5A.5.5,0,0,1,3.5,3h14a.5.5,0,0,1,.5.5Z"/><path d="M44.5,0h-14A3.5,3.5,0,0,0,27,3.5v14A3.5,3.5,0,0,0,30.5,21h14A3.5,3.5,0,0,0,48,17.5V3.5A3.5,3.5,0,0,0,44.5,0ZM45,17.5a.5.5,0,0,1-.5.5h-14a.5.5,0,0,1-.5-.5V3.5a.5.5,0,0,1,.5-.5h14a.5.5,0,0,1,.5.5Z"/><path d="M17.5,27H3.5A3.5,3.5,0,0,0,0,30.5v14A3.5,3.5,0,0,0,3.5,48h14A3.5,3.5,0,0,0,21,44.5v-14A3.5,3.5,0,0,0,17.5,27ZM18,44.5a.5.5,0,0,1-.5.5H3.5a.5.5,0,0,1-.5-.5v-14a.5.5,0,0,1,.5-.5h14a.5.5,0,0,1,.5.5Z"/><path d="M44.5,27h-14A3.5,3.5,0,0,0,27,30.5v14A3.5,3.5,0,0,0,30.5,48h14A3.5,3.5,0,0,0,48,44.5v-14A3.5,3.5,0,0,0,44.5,27ZM45,44.5a.5.5,0,0,1-.5.5h-14a.5.5,0,0,1-.5-.5v-14a.5.5,0,0,1,.5-.5h14a.5.5,0,0,1,.5.5Z"/></svg>