<svg xmlns="http://www.w3.org/2000/svg" viewBox="0 0 48 48"><defs/><path d="M40.5,4H36V1.5a1.5,1.5,0,0,0-3,0V4H29V1.5a1.5,1.5,0,0,0-3,0V4H22V1.5a1.5,1.5,0,0,0-3,0V4H15V1.5a1.5,1.5,0,0,0-3,0V4H7.5A3.5,3.5,0,0,0,4,7.5v37A3.5,3.5,0,0,0,7.5,48h33A3.5,3.5,0,0,0,44,44.5V7.5A3.5,3.5,0,0,0,40.5,4ZM7.5,7H12V9.5a1.5,1.5,0,0,0,3,0V7h4V9.5a1.5,1.5,0,0,0,3,0V7h4V9.5a1.5,1.5,0,0,0,3,0V7h4V9.5a1.5,1.5,0,0,0,3,0V7h4.5a.5.5,0,0,1,.5.5V14H7V7.5A.5.5,0,0,1,7.5,7Zm33,38H7.5a.5.5,0,0,1-.5-.5V17H41V44.5A.5.5,0,0,1,40.5,45Z"/><rect width="14" height="2" x="12" y="30"/><rect width="7" height="2" x="29" y="30"/><rect width="8" height="2" x="12" y="37"/><rect width="12" height="2" x="24" y="37"/><rect width="24" height="2" x="12" y="22"/></svg>