<svg xmlns="http://www.w3.org/2000/svg" viewBox="0 0 48 48"><defs/><path d="M39.09,26H22V8.81a1.5,1.5,0,0,0-1.5-1.5A19.82,19.82,0,0,0,5.68,14,20,20,0,0,0,18.31,47.19a20.16,20.16,0,0,0,15.61-5,19.6,19.6,0,0,0,6.66-14.7A1.5,1.5,0,0,0,39.09,26ZM31.92,40a17,17,0,1,1-12.84-29.6V27.31a1.5,1.5,0,0,0,1.5,1.5H37.52A17,17,0,0,1,31.92,40Z"/><path d="M27.59-.11a1.5,1.5,0,0,0-1.5,1.5V20.31a1.5,1.5,0,0,0,1.5,1.5H46.51a1.5,1.5,0,0,0,1.5-1.5A20.45,20.45,0,0,0,27.59-.11ZM43,12.46,36.47,19H30.19l9.87-10.7A18,18,0,0,1,43,12.46ZM29,10.33l5.81-5.81A17.7,17.7,0,0,1,38.6,7L29,17.37Zm3.77-6.6L29,7.5V2.95A16.93,16.93,0,0,1,32.76,3.73ZM39.3,19l4.61-4.61A17.32,17.32,0,0,1,45,19Z"/></svg>