<svg xmlns="http://www.w3.org/2000/svg" viewBox="0 0 48 48"><defs/><path d="M2.5,15h9.9a2.5,2.5,0,0,0,2.5-2.5V2.5A2.5,2.5,0,0,0,12.4,0H2.5A2.5,2.5,0,0,0,0,2.5v10A2.5,2.5,0,0,0,2.5,15ZM2.9,3H12v9H2.9Z"/><path d="M7.9,5H7A2,2,0,0,0,5,7V8a2,2,0,0,0,2,2h.9a2,2,0,0,0,2-2V7A2,2,0,0,0,7.9,5Zm0,3H7V7h.9Z"/><path d="M40,10h.9a2,2,0,0,0,2-2V7a2,2,0,0,0-2-2H40a2,2,0,0,0-2,2V8A2,2,0,0,0,40,10Zm0-3h.9V8H40Z"/><path d="M7,43h.9a2,2,0,0,0,2-2V40a2,2,0,0,0-2-2H7a2,2,0,0,0-2,2v1A2,2,0,0,0,7,43Zm0-3h.9v1H7Z"/><path d="M45.5,0h-10A2.5,2.5,0,0,0,33,2.5v10A2.5,2.5,0,0,0,35.5,15h10A2.5,2.5,0,0,0,48,12.5V2.5A2.5,2.5,0,0,0,45.5,0ZM45,12H35.9V3H45Z"/><path d="M12.4,33H2.5A2.5,2.5,0,0,0,0,35.5v10A2.5,2.5,0,0,0,2.5,48h9.9a2.5,2.5,0,0,0,2.5-2.5v-10A2.5,2.5,0,0,0,12.4,33ZM12,45H2.9V36H12Z"/><path d="M40,43h1a1.92,1.92,0,0,0,1.9-2V40A1.92,1.92,0,0,0,41,38H40a2,2,0,0,0-2,2v1A2,2,0,0,0,40,43Zm0-3h1v1H40Z"/><path d="M45.5,33h-10A2.5,2.5,0,0,0,33,35.5v10A2.5,2.5,0,0,0,35.5,48h10A2.5,2.5,0,0,0,48,45.5v-10A2.5,2.5,0,0,0,45.5,33ZM45,45H35.9V36H45Z"/><path d="M28.4,6H25.9V2.5A2.5,2.5,0,0,0,23.4,0H19.5A2.5,2.5,0,0,0,17,2.5v15A2.5,2.5,0,0,0,19.5,20h3.9a2.5,2.5,0,0,0,2.5-2.5V14h2.5a2.5,2.5,0,0,0,2.5-2.5v-3A2.5,2.5,0,0,0,28.4,6ZM28,11H25.5A2.5,2.5,0,0,0,23,13.5V17H19.9V3H23V6.5A2.5,2.5,0,0,0,25.5,9H28Z"/><path d="M2.5,31h15A2.5,2.5,0,0,0,20,28.5v-4A2.5,2.5,0,0,0,17.5,22H14V19.5A2.5,2.5,0,0,0,11.5,17h-3A2.5,2.5,0,0,0,6,19.5V22H2.5A2.5,2.5,0,0,0,0,24.5v4A2.5,2.5,0,0,0,2.5,31ZM3,25H6.5A2.5,2.5,0,0,0,9,22.5V20h2v2.5A2.5,2.5,0,0,0,13.5,25H17v3H3Z"/><path d="M35.5,31h10A2.5,2.5,0,0,0,48,28.5v-9A2.5,2.5,0,0,0,45.5,17h-4A2.5,2.5,0,0,0,39,19.5V22H35.5A2.5,2.5,0,0,0,33,24.5v4A2.5,2.5,0,0,0,35.5,31Zm.5-6h3.5A2.5,2.5,0,0,0,42,22.5V20h3v8H36Z"/><path d="M28.5,22h-4A2.5,2.5,0,0,0,22,24.5v4A2.5,2.5,0,0,0,24.5,31h4A2.5,2.5,0,0,0,31,28.5v-4A2.5,2.5,0,0,0,28.5,22ZM28,28H25V25h3Z"/><path d="M28.5,33h-4A2.5,2.5,0,0,0,22,35.5V39H19.5A2.5,2.5,0,0,0,17,41.5v4A2.5,2.5,0,0,0,19.5,48h4A2.5,2.5,0,0,0,26,45.5V42h2.5A2.5,2.5,0,0,0,31,39.5v-4A2.5,2.5,0,0,0,28.5,33ZM23,45H20V42h3Zm5-6H25V36h3Z"/></svg>