<svg xmlns="http://www.w3.org/2000/svg" viewBox="0 0 48 48"><defs/><path d="M31.09,46.45a19.19,19.19,0,0,1-13.65-5.6l-10-10a20,20,0,0,1,0-28.25,3.68,3.68,0,0,1,5.14,0l7,7a4.16,4.16,0,0,1,0,6.14l-4,4a.64.64,0,0,0-.17.45.63.63,0,0,0,.17.45l11.1,12.11a.77.77,0,0,0,.85,0l4-4a5.4,5.4,0,0,1,7.15,0l6.74,6.74a3.6,3.6,0,0,1,0,5.08A20.21,20.21,0,0,1,31.09,46.45ZM10,4.5a.64.64,0,0,0-.45.17,17,17,0,0,0,0,24l10,10c6.55,6.55,17,6.39,23.71-.35a.59.59,0,0,0,0-.84L36.53,30.8a2.45,2.45,0,0,0-2.9,0l-4,4a3.75,3.75,0,0,1-5.14,0l-11.1-12.1a3.56,3.56,0,0,1-1-2.52,3.6,3.6,0,0,1,1.05-2.57l4-4a1.18,1.18,0,0,0,0-1.9l-7-7A.64.64,0,0,0,10,4.5Z"/></svg>