<svg xmlns="http://www.w3.org/2000/svg" viewBox="0 0 48 48"><defs/><path d="M40.5,8H32A8,8,0,0,0,16,8H7.5A3.5,3.5,0,0,0,4,11.5v33A3.5,3.5,0,0,0,7.5,48h33A3.5,3.5,0,0,0,44,44.5v-33A3.5,3.5,0,0,0,40.5,8ZM24,3a5,5,0,0,1,5,5H19A5,5,0,0,1,24,3ZM41,44.5a.5.5,0,0,1-.5.5H7.5a.5.5,0,0,1-.5-.5v-33a.5.5,0,0,1,.5-.5H16v4.42a1.5,1.5,0,0,0,3,0V11H29v4.42a1.5,1.5,0,0,0,3,0V11h8.5a.5.5,0,0,1,.5.5Z"/><path d="M19,30a4,4,0,1,0-4-4A4.05,4.05,0,0,0,19,30Zm0-6a2,2,0,1,1-2,2A2.08,2.08,0,0,1,19,24Z"/><path d="M31.73,22.32a1,1,0,0,0-1.41-.05l-14,13a1,1,0,1,0,1.36,1.46l14-13A1,1,0,0,0,31.73,22.32Z"/><path d="M29,29a4,4,0,1,0,4,4A4,4,0,0,0,29,29Zm0,6a2.09,2.09,0,0,1-2-2,2,2,0,0,1,2-2,2,2,0,0,1,0,4Z"/></svg>