<svg xmlns="http://www.w3.org/2000/svg" viewBox="0 0 48 48"><defs/><path d="M8.89,20.92a2.88,2.88,0,0,0,.5,0,2.47,2.47,0,0,0,1.77-.6,1.7,1.7,0,0,0,.48-1.27,1.58,1.58,0,0,0-.55-1.24,2.53,2.53,0,0,0-1.65-.46,8.85,8.85,0,0,0-1.56.12V23h1Zm0-2.7a2.83,2.83,0,0,1,.59,0c.71,0,1.14.33,1.14,1s-.46,1-1.23,1a2.06,2.06,0,0,1-.5,0Z"/><path d="M13.85,20.73h.51c.58,0,.85.25,1,1A7.94,7.94,0,0,0,15.75,23H16.8a11.26,11.26,0,0,1-.44-1.56,1.42,1.42,0,0,0-.78-1.08v0a1.49,1.49,0,0,0,1-1.4,1.41,1.41,0,0,0-.48-1.12,2.59,2.59,0,0,0-1.73-.45,9.7,9.7,0,0,0-1.54.12V23h1Zm0-2.52a2.94,2.94,0,0,1,.63,0c.66,0,1.1.28,1.1.9s-.43.92-1.12.92h-.61Z"/><polygon points="21.27 22.19 18.91 22.19 18.91 20.54 21.02 20.54 21.02 19.71 18.91 19.71 18.91 18.27 21.14 18.27 21.14 17.43 17.89 17.43 17.89 23.02 21.27 23.02 21.27 22.19"/><path d="M23.5,20.92a2.88,2.88,0,0,0,.5,0,2.47,2.47,0,0,0,1.77-.6,1.7,1.7,0,0,0,.48-1.27,1.58,1.58,0,0,0-.55-1.24A2.53,2.53,0,0,0,24,17.39a8.85,8.85,0,0,0-1.56.12V23h1Zm0-2.7a2.83,2.83,0,0,1,.59,0c.71,0,1.14.33,1.14,1s-.46,1-1.23,1a2.06,2.06,0,0,1-.5,0Z"/><path d="M28,21.44h1.78L30.26,23h1.1l-1.82-5.59h-1.3L26.45,23H27.5Zm.6-2.15c.1-.33.18-.72.27-1h0c.08.32.17.71.28,1l.44,1.38H28.15Z"/><rect width="1.02" height="5.59" x="32.46" y="17.43"/><path d="M38.89,22.32a2.9,2.9,0,0,0,.87-2.22A2.5,2.5,0,0,0,38.89,18a3.4,3.4,0,0,0-2.28-.65A10.3,10.3,0,0,0,35,17.5V23a11.15,11.15,0,0,0,1.38.07A3.73,3.73,0,0,0,38.89,22.32ZM36,18.24a3.27,3.27,0,0,1,.7-.06,1.77,1.77,0,0,1,2,1.94,1.92,1.92,0,0,1-2.12,2.14,3.81,3.81,0,0,1-.56,0Z"/><path d="M43.5,7H4.5A4.5,4.5,0,0,0,0,11.5v25A4.5,4.5,0,0,0,4.5,41h39A4.5,4.5,0,0,0,48,36.5v-25A4.5,4.5,0,0,0,43.5,7Zm-39,3h39A1.5,1.5,0,0,1,45,11.5V30H3V11.5A1.5,1.5,0,0,1,4.5,10Zm39,28H4.5A1.5,1.5,0,0,1,3,36.5V32H45v4.5A1.5,1.5,0,0,1,43.5,38Z"/></svg>