<?xml version="1.0" encoding="utf-8"?><svg xmlns="http://www.w3.org/2000/svg" xmlns:xlink="http://www.w3.org/1999/xlink" style="enable-background:new 0 0 16 16" x="0px" y="0px" version="1.1" viewBox="0 0 16 16" xml:space="preserve"><path d="M14.6,14.3c0.4-0.4,0.4-1,0-1.4L9.6,8l4.9-5c0.4-0.4,0.4-1,0-1.4c-0.4-0.4-1-0.4-1.4,0L7.4,7.3	c-0.4,0.4-0.4,1,0,1.4l5.7,5.7C13.6,14.7,14.1,14.7,14.6,14.3z"/><g><path d="M3,13.7c0,0.6-0.5,1-1,1l0,0c-0.5,0-1-0.4-1-1V2.3c0-0.5,0.5-1,1-1l0,0c0.5,0,1,0.5,1,1V13.7z"/></g></svg>