<?xml version="1.0" encoding="utf-8"?><svg xmlns="http://www.w3.org/2000/svg" xmlns:xlink="http://www.w3.org/1999/xlink" style="enable-background:new 0 0 16 16" x="0px" y="0px" version="1.1" viewBox="0 0 16 16" xml:space="preserve"><path d="M13.5,9.1c-0.4-0.4-1-0.4-1.4,0L9.3,12c-1.2,1.2-3.1,1.2-4.2,0c-1.2-1.2-1.2-3.1,0-4.2l3.5-3.5l0.7-0.7	c0.4-0.4,1-0.4,1.4,0s0.4,1,0,1.4L6.5,9.1c-0.4,0.4-0.4,1,0,1.4c0.4,0.4,1,0.4,1.4,0l4.2-4.2c1.2-1.2,1.2-3.1,0-4.2	C11,0.9,9,0.9,7.9,2.1L7.2,2.8L3.6,6.3c-1.9,1.9-1.9,5.1,0,7.1c1.9,1.9,5.1,1.9,7.1,0l2.8-2.8C13.9,10.1,13.9,9.5,13.5,9.1z"/></svg>