<?xml version="1.0" encoding="utf-8"?><svg xmlns="http://www.w3.org/2000/svg" xmlns:xlink="http://www.w3.org/1999/xlink" style="enable-background:new 0 0 16 16" x="0px" y="0px" version="1.1" viewBox="0 0 16 16" xml:space="preserve"><path d="M1.5,1.7c-0.4,0.4-0.4,1,0,1.4L6.4,8l-4.9,5c-0.4,0.4-0.4,1,0,1.4c0.4,0.4,1,0.4,1.4,0l5.7-5.7	c0.4-0.4,0.4-1,0-1.4L2.9,1.6C2.5,1.3,1.9,1.3,1.5,1.7z"/><g><path d="M13,2.3c0-0.5,0.4-1,1-1l0,0c0.6,0,1,0.5,1,1v11.3c0,0.6-0.4,1-1,1l0,0c-0.6,0-1-0.4-1-1V2.3z"/></g></svg>