<svg xmlns="http://www.w3.org/2000/svg" viewBox="0 0 48 48"><defs/><path d="M13.36,48A13.27,13.27,0,0,1,0,34.43a14,14,0,0,1,4.15-9.74L28.49,2.81a9.76,9.76,0,0,1,13.58-.13,9.32,9.32,0,0,1,2.74,6.65,9.85,9.85,0,0,1-2.92,7L16.78,39a5.61,5.61,0,0,1-3.88,1.63A5.44,5.44,0,0,1,9,39a5.59,5.59,0,0,1,.09-7.89L34.16,8.49a1.5,1.5,0,0,1,2,2.23l-25,22.6a2.57,2.57,0,0,0,0,3.59,2.45,2.45,0,0,0,1.78.71,2.69,2.69,0,0,0,1.86-.8L39.83,14.17a6.83,6.83,0,0,0,2-4.83A6.34,6.34,0,0,0,40,4.81a6.75,6.75,0,0,0-9.4.18L6.22,26.87A10.74,10.74,0,0,0,6,42a10.73,10.73,0,0,0,15.16-.27L45.5,19.84a1.5,1.5,0,0,1,2,2.23L23.23,43.9A13.94,13.94,0,0,1,13.36,48Z"/></svg>