<svg xmlns="http://www.w3.org/2000/svg" viewBox="0 0 48 48"><defs/><path d="M17,28H13a1,1,0,0,0-1,1,.92.92,0,0,0,1,.9h4a.92.92,0,0,0,1-.9A1,1,0,0,0,17,28Z"/><path d="M26,28H22a1,1,0,0,0-1,1,.92.92,0,0,0,1,.9h4a.92.92,0,0,0,1-.9A1,1,0,0,0,26,28Z"/><path d="M35,28H31a1,1,0,0,0-1,1,.92.92,0,0,0,1,.9h4a.92.92,0,0,0,1-.9A1,1,0,0,0,35,28Z"/><path d="M17.71,18.29a1,1,0,0,0-1.41,0L15,19.59l-1.29-1.29a1,1,0,0,0-1.41,1.41L13.59,21l-1.29,1.29a1,1,0,1,0,1.41,1.41L15,22.41l1.29,1.29a1,1,0,0,0,1.41-1.41L16.41,21l1.29-1.29A1,1,0,0,0,17.71,18.29Z"/><path d="M26.71,18.29a1,1,0,0,0-1.41,0L24,19.59l-1.29-1.29a1,1,0,0,0-1.41,1.41L22.59,21l-1.29,1.29a1,1,0,1,0,1.41,1.41L24,22.41l1.29,1.29a1,1,0,0,0,1.41-1.41L25.41,21l1.29-1.29A1,1,0,0,0,26.71,18.29Z"/><path d="M41,7.72h0C36,7,29.08,4.41,25.11.44A1.5,1.5,0,0,0,23,.44c-4,4-10.9,6.51-16,7.28a3.47,3.47,0,0,0-3,3.45V28a20,20,0,0,0,40,0V11.17A3.47,3.47,0,0,0,41,7.72ZM41,28A17,17,0,0,1,7,28V11.17a.49.49,0,0,1,.42-.49C12.24,10,19.27,7.67,24,3.54,28.83,7.67,35.8,10,40.58,10.68a.49.49,0,0,1,.42.49Z"/></svg>