<svg xmlns="http://www.w3.org/2000/svg" viewBox="0 0 48 48"><defs/><path d="M36.5,28A1.5,1.5,0,0,0,35,29.5v15a.46.46,0,0,1-.46.46H3.46A.46.46,0,0,1,3,44.54V13.46A.46.46,0,0,1,3.46,13h16a1.5,1.5,0,0,0,0-3h-16A3.46,3.46,0,0,0,0,13.46V44.54A3.46,3.46,0,0,0,3.46,48H34.54A3.46,3.46,0,0,0,38,44.54v-15A1.5,1.5,0,0,0,36.5,28Z"/><path d="M47.89,1v0a1.5,1.5,0,0,0-.82-.82h0A1.49,1.49,0,0,0,46.5,0h-9a1.5,1.5,0,0,0,0,3h5.38L24.44,21.44a1.5,1.5,0,1,0,2.12,2.12L45,5.12V10.5a1.5,1.5,0,0,0,3,0v-9A1.49,1.49,0,0,0,47.89,1Z"/></svg>