<svg xmlns="http://www.w3.org/2000/svg" viewBox="0 0 48 48"><defs/><path d="M44.5,7H3.5A3.5,3.5,0,0,0,0,10.5v27A3.5,3.5,0,0,0,3.5,41h41A3.5,3.5,0,0,0,48,37.5v-27A3.5,3.5,0,0,0,44.5,7ZM45,37.5a.5.5,0,0,1-.5.5H3.5a.5.5,0,0,1-.5-.5v-27a.5.5,0,0,1,.5-.5h41a.5.5,0,0,1,.5.5Z"/><rect width="6" height="2" x="10" y="29"/><rect width="6" height="2" x="21" y="29"/><rect width="6" height="2" x="32" y="29"/><path d="M15.71,19.29a1,1,0,0,0-1.41,0L13,20.59l-1.29-1.29a1,1,0,0,0-1.41,1.41L11.59,22l-1.29,1.29a1,1,0,1,0,1.41,1.41L13,23.41l1.29,1.29a1,1,0,0,0,1.41-1.41L14.41,22l1.29-1.29A1,1,0,0,0,15.71,19.29Z"/><path d="M26.71,19.29a1,1,0,0,0-1.41,0L24,20.59l-1.29-1.29a1,1,0,0,0-1.41,1.41L22.59,22l-1.29,1.29a1,1,0,1,0,1.41,1.41L24,23.41l1.29,1.29a1,1,0,0,0,1.41-1.41L25.41,22l1.29-1.29A1,1,0,0,0,26.71,19.29Z"/></svg>