<svg xmlns="http://www.w3.org/2000/svg" viewBox="0 0 48 48"><defs/><path d="M23.71,17.54a8.5,8.5,0,1,0,8.5,8.5A8.51,8.51,0,0,0,23.71,17.54Zm0,14a5.5,5.5,0,1,1,5.5-5.5A5.51,5.51,0,0,1,23.71,31.54Z"/><path d="M44.54,9H35.28l-1.9-3.28a3.47,3.47,0,0,0-3-1.72H17.51a3.47,3.47,0,0,0-3,1.72L12.62,9H3.46A3.46,3.46,0,0,0,0,12.46V39.54A3.46,3.46,0,0,0,3.46,43H44.54A3.46,3.46,0,0,0,48,39.54V12.46A3.46,3.46,0,0,0,44.54,9ZM45,39.54a.46.46,0,0,1-.46.46H3.46A.46.46,0,0,1,3,39.54V12.46A.46.46,0,0,1,3.46,12h10a1.5,1.5,0,0,0,1.3-.75l2.33-4a.46.46,0,0,1,.4-.23H30.39a.46.46,0,0,1,.4.23l2.33,4a1.5,1.5,0,0,0,1.3.75H44.54a.46.46,0,0,1,.46.46Z"/><circle cx="38" cy="19" r="2"/></svg>