<svg xmlns="http://www.w3.org/2000/svg" viewBox="0 0 48 48"><defs/><path d="M42.5,22H25V17.5A4.5,4.5,0,0,0,20.5,13H19V11.5A5.51,5.51,0,0,0,14,6V1.5a1.5,1.5,0,0,0-3,0V6A5.51,5.51,0,0,0,6,11.5V13H4.5A4.5,4.5,0,0,0,0,17.5v29A1.5,1.5,0,0,0,1.5,48h44A1.5,1.5,0,0,0,47,46.5v-20A4.5,4.5,0,0,0,42.5,22ZM9,11.5A2.5,2.5,0,0,1,11.5,9h2A2.5,2.5,0,0,1,16,11.5V13H9Zm-6,6A1.5,1.5,0,0,1,4.5,16h16A1.5,1.5,0,0,1,22,17.5V45H3ZM44,45H25V25H42.5A1.5,1.5,0,0,1,44,26.5Z"/><path d="M41,27H36a1,1,0,0,0-1,1v5a1,1,0,0,0,1,1h5a1,1,0,0,0,1-1V28A1,1,0,0,0,41,27Zm-1,5H37V29h3Z"/><path d="M41,36H36a1,1,0,0,0-1,1v5a1,1,0,0,0,1,1h5a1,1,0,0,0,1-1V37A1,1,0,0,0,41,36Zm-1,5H37V38h3Z"/><path d="M33,36H28a1,1,0,0,0-1,1v5a1,1,0,0,0,1,1h5a1,1,0,0,0,1-1V37A1,1,0,0,0,33,36Zm-1,5H29V38h3Z"/><path d="M33,27H28a1,1,0,0,0-1,1v5a1,1,0,0,0,1,1h5a1,1,0,0,0,1-1V28A1,1,0,0,0,33,27Zm-1,5H29V29h3Z"/><path d="M19,27H14a1,1,0,0,0-1,1v5a1,1,0,0,0,1,1h5a1,1,0,0,0,1-1V28A1,1,0,0,0,19,27Zm-1,5H15V29h3Z"/><path d="M19,36H14a1,1,0,0,0-1,1v5a1,1,0,0,0,1,1h5a1,1,0,0,0,1-1V37A1,1,0,0,0,19,36Zm-1,5H15V38h3Z"/><path d="M11,36H6a1,1,0,0,0-1,1v5a1,1,0,0,0,1,1h5a1,1,0,0,0,1-1V37A1,1,0,0,0,11,36Zm-1,5H7V38h3Z"/><path d="M11,27H6a1,1,0,0,0-1,1v5a1,1,0,0,0,1,1h5a1,1,0,0,0,1-1V28A1,1,0,0,0,11,27Zm-1,5H7V29h3Z"/><path d="M19,18H14a1,1,0,0,0-1,1v5a1,1,0,0,0,1,1h5a1,1,0,0,0,1-1V19A1,1,0,0,0,19,18Zm-1,5H15V20h3Z"/><path d="M11,18H6a1,1,0,0,0-1,1v5a1,1,0,0,0,1,1h5a1,1,0,0,0,1-1V19A1,1,0,0,0,11,18Zm-1,5H7V20h3Z"/></svg>