<svg xmlns="http://www.w3.org/2000/svg" viewBox="0 0 48 48"><defs/><path d="M13.2,25a9.14,9.14,0,0,0-1.6.12V30.8h1V28.64a2.86,2.86,0,0,0,.51,0A2.53,2.53,0,0,0,15,28.06a1.74,1.74,0,0,0,.49-1.3,1.62,1.62,0,0,0-.56-1.27A2.59,2.59,0,0,0,13.2,25Zm-.05,2.83a2.09,2.09,0,0,1-.51,0V25.88a2.9,2.9,0,0,1,.6-.05c.72,0,1.16.34,1.16,1S13.93,27.86,13.15,27.86Z"/><path d="M19.92,27.07c0,.88,0,1.62.09,2.38h0a15.64,15.64,0,0,0-1-1.92l-1.48-2.46H16.35V30.8h1v-2c0-.94,0-1.7-.05-2.44h0a20,20,0,0,0,1,2l1.5,2.52h1.08V25.07h-1Z"/><path d="M24.66,28.46h1v1.43a2,2,0,0,1-.79.12,1.89,1.89,0,0,1-2-2.07A1.92,1.92,0,0,1,25,25.88a3.09,3.09,0,0,1,1.3.25l.23-.84A3.79,3.79,0,0,0,25,25a2.91,2.91,0,0,0-3.19,3,2.83,2.83,0,0,0,.8,2.11,3.08,3.08,0,0,0,2.24.76,5.68,5.68,0,0,0,1.84-.32v-2.9h-2Z"/><path d="M47.87,11.05a1.56,1.56,0,0,0,0-.35,1.54,1.54,0,0,0-.73-1.31l0,0A3.05,3.05,0,0,0,46.89,9L39.15,1.2a3.51,3.51,0,0,0-.57-.46A1.54,1.54,0,0,0,37.37.15a1.49,1.49,0,0,0-.34,0h-.09l-.32,0H12.57A3.55,3.55,0,0,0,9,3.7V17H3.57A3.55,3.55,0,0,0,0,20.6V35.4A3.55,3.55,0,0,0,3.57,39H9V44.4A3.55,3.55,0,0,0,12.57,48h31.8a3.55,3.55,0,0,0,3.55-3.55V11.52a3,3,0,0,0,0-.42Zm-9-5.68,3.73,3.87H38.92ZM3.37,36a.45.45,0,0,1-.45-.45V20.4A.45.45,0,0,1,3.37,20h32.2a.45.45,0,0,1,.45.45V35.6a.45.45,0,0,1-.45.45ZM45,44.6a.45.45,0,0,1-.45.45H12.37a.45.45,0,0,1-.45-.45V39H35.37a3.55,3.55,0,0,0,3.55-3.55V20.6A3.55,3.55,0,0,0,35.37,17H11.92V3.6c0-.25.2-.65.45-.65H36V10.5A1.47,1.47,0,0,0,37.57,12H45Z"/></svg>