<svg xmlns="http://www.w3.org/2000/svg" viewBox="0 0 48 48"><defs/><path d="M11.71,6.85a1.49,1.49,0,0,0,.84-.26,21.09,21.09,0,0,1,23.07,0,1.5,1.5,0,0,0,1.7-2.47,24.19,24.19,0,0,0-26.46,0,1.5,1.5,0,0,0,.84,2.74Z"/><path d="M43.28,16.79A22.87,22.87,0,0,0,24.18,6C16.36,5.91,9.29,9.85,4.74,16.87A1.5,1.5,0,1,0,7.26,18.5C11.24,12.36,17.13,9,23.87,9h.27a19.84,19.84,0,0,1,16.58,9.36,1.5,1.5,0,1,0,2.56-1.56Z"/><path d="M24,11.7a17.52,17.52,0,0,0-14,7C6.07,24,5.21,31.45,7.63,39.64a1.5,1.5,0,1,0,2.88-.85c-2.74-9.3-.46-15.08,1.94-18.28A14.51,14.51,0,0,1,24,14.7c9.27,0,15,8.17,15,15.74a4,4,0,1,1-8,0s0-.09,0-.14a7.17,7.17,0,0,0-7-7c-3.8,0-6.81,3.12-7,7.26A17.65,17.65,0,0,0,29.5,47.76a1.5,1.5,0,1,0,.93-2.85A14.62,14.62,0,0,1,20,30.68c.12-2.51,1.84-4.41,4-4.41a4.19,4.19,0,0,1,4,4.33s0,.09,0,.14a7,7,0,1,0,14-.31C42,21.43,35.13,11.7,24,11.7Z"/><path d="M14.57,30a10,10,0,0,1,4.61-8.09,8.69,8.69,0,0,1,9-.43,10.49,10.49,0,0,1,5.19,9.29,1.5,1.5,0,0,0,3,0,13.49,13.49,0,0,0-6.74-11.91,11.6,11.6,0,0,0-12.08.51,13,13,0,0,0-6,10.37C11,36.65,14.34,44.18,18,47.45a1.5,1.5,0,0,0,2-2.22C17,42.5,14.05,35.91,14.57,30Z"/><path d="M37,40c-3.58.45-6.43-.17-8.25-1.81a11.06,11.06,0,0,1-3.22-7.77,1.5,1.5,0,0,0-1.46-1.54h0a1.5,1.5,0,0,0-1.5,1.46,14,14,0,0,0,4.22,10.09,11.81,11.81,0,0,0,8.09,2.72A20.31,20.31,0,0,0,37.37,43,1.5,1.5,0,0,0,37,40Z"/></svg>