<svg xmlns="http://www.w3.org/2000/svg" viewBox="0 0 48 48"><defs/><path d="M46.5,43h-27a1.5,1.5,0,0,1,0-3h27a1.5,1.5,0,0,1,0,3Z"/><path d="M11.5,43H1.5a1.5,1.5,0,0,1,0-3h10a1.5,1.5,0,0,1,0,3Z"/><path d="M15.5,47A5.5,5.5,0,1,1,21,41.5,5.51,5.51,0,0,1,15.5,47Zm0-8A2.5,2.5,0,1,0,18,41.5,2.5,2.5,0,0,0,15.5,39Z"/><path d="M46.5,25h-8a1.5,1.5,0,0,1,0-3h8a1.5,1.5,0,0,1,0,3Z"/><path d="M30.5,25H1.5a1.5,1.5,0,0,1,0-3h29a1.5,1.5,0,0,1,0,3Z"/><path d="M34.5,29A5.5,5.5,0,1,1,40,23.5,5.51,5.51,0,0,1,34.5,29Zm0-8A2.5,2.5,0,1,0,37,23.5,2.5,2.5,0,0,0,34.5,21Z"/><path d="M46.5,7h-27a1.5,1.5,0,0,1,0-3h27a1.5,1.5,0,0,1,0,3Z"/><path d="M11.5,7H1.5a1.5,1.5,0,0,1,0-3h10a1.5,1.5,0,0,1,0,3Z"/><path d="M15.5,11A5.5,5.5,0,1,1,21,5.5,5.51,5.51,0,0,1,15.5,11Zm0-8A2.5,2.5,0,1,0,18,5.5,2.5,2.5,0,0,0,15.5,3Z"/></svg>