<svg xmlns="http://www.w3.org/2000/svg" viewBox="0 0 48 48"><defs/><path d="M44.5,16h-10a1.5,1.5,0,0,0,0,3h10a.5.5,0,0,1,.5.5v25a.5.5,0,0,1-.5.5H3.5a.5.5,0,0,1-.5-.5v-25a.5.5,0,0,1,.5-.5h10a1.5,1.5,0,0,0,0-3H3.5A3.5,3.5,0,0,0,0,19.5v25A3.5,3.5,0,0,0,3.5,48h41A3.5,3.5,0,0,0,48,44.5v-25A3.5,3.5,0,0,0,44.5,16Z"/><path d="M22.79,18.71a1,1,0,0,0,.71.29h1a1,1,0,0,0,.71-.29l6-6a1,1,0,0,0-1.41-1.41L25,16.09V.1H23v16l-4.79-4.79a1,1,0,0,0-1.41,1.41Z"/><path d="M18,32a6,6,0,1,0,6-6A6,6,0,0,0,18,32Zm10,0a4,4,0,1,1-4-4A4,4,0,0,1,28,32Z"/></svg>