<svg xmlns="http://www.w3.org/2000/svg" viewBox="0 0 48 48"><defs/><rect width="11.9" height="2" x="6" y="25"/><rect width="6.9" height="2" x="21" y="25"/><rect width="6.9" height="2" x="6" y="31"/><rect width="11.9" height="2" x="16" y="31"/><rect width="13.9" height="2" x="28" y="13"/><path d="M44.54,7H3.46A3.46,3.46,0,0,0,0,10.46V37.54A3.46,3.46,0,0,0,3.46,41H44.54A3.46,3.46,0,0,0,48,37.54V10.46A3.46,3.46,0,0,0,44.54,7ZM45,37.54a.46.46,0,0,1-.46.46H3.36a.46.46,0,0,1-.46-.46V10.46A.46.46,0,0,1,3.36,10H44.54a.46.46,0,0,1,.46.46Z"/><path d="M41,25a1,1,0,0,0,0-2H37.9V22a1,1,0,0,0-1-1,.92.92,0,0,0-.9,1v1H35a3,3,0,0,0,0,6h1v2H33a1,1,0,0,0,0,2h3v1a.92.92,0,0,0,.9,1,1,1,0,0,0,1-1V33H39a3,3,0,0,0,0-6H37.9V25Zm-2,4a1,1,0,0,1,0,2H37.9V29Zm-3-2H35a1,1,0,0,1,0-2h1Z"/></svg>