<svg xmlns="http://www.w3.org/2000/svg" viewBox="0 0 48 48"><defs/><path d="M44.48,0H27a3.5,3.5,0,0,0-2.49,1L1,24.48a3.51,3.51,0,0,0,0,5L18.59,47a3.53,3.53,0,0,0,5,0L47,23.52A3.49,3.49,0,0,0,48,21V3.52A3.52,3.52,0,0,0,44.48,0Zm.62,21a.51.51,0,0,1-.15.37L21.45,44.85a.52.52,0,0,1-.73,0L3.16,27.33a.52.52,0,0,1,0-.73L26.66,3.05A.52.52,0,0,1,27,2.9H44.58a.52.52,0,0,1,.52.52Z"/><path d="M33.34,9a6,6,0,1,0,6,6A6,6,0,0,0,33.34,9Zm0,10a4,4,0,1,1,4-4A4,4,0,0,1,33.34,19Z"/><polygon points="12.61 26 22.05 35.41 23.46 34 14.03 24.59 12.61 26"/><polygon points="16.62 22 26.05 31.41 27.47 30 18.04 20.59 16.62 22"/></svg>