<svg xmlns="http://www.w3.org/2000/svg" viewBox="0 0 48 48"><defs/><path d="M29.74.44a1.5,1.5,0,0,0-2.12,2.12,30.32,30.32,0,0,1,0,42.88,1.5,1.5,0,1,0,2.12,2.12,33.32,33.32,0,0,0,0-47.12Z"/><path d="M23.51,6.87A1.5,1.5,0,0,0,21.39,9a21.23,21.23,0,0,1,0,30,1.5,1.5,0,1,0,2.12,2.12,24.23,24.23,0,0,0,0-34.26Z"/><path d="M17.29,13.3a1.5,1.5,0,0,0-2.12,2.12,12.14,12.14,0,0,1,0,17.17,1.5,1.5,0,1,0,2.12,2.12,15.14,15.14,0,0,0,0-21.41Z"/><path d="M8.94,19.73a1.5,1.5,0,0,0,0,2.12,3,3,0,0,1,0,4.31,1.5,1.5,0,1,0,2.12,2.12,6,6,0,0,0,0-8.55A1.5,1.5,0,0,0,8.94,19.73Z"/></svg>