<svg xmlns="http://www.w3.org/2000/svg" viewBox="0 0 48 48"><defs/><path d="M44.5,5H34V1.5a1.5,1.5,0,0,0-3,0V5H16V1.5a1.5,1.5,0,0,0-3,0V5H3.5A3.5,3.5,0,0,0,0,8.5v36A3.5,3.5,0,0,0,3.5,48h41A3.5,3.5,0,0,0,48,44.5V8.5A3.5,3.5,0,0,0,44.5,5ZM3.5,8H13v2.5a1.5,1.5,0,0,0,3,0V8H31v2.5a1.5,1.5,0,0,0,3,0V8H44.5a.5.5,0,0,1,.5.5V14H3V8.5A.5.5,0,0,1,3.5,8Zm41,37H3.5a.5.5,0,0,1-.5-.5V17H45V44.5A.5.5,0,0,1,44.5,45Z"/><path d="M15.38,21.08A1,1,0,0,0,15,21H9a1,1,0,0,0-1,1v6a1,1,0,0,0,1,1h6a1,1,0,0,0,1-1V22a1,1,0,0,0-.62-.92ZM12.59,23,10,25.59V23Zm-1.17,4L14,24.41V27Z"/><path d="M27,21H21a1,1,0,0,0-1,1v6a1,1,0,0,0,1,1h6a1,1,0,0,0,1-1V22A1,1,0,0,0,27,21Zm-1,6H22V23h4Z"/><path d="M38,21H32a1,1,0,0,0-1,1v6a1,1,0,0,0,1,1h6a1,1,0,0,0,1-1V22A1,1,0,0,0,38,21Zm-1,6H33V23h4Z"/><path d="M38,33H32a1,1,0,0,0-1,1v6a1,1,0,0,0,1,1h6a1,1,0,0,0,1-1V34A1,1,0,0,0,38,33Zm-1,6H33V35h4Z"/><path d="M27.38,33.08A1,1,0,0,0,27,33H21a1,1,0,0,0-1,1v6a1,1,0,0,0,1,1h6a1,1,0,0,0,1-1V34a1,1,0,0,0-.62-.92ZM24.59,35,22,37.59V35Zm-1.17,4L26,36.41V39Z"/><path d="M15,33H9a1,1,0,0,0-1,1v6a1,1,0,0,0,1,1h6a1,1,0,0,0,1-1V34A1,1,0,0,0,15,33Zm-1,6H10V35h4Z"/></svg>