<svg xmlns="http://www.w3.org/2000/svg" viewBox="0 0 48 48"><defs/><path d="M46.9,9.59A3.49,3.49,0,0,0,44,8H11.52L7.34.75A1.5,1.5,0,0,0,6,0H2A1.5,1.5,0,0,0,2,3H5.17L19.74,28.25A1.5,1.5,0,0,0,21,29H39a1.5,1.5,0,0,0,1.37-.89l6.75-15.19A3.49,3.49,0,0,0,46.9,9.59ZM44.42,11.7,38.06,26H21.9L13.25,11H44a.5.5,0,0,1,.46.7Z"/><path d="M21,33a7.5,7.5,0,1,0,7.5,7.5A7.42,7.42,0,0,0,21,33Zm0,12a4.5,4.5,0,1,1,4.5-4.5A4.4,4.4,0,0,1,21,45Z"/><path d="M39,33a7.5,7.5,0,1,0,7.5,7.5A7.42,7.42,0,0,0,39,33Zm0,12a4.5,4.5,0,1,1,4.5-4.5A4.4,4.4,0,0,1,39,45Z"/></svg>