<svg xmlns="http://www.w3.org/2000/svg" viewBox="0 0 48 48"><defs/><path d="M20,32h8a2,2,0,0,0,2-2V24a2,2,0,0,0-2-2V21a4,4,0,0,0-8,0v1a2,2,0,0,0-2,2v6A2,2,0,0,0,20,32Zm2-11a2,2,0,0,1,4,0v1H22Zm-2,3h8v6H20Z"/><path d="M34.5,0h-21A4.5,4.5,0,0,0,9,4.5v39A4.5,4.5,0,0,0,13.5,48h21A4.5,4.5,0,0,0,39,43.5V4.5A4.5,4.5,0,0,0,34.5,0ZM36,43.5A1.5,1.5,0,0,1,34.5,45h-21A1.5,1.5,0,0,1,12,43.5V39H36ZM36,37H12V11H36ZM36,9H12V4.5A1.5,1.5,0,0,1,13.5,3h21A1.5,1.5,0,0,1,36,4.5Z"/><rect width="8" height="2" x="23" y="5"/><circle cx="18.57" cy="5.89" r="1"/><circle cx="24" cy="42" r="1.5"/></svg>