<svg xmlns="http://www.w3.org/2000/svg" viewBox="0 0 48 48"><defs/><path d="M24,45.5a4.37,4.37,0,0,1-3.22-1.42L3.7,25.69A14.23,14.23,0,0,1,3.87,6.34,12.09,12.09,0,0,1,12.64,2.6h.12a13,13,0,0,1,9.35,4.21L24,8.89l2.21-2.37a12.3,12.3,0,0,1,9.07-4h.11a12.32,12.32,0,0,1,9.13,4.21C49.29,12,49.1,20.63,44.12,26L27.27,44.08h0A4.37,4.37,0,0,1,24,45.5Zm2.12-2.44h0ZM12.64,5.6A9.12,9.12,0,0,0,6,8.43,11.19,11.19,0,0,0,5.9,23.64L23,42a1.39,1.39,0,0,0,2,0L41.93,23.93a11.51,11.51,0,0,0,.39-15.22A9.36,9.36,0,0,0,35.4,5.5h-.08a9.33,9.33,0,0,0-6.87,3.07l-3.3,3.55a1.5,1.5,0,0,1-1.1.48h0a1.5,1.5,0,0,1-1.1-.48l-3-3.26A10,10,0,0,0,12.72,5.6Z"/></svg>