<svg xmlns="http://www.w3.org/2000/svg" viewBox="0 0 48 48"><defs/><path d="M47.95,11a1.56,1.56,0,0,0,0-.35,1.54,1.54,0,0,0-.73-1.31l0,0A3.05,3.05,0,0,0,47,8.92L39.22,1.1a3.51,3.51,0,0,0-.57-.46A1.54,1.54,0,0,0,37.44.05a1.49,1.49,0,0,0-.34,0H37l-.32,0H12.64A3.55,3.55,0,0,0,9.09,3.6V17.05H3.64A3.55,3.55,0,0,0,.09,20.6V35.4A3.55,3.55,0,0,0,3.64,39H9.09V44.4A3.55,3.55,0,0,0,12.64,48h31.8A3.55,3.55,0,0,0,48,44.4v-33A3,3,0,0,0,48,11ZM39,5.28l3.73,3.87H39ZM3.44,36.05A.45.45,0,0,1,3,35.6V20.4A.45.45,0,0,1,3.44,20h32.2a.45.45,0,0,1,.45.45V35.6a.45.45,0,0,1-.45.45ZM45.09,44.6a.45.45,0,0,1-.45.45H12.44A.45.45,0,0,1,12,44.6V39H35.44A3.55,3.55,0,0,0,39,35.4V20.6a3.55,3.55,0,0,0-3.55-3.55H12V3.5c0-.25.2-.55.45-.55H36.09V10.4A1.55,1.55,0,0,0,37.64,12h7.45Z"/><path d="M13.87,28.75c0,1-.37,1.27-1,1.27a2.29,2.29,0,0,1-.65-.1l-.13.84a2.75,2.75,0,0,0,.88.14c1.14,0,1.9-.53,1.9-2.11V25.07h-1Z"/><path d="M17.66,25a9.14,9.14,0,0,0-1.6.12V30.8h1V28.64a2.86,2.86,0,0,0,.51,0,2.53,2.53,0,0,0,1.81-.61,1.74,1.74,0,0,0,.49-1.3,1.62,1.62,0,0,0-.56-1.27A2.59,2.59,0,0,0,17.66,25Zm-.05,2.83a2.1,2.1,0,0,1-.51,0V25.88a2.9,2.9,0,0,1,.6-.05c.72,0,1.16.34,1.16,1S18.39,27.86,17.61,27.86Z"/><path d="M23.38,28.46h1v1.43a2,2,0,0,1-.79.12,1.89,1.89,0,0,1-2-2.07,1.92,1.92,0,0,1,2.08-2.06,3.09,3.09,0,0,1,1.3.25l.23-.84A3.79,3.79,0,0,0,23.71,25a2.91,2.91,0,0,0-3.19,3,2.84,2.84,0,0,0,.8,2.11,3.09,3.09,0,0,0,2.24.76,5.68,5.68,0,0,0,1.84-.32v-2.9h-2Z"/></svg>