<svg xmlns="http://www.w3.org/2000/svg" viewBox="0 0 48 48"><defs/><path d="M24,35A11,11,0,1,1,35,24,11,11,0,0,1,24,35Zm0-20a9,9,0,1,0,9,9A9,9,0,0,0,24,15Z"/><path d="M29.88,48a2.53,2.53,0,0,1-2.11-1.12l-1-1.49A3.38,3.38,0,0,0,24,43.88h0a3.38,3.38,0,0,0-2.81,1.5l-1,1.48a2.53,2.53,0,0,1-3.07.92L12,45.67a2.54,2.54,0,0,1-1.51-2.83l.35-1.75a3.39,3.39,0,0,0-4-4l-1.75.34a2.53,2.53,0,0,1-2.82-1.52L.19,30.83a2.53,2.53,0,0,1,.94-3.07l1.49-1a3.39,3.39,0,0,0,0-5.63l-1.48-1a2.54,2.54,0,0,1-.92-3.07L2.33,12a2.53,2.53,0,0,1,2.83-1.51l1.75.35a3.39,3.39,0,0,0,4-4l-.34-1.75a2.53,2.53,0,0,1,1.52-2.82L17.17.19a2.54,2.54,0,0,1,3.07.93l1,1.49A3.38,3.38,0,0,0,24,4.12h0a3.38,3.38,0,0,0,2.81-1.5l1-1.48A2.53,2.53,0,0,1,30.92.21L36,2.33a2.54,2.54,0,0,1,1.51,2.83l-.35,1.75a3.39,3.39,0,0,0,4,4l1.75-.34a2.54,2.54,0,0,1,2.82,1.52l2.1,5.09a2.54,2.54,0,0,1-.93,3.07l-1.49,1a3.39,3.39,0,0,0,0,5.63l1.48,1a2.53,2.53,0,0,1,.92,3.07L45.67,36a2.54,2.54,0,0,1-2.83,1.51l-1.75-.35a3.39,3.39,0,0,0-4,4l.34,1.75a2.53,2.53,0,0,1-1.52,2.82l-5.09,2.1A2.52,2.52,0,0,1,29.88,48ZM24,40.88h0a6.38,6.38,0,0,1,5.3,2.84l.78,1.17,4.37-1.8-.27-1.37a6.39,6.39,0,0,1,7.52-7.49l1.37.27,1.82-4.37-1.16-.78a6.39,6.39,0,0,1,0-10.62l1.17-.78-1.8-4.37-1.37.27a6.39,6.39,0,0,1-7.49-7.52L34.49,5,30.12,3.13l-.78,1.16A6.36,6.36,0,0,1,24,7.12a6.38,6.38,0,0,1-5.3-2.84L18,3.11l-4.38,1.8.27,1.37h0a6.39,6.39,0,0,1-7.52,7.49L5,13.51,3.13,17.88l1.16.78a6.39,6.39,0,0,1,0,10.62l-1.16.78,1.8,4.37,1.37-.27a6.39,6.39,0,0,1,7.49,7.52L13.51,43l4.37,1.82.78-1.16A6.38,6.38,0,0,1,24,40.88Z"/></svg>