<svg xmlns="http://www.w3.org/2000/svg" viewBox="0 0 48 48"><defs/><path d="M39.5,0H8.5A4.5,4.5,0,0,0,4,4.5v39A4.5,4.5,0,0,0,8.5,48h31a4.42,4.42,0,0,0,4.4-4.5V4.5A4.42,4.42,0,0,0,39.5,0ZM41,43.5A1.5,1.5,0,0,1,39.5,45H8.4a1.5,1.5,0,0,1-1.5-1.5V4.5A1.5,1.5,0,0,1,8.4,3H39.5A1.5,1.5,0,0,1,41,4.5Z"/><path d="M20.21,33.79a1,1,0,0,0-1.41,0L17,35.59l-1.79-1.79a1,1,0,0,0-1.41,1.41L15.59,37l-1.79,1.79a1,1,0,1,0,1.41,1.41L17,38.41l1.79,1.79a1,1,0,0,0,1.41-1.41L18.42,37l1.79-1.79A1,1,0,0,0,20.21,33.79Z"/><path d="M33.9,24H28a1,1,0,1,0,0,2h5.9a1,1,0,0,0,0-2Z"/><path d="M19.9,24h-2V22a1,1,0,0,0-1-1,.92.92,0,0,0-.9,1v2H14a1,1,0,1,0,0,2h2v2a.92.92,0,0,0,.9,1,1,1,0,0,0,1-1V26h2a1,1,0,0,0,0-2Z"/><path d="M35.4,6H12.5A2.5,2.5,0,0,0,10,8.5v6A2.5,2.5,0,0,0,12.5,17H35.4a2.5,2.5,0,0,0,2.5-2.5v-6A2.5,2.5,0,0,0,35.4,6ZM35,14H12.9V9H35Z"/><path d="M33.9,38H28a1,1,0,1,0,0,2h5.9a1,1,0,0,0,0-2Z"/><path d="M33.9,33H28a1,1,0,1,0,0,2h5.9a1,1,0,0,0,0-2Z"/></svg>