<svg xmlns="http://www.w3.org/2000/svg" viewBox="0 0 48 48"><defs/><path d="M23.5-.25C12.57-.25,4,4.36,4,10.25V37.73c0,5.71,7.93,9.86,18.93,10h.57c11.3,0,19.5-4.21,19.5-10a1.49,1.49,0,0,0,0-.24,1.49,1.49,0,0,0,0-.24v-27C43,4.36,34.43-.25,23.5-.25ZM40,28.25c0,3.7-7.21,7.84-16.87,7.84A28.41,28.41,0,0,1,15,35V29a32.8,32.8,0,0,0,8.13,1c7.12,0,13.36-2,16.87-5.07ZM24,39.07a34.1,34.1,0,0,0,7-.87V44a35.22,35.22,0,0,1-7,.76ZM23.13,27C13.48,27,7,23,7,19.25V16.13c3.4,3.06,9.35,5.1,16.13,5.1A33,33,0,0,0,31,20.3V26A31.28,31.28,0,0,1,23.13,27ZM7,25.06a17.92,17.92,0,0,0,6,3.3v5.89c-3.75-1.55-6-3.84-6-6Zm33-5.81c0,2.22-2.7,4.6-7,6.12V19.72a19.82,19.82,0,0,0,7-3.78ZM23.5,2.75c7.8,0,16.5,3.08,16.5,7.5,0,3.69-7.37,8-16.87,8S7,14,7,10.25C7,5.83,15.7,2.75,23.5,2.75ZM7,37.73V34.14c3.18,2.83,8.62,4.72,15,4.92v5.66C13.6,44.39,7,41.39,7,37.73Zm26,5.73V37.65A19.48,19.48,0,0,0,40,34v3.3a1.49,1.49,0,0,0,0,.24,1.49,1.49,0,0,0,0,.24C40,40.1,37.23,42.19,33,43.46Z"/><path d="M19.78,10.9a2.14,2.14,0,0,1,.55,1.68L20,14.74c-.07.39.08.62.36.62a.79.79,0,0,0,.36-.1l1.94-1a2.14,2.14,0,0,1,1.77,0l1.94,1a.79.79,0,0,0,.36.1c.27,0,.42-.23.36-.62l-.37-2.16a2.14,2.14,0,0,1,.55-1.68l1.57-1.53c.39-.38.27-.76-.27-.84l-2.17-.31a2.14,2.14,0,0,1-1.43-1l-1-2c-.12-.25-.28-.37-.44-.37s-.32.12-.44.37l-1,2a2.14,2.14,0,0,1-1.43,1l-2.17.31c-.54.08-.67.46-.27.84ZM23.5,8.66A4.28,4.28,0,0,0,25.36,10a4.28,4.28,0,0,0-.71,2.19,4.3,4.3,0,0,0-2.3,0A4.28,4.28,0,0,0,21.64,10,4.28,4.28,0,0,0,23.5,8.66Z"/></svg>