<svg xmlns="http://www.w3.org/2000/svg" viewBox="0 0 48 48"><defs/><path d="M30,19.15a2,2,0,0,0-1.2-1.2l-13.1-4.76a2,2,0,0,0-2.56,2.56L18,28.85a2,2,0,0,0,1.2,1.2h0l13.1,4.76a2,2,0,0,0,.69.12,2,2,0,0,0,1.87-2.69Zm-10.22,9-.34.94.34-.94-4.76-13.1,13.1,4.77,4.76,13.1Z"/><path d="M24,20a4,4,0,1,0,4,4A4,4,0,0,0,24,20Zm0,6a2,2,0,1,1,2-2A2,2,0,0,1,24,26Z"/><path d="M24,0A24,24,0,1,0,48,24,24,24,0,0,0,24,0ZM25,45V41a1,1,0,0,0-2,0V45A21,21,0,0,1,3.05,25H7a1,1,0,0,0,0-2H3.05A21,21,0,0,1,23,3.05V7a1,1,0,0,0,2,0V3.05A21,21,0,0,1,44.95,23H41a1,1,0,0,0,0,2h3.95A21,21,0,0,1,25,45Z"/></svg>