<svg xmlns="http://www.w3.org/2000/svg" viewBox="0 0 48 48"><defs/><path d="M44.5,5H11.74A3.39,3.39,0,0,0,8.61,6.83L.16,23.73a1.5,1.5,0,0,0,0,1.34L8.61,42a3.48,3.48,0,0,0,3.13,1.94H44.5A3.5,3.5,0,0,0,48,40.4V8.4A3.42,3.42,0,0,0,44.5,5ZM45,40.5a.5.5,0,0,1-.5.5H11.74a.5.5,0,0,1-.45-.28L3.18,24.4,11.29,8.18a.5.5,0,0,1,.45-.28H44.5a.5.5,0,0,1,.5.5Z"/><path d="M36.71,15.19a1,1,0,0,0-1.41,0L27.5,23l-7.79-7.79a1,1,0,0,0-1.41,1.41l7.79,7.79-7.79,7.79a1,1,0,1,0,1.41,1.41l7.79-7.79,7.79,7.79a1,1,0,0,0,1.41-1.41L28.91,24.4l7.79-7.79A1,1,0,0,0,36.71,15.19Z"/></svg>