<svg xmlns="http://www.w3.org/2000/svg" viewBox="0 0 48 48"><defs/><path d="M44.5,9H39.7a6,6,0,0,0-9.43-7.25h0L23.65,8.38,17,1.76h0A6,6,0,0,0,7.6,9H3.5A3.5,3.5,0,0,0,0,12.5v5A3.5,3.5,0,0,0,3.5,21H4V44.5A3.5,3.5,0,0,0,7.5,48h32A3.5,3.5,0,0,0,43,44.5V21h1.5A3.5,3.5,0,0,0,48,17.5v-5A3.5,3.5,0,0,0,44.5,9Zm-7-3a3,3,0,0,1-3,3H27.27l5.12-5.12h0A3,3,0,0,1,37.52,6ZM9.79,6a3,3,0,0,1,5.12-2.12h0L20,9H12.79A3,3,0,0,1,9.79,6ZM3,17.5v-5a.5.5,0,0,1,.5-.5H22v6H3.5A.5.5,0,0,1,3,17.5Zm4,27V21H22V45H7.5A.5.5,0,0,1,7,44.5Zm33,0a.5.5,0,0,1-.5.5H25V21H40Zm5-27a.5.5,0,0,1-.5.5H25V12H44.5a.5.5,0,0,1,.5.5Z"/></svg>