<svg xmlns="http://www.w3.org/2000/svg" viewBox="0 0 48 48"><defs/><path d="M40.84,7.91A27.52,27.52,0,0,1,25.56.44,1.5,1.5,0,0,0,24.5,0h-1a1.5,1.5,0,0,0-1.06.44A27.53,27.53,0,0,1,7.16,7.91,3.51,3.51,0,0,0,4,11.39V28a20,20,0,0,0,40,0V11.39A3.51,3.51,0,0,0,40.84,7.91ZM41,28A17,17,0,0,1,7,28V11.39a.51.51,0,0,1,.48-.5A30.82,30.82,0,0,0,24,3.1a30.82,30.82,0,0,0,16.52,7.79.51.51,0,0,1,.48.5Z"/><path d="M31.29,19.29,22,28.59l-4.29-4.29a1,1,0,0,0-1.41,1.41l5,5a1,1,0,0,0,1.41,0l10-10a1,1,0,0,0-1.41-1.41Z"/></svg>