<svg xmlns="http://www.w3.org/2000/svg" viewBox="0 0 48 48"><defs/><path d="M46.5,43.9H1.5A1.42,1.42,0,0,1,0,42.5,1.5,1.5,0,0,1,1.5,41h45A1.5,1.5,0,0,1,48,42.5,1.42,1.42,0,0,1,46.5,43.9Z"/><path d="M6,37a1,1,0,0,1-.71-.29l-4-4A1,1,0,0,1,2.71,31.3l4,4A1,1,0,0,1,6,37Z"/><path d="M2,37a1,1,0,0,1-.71-1.71l4-4a1,1,0,0,1,1.41,1.41l-4,4A1,1,0,0,1,2,37Z"/><path d="M27.19,36.5a11.68,11.68,0,0,1-3-.37,8.25,8.25,0,0,1-4.49-2.7,8.08,8.08,0,0,1-1.55-3.88,72.33,72.33,0,0,1-6,6.45,1,1,0,1,1-1.37-1.45,71.55,71.55,0,0,0,7.22-8,50.2,50.2,0,0,1,2.69-16c.28-.83,1.38-3.64,3.53-4.69A3.46,3.46,0,0,1,27,5.7a4.31,4.31,0,0,1,2.61,4.25,10,10,0,0,1-1.35,4.29,84,84,0,0,1-8.18,13,8.2,8.2,0,0,0,1.29,4.94,6.43,6.43,0,0,0,3.42,2,11.32,11.32,0,0,0,10.5-3c-1-2.25-1.11-5.25-.14-7.09a3,3,0,0,1,3.13-1.69,2.1,2.1,0,0,1,1.58,1.07c.82,1.47.09,4-.47,5.27a12,12,0,0,1-1.66,2.7l.15.18c2.55,2.79,6.73,2.08,8.41,1.65a1,1,0,1,1,.5,1.94c-4.3,1.11-8.08.3-10.39-2.24l-.06-.07A13.78,13.78,0,0,1,27.19,36.5ZM37.77,24.37c-.3,0-.62.12-.9.65a6.68,6.68,0,0,0-.14,4.35,10,10,0,0,0,.78-1.43c.59-1.33.85-3,.55-3.49,0,0,0-.06-.11-.07ZM25.81,7.5a1.55,1.55,0,0,0-.68.17,6.26,6.26,0,0,0-2.52,3.54,48.16,48.16,0,0,0-2.48,12.55,82.72,82.72,0,0,0,6.31-10.43A8.25,8.25,0,0,0,27.56,9.9a2.4,2.4,0,0,0-1.27-2.32A1.47,1.47,0,0,0,25.81,7.5Z"/></svg>