<svg xmlns="http://www.w3.org/2000/svg" viewBox="0 0 48 48"><defs/><path d="M44.5,16h-4a1.5,1.5,0,0,0,0,3h4a.5.5,0,0,1,.5.5v25a.5.5,0,0,1-.5.5H3.5a.5.5,0,0,1-.5-.5v-25a.5.5,0,0,1,.5-.5h4a1.5,1.5,0,0,0,0-3h-4A3.5,3.5,0,0,0,0,19.5v25A3.5,3.5,0,0,0,3.5,48h41A3.5,3.5,0,0,0,48,44.5v-25A3.5,3.5,0,0,0,44.5,16Z"/><path d="M14.5,13a1.5,1.5,0,0,0,1.06-.44L23,5.12V31.5a1.5,1.5,0,0,0,3,0V5.12l7.44,7.44a1.5,1.5,0,1,0,2.12-2.12l-10-10a1.5,1.5,0,0,0-.49-.33h0A1.46,1.46,0,0,0,24,.11h0a1.5,1.5,0,0,0-.49.33l-10,10A1.5,1.5,0,0,0,14.5,13Z"/></svg>