<svg xmlns="http://www.w3.org/2000/svg" viewBox="0 0 48 48"><defs/><path d="M47.33,20.61a1.93,1.93,0,0,0-1.1-3.4l-13.9-2A.81.81,0,0,1,32,15L25.79,2.36a1.93,1.93,0,0,0-3.58,0L16,15a.81.81,0,0,1-.31.23l-13.91,2a2,2,0,0,0-1.7,1.33,2,2,0,0,0,.59,2.07l10.06,9.8a.81.81,0,0,1,.13.37L8.48,44.64a2,2,0,0,0,.74,2,1.84,1.84,0,0,0,1.09.35,2.29,2.29,0,0,0,1.06-.27L23.8,40.2a.8.8,0,0,1,.39,0l12.45,6.54a1.93,1.93,0,0,0,2.89-2.1L37.15,30.79a.81.81,0,0,1,.11-.37ZM24.9,3.69h0ZM35.17,28.27a3.65,3.65,0,0,0-1,3l2,11.85L25.58,37.54a3.64,3.64,0,0,0-3.17,0L11.78,43.13l2-11.85a3.65,3.65,0,0,0-1-3L4.22,19.88l11.9-1.73a3.65,3.65,0,0,0,2.56-1.86L24,5.52l5.32,10.78a3.65,3.65,0,0,0,2.56,1.86l11.9,1.73Z"/></svg>