<svg xmlns="http://www.w3.org/2000/svg" viewBox="0 0 48 48"><defs/><path d="M43.5,7.09H4.5A4.5,4.5,0,0,0,0,11.59v24.9A4.5,4.5,0,0,0,4.5,41h39a4.5,4.5,0,0,0,4.5-4.5V11.59A4.5,4.5,0,0,0,43.5,7.09ZM45,36.59a1.5,1.5,0,0,1-1.5,1.5H4.5A1.5,1.5,0,0,1,3,36.59V11.49A1.5,1.5,0,0,1,4.5,10h39a1.5,1.5,0,0,1,1.5,1.5Z"/><polygon points="20.18 19.18 18.65 28.79 21.09 28.79 22.61 19.18 20.18 19.18"/><path d="M16.61,19.18l-2.32,6.61L14,24.36h0L13.19,20A1.05,1.05,0,0,0,12,19.18H8.19l0,.16.06,0h.05l.14,0,.11,0,.21.07.14,0,.37.14.13.06.41.18.2.1.35.19.23.13.14.09,2.11,8.34h2.54l3.88-9.61Z"/><path d="M34.09,19.18a1.12,1.12,0,0,0-1.12.72l-3.63,8.9h2.54l.51-1.43h3.1l.29,1.43H38l-2-9.61Zm-1,6.21,1.28-3.6.72,3.6Z"/><path d="M26.11,21.85c0-1.09,2.37-.95,3.41-.36l.35-2.06A6.87,6.87,0,0,0,27.68,19c-1.21,0-4.08.54-4.08,3.18C23.6,24.67,27,24.7,27,26s-3,1.07-4,.25l-.36,2.16a6.67,6.67,0,0,0,2.75.54c1.66,0,4.17-.88,4.17-3.29S26.11,22.93,26.11,21.85Z"/></svg>