<svg xmlns="http://www.w3.org/2000/svg" viewBox="0 0 48 48"><defs/><path d="M47.44,9.33,36.85.86A1.5,1.5,0,0,0,35.5,0l-.15,0a1.48,1.48,0,0,0-1,.31L24,8.59,13.42.32l0,0A1.49,1.49,0,0,0,13,.09l-.08,0A1.48,1.48,0,0,0,12.5,0h0A1.48,1.48,0,0,0,12,.08L12,.1a1.49,1.49,0,0,0-.39.22l0,0-11,9A1.5,1.5,0,0,0,0,10.5V46.39a1.5,1.5,0,0,0,2.44,1.17l10.07-8.14,10.55,8.26h0a1.48,1.48,0,0,0,.38.2l.11,0A1.5,1.5,0,0,0,24,48h0a1.5,1.5,0,0,0,.42-.07l.11,0a1.48,1.48,0,0,0,.38-.2h0l10.54-8.25,10.07,8.24A1.5,1.5,0,0,0,48,46.5v-36A1.5,1.5,0,0,0,47.44,9.33ZM34,36.77l-9,7V24.41l9-9,0,0ZM14,23.41l2-2,5.29,5.29A1,1,0,0,0,22,27V43l-8-6.26ZM14,4.58l8,6.26V24.59l-5.29-5.29a1,1,0,0,0-1.41,0L14,20.59ZM34,13a1,1,0,0,0-.71.29L25,21.59v-10l9-7.2ZM11,4.67V23.59l-8,8V11.21ZM3,34.41l8-8V36.78L3,43.25Zm42,8.92-8-6.55v-18l2.73,3-1.43,1.43a1,1,0,1,0,1.41,1.41l1.36-1.36,1.19,1.32a1,1,0,1,0,1.49-1.34l-1.26-1.4,1.22-1.22a1,1,0,0,0-1.41-1.41l-1.15,1.15L37,15.84v-11l8,6.4Z"/></svg>