<svg xmlns="http://www.w3.org/2000/svg" viewBox="0 0 48 48"><defs/><path d="M24.4,27.8,23,19.4A2.19,2.19,0,0,0,21,18H16v1s1-.2,3,1l3,12h4l6-14H28Z"/><path d="M24,0A24,24,0,1,0,48,24,24,24,0,0,0,24,0Zm0,45A21,21,0,1,1,45,24,21,21,0,0,1,24,45Z"/><path d="M8,24A16,16,0,0,1,17.77,9.26a16.13,16.13,0,0,1,12.46,0,16,16,0,0,1,5.09,3.43,1,1,0,0,0,1.41-1.41A18,18,0,0,0,31,7.42a18.13,18.13,0,0,0-14,0A18,18,0,0,0,7.42,31a1,1,0,1,0,1.84-.78A15.89,15.89,0,0,1,8,24Z"/><path d="M40.05,29.7a1,1,0,0,0-1.31.53,16.06,16.06,0,0,1-8.52,8.52,16.13,16.13,0,0,1-12.46,0,16,16,0,0,1-5.09-3.43,1,1,0,0,0-1.41,1.41A18,18,0,0,0,40.58,31,1,1,0,0,0,40.05,29.7Z"/><path d="M40.58,17a1,1,0,0,0-1.84.78A15.9,15.9,0,0,1,40,24a1,1,0,1,0,2,0A17.87,17.87,0,0,0,40.58,17Z"/></svg>