<svg xmlns="http://www.w3.org/2000/svg" viewBox="0 0 48 48"><defs/><path d="M24,0A24,24,0,1,0,48,24,24,24,0,0,0,24,0ZM18,3.87A33.12,33.12,0,0,0,12.91,13H6.15A21.07,21.07,0,0,1,18,3.87Zm-13,11h7.18A32.57,32.57,0,0,0,11,23H3.05A21.32,21.32,0,0,1,5.06,14.9ZM3.05,25H11a31.8,31.8,0,0,0,1.28,8H5.06A20.82,20.82,0,0,1,3.05,25ZM6.15,35h6.76A33.11,33.11,0,0,0,18,44.13,21.07,21.07,0,0,1,6.15,35ZM23,44.95c-.59,0-1.17-.07-1.75-.15a31.48,31.48,0,0,1-6.2-9.8H23ZM23,33H14.35A29.87,29.87,0,0,1,13,25H23Zm0-10H13a29.87,29.87,0,0,1,1.38-8H23Zm0-10H15.05a31.48,31.48,0,0,1,6.2-9.8c.57-.08,1.16-.12,1.75-.15ZM44.95,23H37a31.82,31.82,0,0,0-1.28-8h7.19A20.82,20.82,0,0,1,44.95,23ZM41.85,13H35.09A33.11,33.11,0,0,0,30,3.87,21.06,21.06,0,0,1,41.85,13ZM25,3.05c.59,0,1.17.07,1.74.15a31.48,31.48,0,0,1,6.2,9.8H25ZM25,15h8.65A29.89,29.89,0,0,1,35,23H25Zm0,9.9H35A30.63,30.63,0,0,1,33.65,33H25Zm0,20v-10h7.94a31.93,31.93,0,0,1-6.19,9.9C26.17,44.88,25.59,44.92,25,44.95Zm5-.82a33.66,33.66,0,0,0,5.12-9.23h6.77A21.23,21.23,0,0,1,30,44.13ZM42.94,33H35.75A32.61,32.61,0,0,0,37,24.9h7.92A21.32,21.32,0,0,1,42.94,33Z"/></svg>