<svg xmlns="http://www.w3.org/2000/svg" viewBox="0 0 48 48"><defs/><path d="M34,32.91h6a2,2,0,0,0,2-2v-2.8a2,2,0,0,0-2-2H34a2,2,0,0,0-2,2v2.8A2,2,0,0,0,34,32.91Zm0-5h6V31H34Z"/><rect width="9" height="1.8" x="6" y="26.11"/><rect width="19" height="1.8" x="6" y="31.11"/><path d="M43.5,7.11H4.5A4.5,4.5,0,0,0,0,11.61v24.8a4.5,4.5,0,0,0,4.5,4.5h39a4.5,4.5,0,0,0,4.5-4.5V11.61A4.5,4.5,0,0,0,43.5,7.11ZM45,36.51A1.5,1.5,0,0,1,43.5,38H4.5A1.5,1.5,0,0,1,3,36.51V17.91H45Zm0-20.4H3v-4.7a1.5,1.5,0,0,1,1.5-1.5h39a1.5,1.5,0,0,1,1.5,1.5Z"/></svg>