<svg xmlns="http://www.w3.org/2000/svg" viewBox="0 0 48 48"><defs/><path d="M24,48A24,24,0,1,1,48,24,24,24,0,0,1,24,48ZM24,3A21,21,0,1,0,45,24,21,21,0,0,0,24,3Z"/><path d="M24,39.5A15.5,15.5,0,1,1,39.5,24,15.52,15.52,0,0,1,24,39.5Zm0-28A12.5,12.5,0,1,0,36.5,24,12.51,12.51,0,0,0,24,11.5Z"/><path d="M14.1,15.1a1,1,0,0,1-.71-.29L7,8.44A1,1,0,0,1,8.44,7l6.36,6.36a1,1,0,0,1-.71,1.71Z"/><path d="M40.26,41.26a1,1,0,0,1-.71-.29l-6.36-6.36a1,1,0,0,1,1.41-1.41L41,39.56a1,1,0,0,1-.71,1.71Z"/><path d="M33.9,15.1a1,1,0,0,1-.71-1.71L39.56,7A1,1,0,0,1,41,8.44l-6.36,6.36A1,1,0,0,1,33.9,15.1Z"/><path d="M7.74,41.26A1,1,0,0,1,7,39.56l6.36-6.36a1,1,0,0,1,1.41,1.41L8.44,41A1,1,0,0,1,7.74,41.26Z"/></svg>