<svg xmlns="http://www.w3.org/2000/svg" viewBox="0 0 48 48"><defs/><path d="M47.13,39.82,26.61,3.91a3.46,3.46,0,0,0-3-1.76h0A3.46,3.46,0,0,0,20.5,4L.84,39.87A3.47,3.47,0,0,0,.9,43.34a3.38,3.38,0,0,0,3,1.62H44.09a3.38,3.38,0,0,0,3-1.64A3.47,3.47,0,0,0,47.13,39.82Zm-2.61,2a.49.49,0,0,1-.43.25H3.91a.5.5,0,0,1-.44-.74L23.13,5.41a.48.48,0,0,1,.43-.26h0A.48.48,0,0,1,24,5.4h0L44.52,41.3A.48.48,0,0,1,44.52,41.8Z"/><path d="M23.44,16.05a1.42,1.42,0,0,0-1.4,1.5v12a1.42,1.42,0,0,0,1.4,1.5,1.5,1.5,0,0,0,1.5-1.5v-12A1.5,1.5,0,0,0,23.44,16.05Z"/><path d="M23.44,33.05a1.42,1.42,0,0,0-1.4,1.5v1a1.42,1.42,0,0,0,1.4,1.5,1.5,1.5,0,0,0,1.5-1.5v-1A1.5,1.5,0,0,0,23.44,33.05Z"/></svg>