<svg xmlns="http://www.w3.org/2000/svg" viewBox="0 0 48 48"><defs/><path d="M43.5,0H6.5A4.5,4.5,0,0,0,2,4.5V14H0v3H2V31H0v3H2v9.5A4.5,4.5,0,0,0,6.5,48h37A4.5,4.5,0,0,0,48,43.5V4.5A4.5,4.5,0,0,0,43.5,0ZM5,17H8V31H5Zm6-3V9H39V39H11V14ZM45,43.5A1.5,1.5,0,0,1,43.5,45H6.5A1.5,1.5,0,0,1,5,43.5V34H8v6.5A1.5,1.5,0,0,0,9.5,42h31A1.5,1.5,0,0,0,42,40.5V7.5A1.5,1.5,0,0,0,40.5,6H9.5A1.5,1.5,0,0,0,8,7.5V14H5V4.5A1.5,1.5,0,0,1,6.5,3h37A1.5,1.5,0,0,1,45,4.5Z"/><path d="M25,29a5,5,0,1,0-5-5A5,5,0,0,0,25,29Zm0-8a3,3,0,1,1-3,3A3,3,0,0,1,25,21Z"/><path d="M25,36A12,12,0,1,0,13,24,12,12,0,0,0,25,36ZM17.27,17.67l0,0,1,1a1,1,0,0,0,1.41-1.41l-1-1,0,0A10,10,0,0,1,24,14.05V16a1,1,0,0,0,2,0V14.05a10,10,0,0,1,5.33,2.22l0,0-1,1a1,1,0,1,0,1.41,1.41l1-1,0,0A10,10,0,0,1,34.95,23H33a1,1,0,0,0,0,2h1.95a10,10,0,0,1-2.22,5.33l0,0-1-1a1,1,0,0,0-1.41,1.41l1,1,0,0A10,10,0,0,1,26,33.95V32a1,1,0,0,0-2,0v1.95a10,10,0,0,1-5.33-2.22l0,0,1-1a1,1,0,0,0-1.41-1.41l-1,1,0,0A10,10,0,0,1,15.05,25H17a1,1,0,0,0,0-2H15.05A10,10,0,0,1,17.27,17.67Z"/></svg>