<svg xmlns="http://www.w3.org/2000/svg" viewBox="0 0 48 48"><defs/><path d="M0,9.5v33A3.5,3.5,0,0,0,3.5,46h41A3.5,3.5,0,0,0,48,42.5v-28A3.5,3.5,0,0,0,44.5,11H38.84V5.5A3.5,3.5,0,0,0,35.34,2H6A6,6,0,0,0,0,8ZM5.8,5H35.54a.5.5,0,0,1,.5.5V11H5.8a3,3,0,0,1,0-6ZM45,42.5a.5.5,0,0,1-.5.5H3.3a.5.5,0,0,1-.5-.5V13.19a6,6,0,0,0,3,.81H44.5a.5.5,0,0,1,.5.5Z"/><rect width="3.7" height="2" x="22.1" y="38"/><rect width="3.7" height="2" x="29.1" y="38"/><rect width="3.7" height="2" x="36.1" y="38"/><rect width="3.7" height="2" x="15.1" y="38"/><rect width="3.7" height="2" x="8.1" y="38"/><rect width="3.8" height="2" x="22" y="17"/><rect width="3.8" height="2" x="29" y="17"/><rect width="3.8" height="2" x="36" y="17"/><rect width="3.8" height="2" x="15" y="17"/><rect width="3.8" height="2" x="8" y="17"/></svg>