<svg xmlns="http://www.w3.org/2000/svg" viewBox="0 0 48 48"><defs/><path d="M37,28H27a1,1,0,0,0-1,1v7a1,1,0,0,0,1,1H37a1,1,0,0,0,1-1V29A1,1,0,0,0,37,28Zm-1,7H28V30h8Z"/><path d="M47.88,15.85,41.4.91A1.5,1.5,0,0,0,40,0H8A1.5,1.5,0,0,0,6.6.91L.12,15.85a1.5,1.5,0,0,0-.12.59V20.3a3.51,3.51,0,0,0,3,3.46V46.3a1.53,1.53,0,0,0,1.6,1.5h39A1.48,1.48,0,0,0,45,46.3V23.76a3.51,3.51,0,0,0,3-3.46V16.44A1.5,1.5,0,0,0,47.88,15.85ZM12.31,21,15.74,2.8H23V21ZM26,2.8h5.32L35.6,21H26ZM3,16.75,9,2.8h3.72L9.26,21H3.5a.5.5,0,0,1-.5-.5ZM20,45H12V30h8Zm1.9,0V29a1,1,0,0,0-1-1H11a1,1,0,0,0-1,1V45H6V23.8H42V45ZM45,20.5a.5.5,0,0,1-.5.5H38.68L34.4,2.8H39l6,13.95Z"/></svg>