<svg xmlns="http://www.w3.org/2000/svg" viewBox="0 0 24 24"><defs/><path d="M16.2.3A1,1,0,0,0,14.78,1.7a14.67,14.67,0,0,1,0,20.59A1,1,0,1,0,16.2,23.7,16.67,16.67,0,0,0,16.2.3Z"/><path d="M12.37,3.44a1,1,0,0,0-1.42,1.41,10.19,10.19,0,0,1,0,14.31,1,1,0,0,0,1.42,1.41,12.19,12.19,0,0,0,0-17.12Z"/><path d="M8.54,6.58A1,1,0,0,0,7.12,8a5.71,5.71,0,0,1,0,8,1,1,0,0,0,1.42,1.41,7.71,7.71,0,0,0,0-10.84Z"/><path d="M3.3,9.72a1,1,0,0,0,0,1.41,1.24,1.24,0,0,1,0,1.74,1,1,0,1,0,1.42,1.41,3.24,3.24,0,0,0,0-4.55A1,1,0,0,0,3.3,9.72Z"/></svg>