<?xml version="1.0" encoding="utf-8"?><svg xmlns="http://www.w3.org/2000/svg" xmlns:xlink="http://www.w3.org/1999/xlink" style="enable-background:new 0 0 24 24" x="0px" y="0px" version="1.1" viewBox="0 0 24 24" xml:space="preserve"><path d="M21.5,4.5L18,0.8c-0.1-0.5-0.5-0.8-1-0.8c-0.1,0-0.1,0-0.2,0c-0.1,0-0.3,0-0.4,0H4c-1.1,0-2,0.9-2,2V22	c0,1.1,0.9,2,2,2h16c1.1,0,2-0.9,2-2V5.8C22,5.3,21.8,4.8,21.5,4.5z M18,3.8l1.2,1.3H18V3.8z M20,22.1H3.9v-20H16v4c0,0.6,0.4,1,1,1	h3V22.1z"/><path d="M9,15c-0.6,0-1,0.4-1,1c0,0.6,0.4,1,1,1h2v1c0,0.6,0.4,1,1,1c0.6,0,1-0.4,1-1v-1h0.5c1.4,0,2.5-1.1,2.5-2.5	S14.9,12,13.5,12H13v-1h2c0.6,0,1-0.4,1-1s-0.4-1-1-1h-2V8c0-0.6-0.4-1-1-1c-0.6,0-1,0.4-1,1v1h-0.5C9.1,9,8,10.1,8,11.5	S9.1,14,10.5,14H11v1H9z M13,14h0.5c0.3,0,0.5,0.2,0.5,0.5S13.8,15,13.5,15H13V14z M10.5,12c-0.3,0-0.5-0.2-0.5-0.5s0.2-0.5,0.5-0.5	H11v1H10.5z"/></svg>