<svg xmlns="http://www.w3.org/2000/svg" viewBox="0 0 24 24"><defs/><path d="M12.07,0h-.14a12,12,0,1,0,.14,0ZM9.13,14a16.75,16.75,0,0,1,0-4h5.74a16.75,16.75,0,0,1,0,4Zm5.38,2A15.27,15.27,0,0,1,12,21.39,15.27,15.27,0,0,1,9.49,16ZM2,12a10,10,0,0,1,.2-2H7.13a18.91,18.91,0,0,0,0,4H2.2A10,10,0,0,1,2,12ZM9.49,8A15.27,15.27,0,0,1,12,2.61,15.27,15.27,0,0,1,14.51,8Zm7.38,2H21.8a10,10,0,0,1,0,4H16.87A18.91,18.91,0,0,0,16.87,10Zm4.29-2H16.54a17.45,17.45,0,0,0-2.37-5.76A10,10,0,0,1,21.16,8ZM9.84,2.24A17.45,17.45,0,0,0,7.46,8H2.84A10,10,0,0,1,9.84,2.24ZM2.84,16H7.46a17.45,17.45,0,0,0,2.37,5.76A10,10,0,0,1,2.84,16Zm11.32,5.76A17.45,17.45,0,0,0,16.54,16h4.62A10,10,0,0,1,14.16,21.76Z"/></svg>