<svg xmlns="http://www.w3.org/2000/svg" viewBox="0 0 24 24"><defs/><path d="M8,8.5A4,4,0,0,0,5,4.64V2.5a1,1,0,0,0-2,0V4.64a4,4,0,0,0,0,7.72V21.5a1,1,0,0,0,2,0V12.36A4,4,0,0,0,8,8.5Zm-4,2a2,2,0,1,1,2-2A2,2,0,0,1,4,10.5Z"/><path d="M13,11.64V2.5a1,1,0,0,0-2,0v9.14a4,4,0,0,0,0,7.72V21.5a1,1,0,1,0,2,0V19.36a4,4,0,0,0,0-7.72ZM12,17.5a2,2,0,1,1,2-2A2,2,0,0,1,12,17.5Z"/><path d="M24,8.5a4,4,0,0,0-3-3.86V2.5a1,1,0,0,0-2,0V4.64a4,4,0,0,0,0,7.72V21.5a1,1,0,1,0,2,0V12.36A4,4,0,0,0,24,8.5Zm-4,2a2,2,0,1,1,2-2A2,2,0,0,1,20,10.5Z"/></svg>