<svg xmlns="http://www.w3.org/2000/svg" viewBox="0 0 24 24"><defs/><path d="M1,7A1,1,0,0,0,2,6V2H6A1,1,0,0,0,6,0H1.49A1.49,1.49,0,0,0,0,1.49V6A1,1,0,0,0,1,7Z"/><path d="M6,22H2V18a1,1,0,0,0-2,0v4.51A1.49,1.49,0,0,0,1.49,24H6a1,1,0,0,0,0-2Z"/><path d="M23,17a1,1,0,0,0-1,1v4H18a1,1,0,0,0,0,2h4.51A1.49,1.49,0,0,0,24,22.51V18A1,1,0,0,0,23,17Z"/><path d="M22.51,0H18a1,1,0,0,0,0,2h4V6a1,1,0,0,0,2,0V1.49A1.49,1.49,0,0,0,22.51,0Z"/><path d="M10,4H5A1,1,0,0,0,4,5v5a1,1,0,0,0,1,1h5a1,1,0,0,0,1-1V5A1,1,0,0,0,10,4ZM9,9H6V6H9Z"/><path d="M14,11h5a1,1,0,0,0,1-1V5a1,1,0,0,0-1-1H14a1,1,0,0,0-1,1v5A1,1,0,0,0,14,11Zm1-5h3V9H15Z"/><path d="M19,20a1,1,0,0,0,1-1V14a1,1,0,0,0-1-1H14a1,1,0,0,0-1,1v2a1,1,0,0,0,1,1h2l0,2a1,1,0,0,0,1,1Z"/><path d="M10,13H5a1,1,0,0,0-1,1v5a1,1,0,0,0,1,1h5a1,1,0,0,0,1-1V14A1,1,0,0,0,10,13ZM9,18H6V15H9Z"/></svg>