<svg xmlns="http://www.w3.org/2000/svg" viewBox="0 0 24 24"><defs/><path d="M9,12H5A1,1,0,0,0,5,14H9A1,1,0,1,0,9,12Z"/><path d="M23.95,7.05a7,7,0,0,0-14,0s0,.06,0,.1H3.05a3.16,3.16,0,0,0-3,3v10.8a3.16,3.16,0,0,0,3,3h15.8a3.16,3.16,0,0,0,3-3v-8.8a.93.93,0,0,0,0-.09A7,7,0,0,0,23.95,7.05Zm-7-5a5,5,0,1,1-5,5A5,5,0,0,1,16.95,2.05Zm1.91,20H3.05a1.17,1.17,0,0,1-1-1v-1.1h17.8V21A1.17,1.17,0,0,1,18.85,22Zm1.2-4H2V9.95a1.17,1.17,0,0,1,1-1h7.31a7,7,0,0,0,6.68,4.9,7.9,7.9,0,0,0,3.11-.64Z"/><path d="M16,9.34a.87.87,0,0,0,.62.26h.06a.87.87,0,0,0,.63-.35l2.61-3.48a.87.87,0,1,0-1.39-1l-2,2.68-1-1A.87.87,0,1,0,14.27,7.6Z"/></svg>