<svg xmlns="http://www.w3.org/2000/svg" viewBox="0 0 24 24"><defs/><path d="M6.54,3.73a.92.92,0,0,0,.55-.18,8.36,8.36,0,0,1,9.89,0A.93.93,0,1,0,18.1,2.06,10.24,10.24,0,0,0,6,2.06a.92.92,0,0,0,.56,1.67Z"/><path d="M20.81,8.32a10.27,10.27,0,0,0-8.74-5.4h-.12c-3.52,0-6.7,2-8.74,5.44A.93.93,0,0,0,4.8,9.3c1.74-3,4.33-4.57,7.25-4.53a8.42,8.42,0,0,1,7.15,4.45.92.92,0,0,0,1.62-.9Z"/><path d="M12,5.71A7.74,7.74,0,0,0,5.86,8.85c-2,2.66-2.53,6.47-1.39,10.75a.93.93,0,1,0,1.79-.48c-1-3.71-.61-7,1.07-9.14A5.91,5.91,0,0,1,12,7.56c4,0,6.41,3.89,6.41,7.5A1.76,1.76,0,0,1,16.89,17a1.77,1.77,0,0,1-1.53-1.93s0,0,0-.07A3.58,3.58,0,0,0,12,11.37a3.61,3.61,0,0,0-3.37,3.74c-.08,1.83.82,7,5.85,8.76a.93.93,0,0,0,.62-1.74c-4-1.41-4.68-5.59-4.62-6.94,0-1.1.72-2,1.53-2a1.76,1.76,0,0,1,1.52,1.93s0,0,0,.07a3.58,3.58,0,0,0,3.38,3.62,3.6,3.6,0,0,0,3.37-3.78C20.26,10.57,17.1,5.71,12,5.71Z"/><path d="M8.13,14.64A4.64,4.64,0,0,1,10,11a3.26,3.26,0,0,1,3.49-.31,5,5,0,0,1,2.4,4.5.92.92,0,1,0,1.85,0,6.87,6.87,0,0,0-3.39-6.14A5.09,5.09,0,0,0,9,9.51a6.49,6.49,0,0,0-2.7,5,12.4,12.4,0,0,0,3,8.92.92.92,0,1,0,1.3-1.31A10.68,10.68,0,0,1,8.13,14.64Z"/><path d="M17.73,19.57a3.89,3.89,0,0,1-3.42-.81,5.53,5.53,0,0,1-1.38-3.68.93.93,0,0,0-.9-.95h0a.93.93,0,0,0-.92.9A7.37,7.37,0,0,0,13,20.08a5.2,5.2,0,0,0,3.79,1.41A8.54,8.54,0,0,0,18,21.4a.92.92,0,1,0-.26-1.83Z"/></svg>