<svg xmlns="http://www.w3.org/2000/svg" viewBox="0 0 24 24"><defs/><path d="M9,13.1h2v1H9a1,1,0,0,0,0,2h2v1a1,1,0,0,0,2,0v-1h2a1,1,0,0,0,1-1v-3a1,1,0,0,0-1-1H13v-1h2a1,1,0,1,0,0-2H13v-1a1,1,0,0,0-2,0v1H9a1,1,0,0,0-1,1v3A1,1,0,0,0,9,13.1Zm5,0v1H13v-1Zm-4-3h1v1H10Z"/><path d="M17,17A7,7,0,0,1,5,12v-.59l1.29,1.29a1,1,0,1,0,1.41-1.41l-3-3a1,1,0,0,0-1.41,0l-3,3a1,1,0,0,0,1.41,1.41L3,11.41V12a9,9,0,0,0,15.36,6.36A1,1,0,0,0,17,17Z"/><path d="M23.71,11.29a1,1,0,0,0-1.41,0L21,12.59V12A9,9,0,0,0,5.64,5.64,1,1,0,0,0,7,7a7,7,0,0,1,12,5v.59l-1.29-1.29a1,1,0,0,0-1.41,1.41l3,3a1,1,0,0,0,1.41,0l3-3A1,1,0,0,0,23.71,11.29Z"/></svg>