<svg xmlns="http://www.w3.org/2000/svg" viewBox="0 0 24 24"><defs/><path d="M22,7H19V3a1,1,0,0,0-1-1H3.5A3.5,3.5,0,0,0,0,5.51v15.4a2,2,0,0,0,2,2H22a2,2,0,0,0,2-2V9A2,2,0,0,0,22,7ZM3.5,3.91H17V7H3.5A1.5,1.5,0,0,1,2,5.51,1.59,1.59,0,0,1,3.5,3.91ZM22,21H2V8.91H22Z"/><path d="M15.68,13.76l-1.57-.23a1.55,1.55,0,0,1-1-.75l-.7-1.42c-.09-.18-.2-.27-.32-.27s-.23.09-.32.27L11,12.78a1.55,1.55,0,0,1-1,.75l-1.57.23c-.39.06-.48.33-.2.61l1.14,1.11a1.55,1.55,0,0,1,.4,1.22l-.27,1.57c0,.28.06.45.26.45a.57.57,0,0,0,.26-.08l1.41-.74a1.55,1.55,0,0,1,1.28,0l1.41.74a.57.57,0,0,0,.26.08c.2,0,.31-.17.26-.45l-.27-1.57a1.55,1.55,0,0,1,.4-1.22l1.14-1.11C16.16,14.09,16.08,13.82,15.68,13.76Zm-2.8,2.67a3.11,3.11,0,0,0-1.67,0,3.11,3.11,0,0,0-.52-1.59,3.11,3.11,0,0,0,1.35-1,3.1,3.1,0,0,0,1.35,1A3.1,3.1,0,0,0,12.88,16.43Z"/></svg>