<svg xmlns="http://www.w3.org/2000/svg" viewBox="0 0 24 24"><defs/><path d="M14.95,9.71a1,1,0,0,0-.63-.63l-6-2A1,1,0,0,0,7.05,8.34l2,6a1,1,0,0,0,.63.63l6,2A1,1,0,0,0,16,17a1,1,0,0,0,.95-1.32Zm-4.16,3.53L9.58,9.61l3.63,1.21,1.21,3.63Z"/><path d="M23.94,12.33A1,1,0,0,0,24,12a1,1,0,0,0,0-.25,11.86,11.86,0,0,0-23.7-.39,1,1,0,0,0,0,1.29A11.91,11.91,0,0,0,11.48,23.86a.89.89,0,0,0,1,0A11.91,11.91,0,0,0,23.94,12.33ZM13,21.84V20a1,1,0,1,0-2,0v1.8A9.93,9.93,0,0,1,2.28,13H4a1,1,0,0,0,0-2H2.26A9.93,9.93,0,0,1,11,2V4a1,1,0,0,0,2,0V2a9.92,9.92,0,0,1,8.91,9H20a1,1,0,0,0,0,2h1.9A9.92,9.92,0,0,1,13,21.84Z"/></svg>