<svg xmlns="http://www.w3.org/2000/svg" viewBox="0 0 24 24"><defs/><path d="M18,17H16a1,1,0,0,0,0,2h2a1,1,0,0,0,0-2Z"/><path d="M13,17H11a1,1,0,0,0,0,2h2a1,1,0,0,0,0-2Z"/><path d="M8,17H6a1,1,0,0,0,0,2H8a1,1,0,0,0,0-2Z"/><path d="M18,12H16a1,1,0,0,0,0,2h2a1,1,0,0,0,0-2Z"/><path d="M13,12H11a1,1,0,0,0,0,2h2a1,1,0,0,0,0-2Z"/><path d="M8,12H6a1,1,0,0,0,0,2H8a1,1,0,0,0,0-2Z"/><path d="M22,2H17V1a1,1,0,0,0-2,0V2H9V1A1,1,0,0,0,7,1V2H2A2,2,0,0,0,0,4V22a2,2,0,0,0,2,2H22a2,2,0,0,0,2-2V4A2,2,0,0,0,22,2ZM7,4V5A1,1,0,0,0,9,5V4h6V5a1,1,0,0,0,2,0V4h5V7H2V4ZM2,22V9H22V22Z"/></svg>