<svg xmlns="http://www.w3.org/2000/svg" viewBox="0 0 24 24"><defs/><path d="M23,20H1.11a1,1,0,0,0,0,2H23a1,1,0,0,0,0-2Z"/><path d="M.29,17.25a1,1,0,0,0,1.41,0l.4-.4.4.4a1,1,0,0,0,1.41-1.42l-.39-.38.39-.38A1,1,0,1,0,2.5,13.65l-.4.4-.4-.4A1,1,0,1,0,.3,15.07l.39.38-.39.38A1,1,0,0,0,.29,17.25Z"/><path d="M6.45,17.28q1.21-1.12,2.32-2.34a3.85,3.85,0,0,0,.64,1.17,4.53,4.53,0,0,0,2.46,1.46,6.45,6.45,0,0,0,1.6.2,7.17,7.17,0,0,0,4.37-1.52,5.94,5.94,0,0,0,5.28,1,1,1,0,0,0-.49-1.94,4.06,4.06,0,0,1-3.41-.51,6.32,6.32,0,0,0,.58-1c.14-.31.81-1.9.21-3A1.52,1.52,0,0,0,18.87,10a2,2,0,0,0-2.06,1.11,4.61,4.61,0,0,0-.07,3.44,5.06,5.06,0,0,1-4.37,1.06A2.65,2.65,0,0,1,11,14.86a3.21,3.21,0,0,1-.51-1.9,37.93,37.93,0,0,0,3.92-6,5.13,5.13,0,0,0,.72-2.27,2.57,2.57,0,0,0-1.62-2.53c-1.7-.57-3.09,1-3.68,2.63a23.86,23.86,0,0,0-1.33,7.5A36.07,36.07,0,0,1,5.1,15.81a1,1,0,1,0,1.36,1.47ZM11.69,5.41c.26-.75.78-1.41,1.08-1.41h.06a.65.65,0,0,1,.27.59A3.45,3.45,0,0,1,12.61,6a35.8,35.8,0,0,1-1.87,3.19A22,22,0,0,1,11.69,5.41Z"/></svg>