<svg xmlns="http://www.w3.org/2000/svg" viewBox="0 0 24 24"><defs/><path d="M20,3.34a10.21,10.21,0,0,1-7.29-3,1,1,0,0,0-1.42,0A10.21,10.21,0,0,1,4,3.34a1,1,0,0,0-1,1v10.6a9,9,0,1,0,18,0V4.34A1,1,0,0,0,20,3.34Zm-1,11.6a7,7,0,1,1-14,0V5.3a12.15,12.15,0,0,0,7-2.93A12.15,12.15,0,0,0,19,5.3Z"/><path d="M11.66,8.24a1,1,0,0,0-1.41,0L9.45,9l-.79-.79A1,1,0,0,0,7.24,9.65l.79.79-.79.79a1,1,0,1,0,1.41,1.41l.79-.79.79.79a1,1,0,0,0,1.41-1.41l-.79-.79.79-.79A1,1,0,0,0,11.66,8.24Z"/><path d="M10,15.08H8A.92.92,0,0,0,7,16a1,1,0,0,0,1,1h2a1,1,0,0,0,1-1A.92.92,0,0,0,10,15.08Z"/><path d="M14,17h2a1,1,0,0,0,1-1,.92.92,0,0,0-1-.9H14a.92.92,0,0,0-1,.9A1,1,0,0,0,14,17Z"/></svg>