<svg xmlns="http://www.w3.org/2000/svg" viewBox="0 0 24 24"><defs/><path d="M6.21,8A7.42,7.42,0,0,0,5,8.08v4a8,8,0,0,0,1,.05,2.7,2.7,0,0,0,1.83-.55A2.09,2.09,0,0,0,8.49,10a1.81,1.81,0,0,0-.63-1.49A2.46,2.46,0,0,0,6.21,8Zm0,3.53a2.81,2.81,0,0,1-.41,0V8.62a2.36,2.36,0,0,1,.5,0A1.28,1.28,0,0,1,7.71,10,1.38,1.38,0,0,1,6.18,11.52Z"/><polygon points="9.72 10.28 11.25 10.28 11.25 9.68 9.72 9.68 9.72 8.63 11.34 8.63 11.34 8.03 8.98 8.03 8.98 12.07 11.43 12.07 11.43 11.46 9.72 11.46 9.72 10.28"/><path d="M13.9,9.9h0A.94.94,0,0,0,14.58,9a.85.85,0,0,0-.42-.76A1.91,1.91,0,0,0,13,8a6.18,6.18,0,0,0-1.07.08v4a7.05,7.05,0,0,0,.91.05,2.25,2.25,0,0,0,1.5-.38,1,1,0,0,0,.39-.83A1,1,0,0,0,13.9,9.9ZM12.66,8.57a2,2,0,0,1,.42,0c.47,0,.75.17.75.55s-.29.58-.8.58h-.38Zm.39,3-.39,0V10.22H13c.51,0,.92.19.92.66S13.52,11.55,13,11.55Z"/><rect width="0.74" height="4.04" x="15.23" y="8.03"/><polygon points="16.29 8.65 17.44 8.65 17.44 12.07 18.18 12.07 18.18 8.65 19.34 8.65 19.34 8.03 16.29 8.03 16.29 8.65"/><path d="M21,3H3A3,3,0,0,0,0,6V18a3,3,0,0,0,3,3H21a3,3,0,0,0,3-3V6A3,3,0,0,0,21,3Zm1,15a1,1,0,0,1-1,1H3a1,1,0,0,1-1-1V17H22Zm0-3H2V6A1,1,0,0,1,3,5H21a1,1,0,0,1,1,1Z"/></svg>