<svg xmlns="http://www.w3.org/2000/svg" viewBox="0 0 24 24"><defs/><path d="M14,11V9.71a1,1,0,0,0,0-.24,2.68,2.68,0,0,0-2.52-2.13A2.52,2.52,0,0,0,9,9.59a1.06,1.06,0,0,0,0,.13V11a1,1,0,0,0-1,1v4a1,1,0,0,0,1,1h5a1,1,0,0,0,1-1V12A1,1,0,0,0,14,11ZM11,9.79a.52.52,0,0,1,.45-.45c.22,0,.44.22.55.52V11H11ZM13,15H10V13h3Z"/><path d="M16,0H7A3,3,0,0,0,4,3V21a3,3,0,0,0,3,3h9a3,3,0,0,0,3-3V3A3,3,0,0,0,16,0ZM6,6H17V18H6ZM6,3A1,1,0,0,1,7,2h9a1,1,0,0,1,1,1V4H6ZM16,22H7a1,1,0,0,1-1-1V20H17v1A1,1,0,0,1,16,22Z"/></svg>