<svg xmlns="http://www.w3.org/2000/svg" viewBox="0 0 24 24"><defs/><path d="M21,3H3A3,3,0,0,0,0,6V18a3,3,0,0,0,3,3H21a3,3,0,0,0,3-3V6A3,3,0,0,0,21,3Zm1,15a1,1,0,0,1-1,1H3a1,1,0,0,1-1-1V6A1,1,0,0,1,3,5H21a1,1,0,0,1,1,1Z"/><polygon points="10.53 9.59 9.75 14.42 10.99 14.42 11.77 9.59 10.53 9.59"/><path d="M8.71,9.59,7.53,12.91l-.14-.72h0L7,10a.53.53,0,0,0-.59-.44h-2l0,.08.08,0h0l.25.08,0,0,.34.14.06,0,.44.23,0,0,1.07,4.19H8.07l2-4.83Z"/><path d="M17.6,9.59a.57.57,0,0,0-.57.36l-1.85,4.47h1.29l.26-.72H18.3l.15.72h1.14l-1-4.83Zm-.51,3.12.65-1.81.37,1.81Z"/><path d="M13.54,10.93c0-.55,1.21-.48,1.74-.18l.18-1a3.52,3.52,0,0,0-1.11-.21c-.61,0-2.07.27-2.07,1.6S14,12.36,14,13s-1.54.54-2,.12l-.18,1.08a3.42,3.42,0,0,0,1.4.27c.84,0,2.12-.44,2.12-1.65S13.54,11.47,13.54,10.93Z"/></svg>