<svg xmlns="http://www.w3.org/2000/svg" viewBox="0 0 24 24"><defs/><path d="M20.51,20.45a12,12,0,0,0,0-16.91l0,0,0,0a12,12,0,0,0-16.91,0l0,0,0,0a12,12,0,0,0,0,16.91l0,0,0,0a12,12,0,0,0,16.91,0l0,0Zm-.77-2.13L17.6,16.19a7,7,0,0,0,0-8.38l2.13-2.13a10,10,0,0,1,0,12.65ZM7,12.64A5,5,0,0,1,11.36,7,5,5,0,0,1,12,7a5,5,0,1,1-5,5.64ZM18.32,4.26,16.19,6.4a7,7,0,0,0-8.38,0L5.68,4.26a10,10,0,0,1,12.65,0ZM4.26,5.68,6.4,7.81a7,7,0,0,0,0,8.38L4.26,18.32a10,10,0,0,1,0-12.65ZM5.68,19.74,7.81,17.6A6.93,6.93,0,0,0,12,19a7.16,7.16,0,0,0,.91-.06,7,7,0,0,0,3.29-1.34l2.13,2.13a10,10,0,0,1-12.65,0Z"/></svg>