<svg xmlns="http://www.w3.org/2000/svg" viewBox="0 0 24 24"><defs/><path d="M21,4.5C21,2.06,16.88,0,12,0S3,2.06,3,4.5a2.18,2.18,0,0,0,0,.33A1,1,0,0,0,3,5V19c0,2.71,4.12,5,9,5s9-2.29,9-5V5a1,1,0,0,0,0-.17A2.18,2.18,0,0,0,21,4.5ZM19,14c0,1.21-2.94,3-7,3s-7-1.79-7-3V12.1A12.66,12.66,0,0,0,12,14a12.66,12.66,0,0,0,7-1.9Zm0-5c0,1.21-2.94,3-7,3S5,10.21,5,9V7.29A13.72,13.72,0,0,0,12,9a13.72,13.72,0,0,0,7-1.71ZM12,2c4.28,0,7,1.76,7,2.5S16.28,7,12,7,5,5.24,5,4.5,7.72,2,12,2Zm0,20c-4.06,0-7-1.79-7-3V17.1A12.66,12.66,0,0,0,12,19a12.66,12.66,0,0,0,7-1.9V19C19,20.21,16.06,22,12,22Z"/></svg>